SplineFontDB: 3.2
FontName: ultlf
FullName: ultlf
FamilyName: ultlf
Copyright: Copyright (c) 2021, ultlang
UComments: "Created with Bees"
Version: 000.002
ItalicAngle: 0
UnderlinePosition: -115
UnderlineWidth: 57
Ascent: 896
Descent: 256
LayerCount: 2
Layer: 0 0 "Back" 1
Layer: 1 0 "Fore" 0
TTFWeight: 400
TTFWidth: 5
LineGap: 104
DEI: 91125
Encoding: UnicodeFull
UnicodeInterp: none
BeginChars: 1114112 1569
StartChar: u0x20
Encoding: 32 32 1
Width: 512
Flags: W
LayerCount: 2
Fore
SplineSet
EndSplineSet
EndChar

StartChar: u0x21
Encoding: 33 33 2
Width: 256
Flags: W
LayerCount: 2
Fore
SplineSet
0 768 m 25
 0 896 l 25
 128 896 l 25
 128 768 l 25
 0 768 l 25
0 640 m 25
 0 768 l 25
 128 768 l 25
 128 640 l 25
 0 640 l 25
0 512 m 25
 0 640 l 25
 128 640 l 25
 128 512 l 25
 0 512 l 25
0 384 m 25
 0 512 l 25
 128 512 l 25
 128 384 l 25
 0 384 l 25
0 256 m 25
 0 384 l 25
 128 384 l 25
 128 256 l 25
 0 256 l 25
0 0 m 25
 0 128 l 25
 128 128 l 25
 128 0 l 25
 0 0 l 25
EndSplineSet
EndChar

StartChar: u0x22
Encoding: 34 34 3
Width: 512
Flags: W
LayerCount: 2
Fore
SplineSet
0 768 m 25
 0 896 l 25
 128 896 l 25
 128 768 l 25
 0 768 l 25
256 768 m 25
 256 896 l 25
 384 896 l 25
 384 768 l 25
 256 768 l 25
0 640 m 25
 0 768 l 25
 128 768 l 25
 128 640 l 25
 0 640 l 25
256 640 m 25
 256 768 l 25
 384 768 l 25
 384 640 l 25
 256 640 l 25
EndSplineSet
EndChar

StartChar: u0x23
Encoding: 35 35 4
Width: 768
Flags: W
LayerCount: 2
Fore
SplineSet
128 768 m 25
 128 896 l 25
 256 896 l 25
 256 768 l 25
 128 768 l 25
384 768 m 25
 384 896 l 25
 512 896 l 25
 512 768 l 25
 384 768 l 25
128 640 m 25
 128 768 l 25
 256 768 l 25
 256 640 l 25
 128 640 l 25
384 640 m 25
 384 768 l 25
 512 768 l 25
 512 640 l 25
 384 640 l 25
0 512 m 25
 0 640 l 25
 128 640 l 25
 128 512 l 25
 0 512 l 25
128 512 m 25
 128 640 l 25
 256 640 l 25
 256 512 l 25
 128 512 l 25
256 512 m 25
 256 640 l 25
 384 640 l 25
 384 512 l 25
 256 512 l 25
384 512 m 25
 384 640 l 25
 512 640 l 25
 512 512 l 25
 384 512 l 25
512 512 m 25
 512 640 l 25
 640 640 l 25
 640 512 l 25
 512 512 l 25
128 384 m 25
 128 512 l 25
 256 512 l 25
 256 384 l 25
 128 384 l 25
384 384 m 25
 384 512 l 25
 512 512 l 25
 512 384 l 25
 384 384 l 25
0 256 m 25
 0 384 l 25
 128 384 l 25
 128 256 l 25
 0 256 l 25
128 256 m 25
 128 384 l 25
 256 384 l 25
 256 256 l 25
 128 256 l 25
256 256 m 25
 256 384 l 25
 384 384 l 25
 384 256 l 25
 256 256 l 25
384 256 m 25
 384 384 l 25
 512 384 l 25
 512 256 l 25
 384 256 l 25
512 256 m 25
 512 384 l 25
 640 384 l 25
 640 256 l 25
 512 256 l 25
128 128 m 25
 128 256 l 25
 256 256 l 25
 256 128 l 25
 128 128 l 25
384 128 m 25
 384 256 l 25
 512 256 l 25
 512 128 l 25
 384 128 l 25
128 0 m 25
 128 128 l 25
 256 128 l 25
 256 0 l 25
 128 0 l 25
384 0 m 25
 384 128 l 25
 512 128 l 25
 512 0 l 25
 384 0 l 25
EndSplineSet
EndChar

StartChar: u0x24
Encoding: 36 36 5
Width: 768
Flags: W
LayerCount: 2
Fore
SplineSet
256 768 m 25
 256 896 l 25
 384 896 l 25
 384 768 l 25
 256 768 l 25
128 640 m 25
 128 768 l 25
 256 768 l 25
 256 640 l 25
 128 640 l 25
256 640 m 25
 256 768 l 25
 384 768 l 25
 384 640 l 25
 256 640 l 25
384 640 m 25
 384 768 l 25
 512 768 l 25
 512 640 l 25
 384 640 l 25
512 640 m 25
 512 768 l 25
 640 768 l 25
 640 640 l 25
 512 640 l 25
0 512 m 25
 0 640 l 25
 128 640 l 25
 128 512 l 25
 0 512 l 25
256 512 m 25
 256 640 l 25
 384 640 l 25
 384 512 l 25
 256 512 l 25
128 384 m 25
 128 512 l 25
 256 512 l 25
 256 384 l 25
 128 384 l 25
256 384 m 25
 256 512 l 25
 384 512 l 25
 384 384 l 25
 256 384 l 25
384 384 m 25
 384 512 l 25
 512 512 l 25
 512 384 l 25
 384 384 l 25
256 256 m 25
 256 384 l 25
 384 384 l 25
 384 256 l 25
 256 256 l 25
512 256 m 25
 512 384 l 25
 640 384 l 25
 640 256 l 25
 512 256 l 25
0 128 m 25
 0 256 l 25
 128 256 l 25
 128 128 l 25
 0 128 l 25
128 128 m 25
 128 256 l 25
 256 256 l 25
 256 128 l 25
 128 128 l 25
256 128 m 25
 256 256 l 25
 384 256 l 25
 384 128 l 25
 256 128 l 25
384 128 m 25
 384 256 l 25
 512 256 l 25
 512 128 l 25
 384 128 l 25
256 0 m 25
 256 128 l 25
 384 128 l 25
 384 0 l 25
 256 0 l 25
EndSplineSet
EndChar

StartChar: u0x25
Encoding: 37 37 6
Width: 1024
Flags: W
LayerCount: 2
Fore
SplineSet
128 768 m 25
 128 896 l 25
 256 896 l 25
 256 768 l 25
 128 768 l 25
640 768 m 25
 640 896 l 25
 768 896 l 25
 768 768 l 25
 640 768 l 25
0 640 m 25
 0 768 l 25
 128 768 l 25
 128 640 l 25
 0 640 l 25
256 640 m 25
 256 768 l 25
 384 768 l 25
 384 640 l 25
 256 640 l 25
512 640 m 25
 512 768 l 25
 640 768 l 25
 640 640 l 25
 512 640 l 25
128 512 m 25
 128 640 l 25
 256 640 l 25
 256 512 l 25
 128 512 l 25
512 512 m 25
 512 640 l 25
 640 640 l 25
 640 512 l 25
 512 512 l 25
384 384 m 25
 384 512 l 25
 512 512 l 25
 512 384 l 25
 384 384 l 25
256 256 m 25
 256 384 l 25
 384 384 l 25
 384 256 l 25
 256 256 l 25
640 256 m 25
 640 384 l 25
 768 384 l 25
 768 256 l 25
 640 256 l 25
256 128 m 25
 256 256 l 25
 384 256 l 25
 384 128 l 25
 256 128 l 25
512 128 m 25
 512 256 l 25
 640 256 l 25
 640 128 l 25
 512 128 l 25
768 128 m 25
 768 256 l 25
 896 256 l 25
 896 128 l 25
 768 128 l 25
128 0 m 25
 128 128 l 25
 256 128 l 25
 256 0 l 25
 128 0 l 25
640 0 m 25
 640 128 l 25
 768 128 l 25
 768 0 l 25
 640 0 l 25
EndSplineSet
EndChar

StartChar: u0x26
Encoding: 38 38 7
Width: 768
Flags: W
LayerCount: 2
Fore
SplineSet
128 768 m 25
 128 896 l 25
 256 896 l 25
 256 768 l 25
 128 768 l 25
256 768 m 25
 256 896 l 25
 384 896 l 25
 384 768 l 25
 256 768 l 25
0 640 m 25
 0 768 l 25
 128 768 l 25
 128 640 l 25
 0 640 l 25
0 512 m 25
 0 640 l 25
 128 640 l 25
 128 512 l 25
 0 512 l 25
128 384 m 25
 128 512 l 25
 256 512 l 25
 256 384 l 25
 128 384 l 25
256 384 m 25
 256 512 l 25
 384 512 l 25
 384 384 l 25
 256 384 l 25
384 384 m 25
 384 512 l 25
 512 512 l 25
 512 384 l 25
 384 384 l 25
512 384 m 25
 512 512 l 25
 640 512 l 25
 640 384 l 25
 512 384 l 25
0 256 m 25
 0 384 l 25
 128 384 l 25
 128 256 l 25
 0 256 l 25
384 256 m 25
 384 384 l 25
 512 384 l 25
 512 256 l 25
 384 256 l 25
0 128 m 25
 0 256 l 25
 128 256 l 25
 128 128 l 25
 0 128 l 25
384 128 m 25
 384 256 l 25
 512 256 l 25
 512 128 l 25
 384 128 l 25
128 0 m 25
 128 128 l 25
 256 128 l 25
 256 0 l 25
 128 0 l 25
256 0 m 25
 256 128 l 25
 384 128 l 25
 384 0 l 25
 256 0 l 25
EndSplineSet
EndChar

StartChar: u0x27
Encoding: 39 39 8
Width: 256
Flags: W
LayerCount: 2
Fore
SplineSet
0 768 m 25
 0 896 l 25
 128 896 l 25
 128 768 l 25
 0 768 l 25
0 640 m 25
 0 768 l 25
 128 768 l 25
 128 640 l 25
 0 640 l 25
EndSplineSet
EndChar

StartChar: u0x28
Encoding: 40 40 9
Width: 512
Flags: W
LayerCount: 2
Fore
SplineSet
256 768 m 25
 256 896 l 25
 384 896 l 25
 384 768 l 25
 256 768 l 25
128 640 m 25
 128 768 l 25
 256 768 l 25
 256 640 l 25
 128 640 l 25
0 512 m 25
 0 640 l 25
 128 640 l 25
 128 512 l 25
 0 512 l 25
0 384 m 25
 0 512 l 25
 128 512 l 25
 128 384 l 25
 0 384 l 25
0 256 m 25
 0 384 l 25
 128 384 l 25
 128 256 l 25
 0 256 l 25
0 128 m 25
 0 256 l 25
 128 256 l 25
 128 128 l 25
 0 128 l 25
128 0 m 25
 128 128 l 25
 256 128 l 25
 256 0 l 25
 128 0 l 25
256 -128 m 25
 256 0 l 25
 384 0 l 25
 384 -128 l 25
 256 -128 l 25
EndSplineSet
EndChar

StartChar: u0x29
Encoding: 41 41 10
Width: 512
Flags: W
LayerCount: 2
Fore
SplineSet
0 768 m 25
 0 896 l 25
 128 896 l 25
 128 768 l 25
 0 768 l 25
128 640 m 25
 128 768 l 25
 256 768 l 25
 256 640 l 25
 128 640 l 25
256 512 m 25
 256 640 l 25
 384 640 l 25
 384 512 l 25
 256 512 l 25
256 384 m 25
 256 512 l 25
 384 512 l 25
 384 384 l 25
 256 384 l 25
256 256 m 25
 256 384 l 25
 384 384 l 25
 384 256 l 25
 256 256 l 25
256 128 m 25
 256 256 l 25
 384 256 l 25
 384 128 l 25
 256 128 l 25
128 0 m 25
 128 128 l 25
 256 128 l 25
 256 0 l 25
 128 0 l 25
0 -128 m 25
 0 0 l 25
 128 0 l 25
 128 -128 l 25
 0 -128 l 25
EndSplineSet
EndChar

StartChar: u0x2a
Encoding: 42 42 11
Width: 512
Flags: W
LayerCount: 2
Fore
SplineSet
0 768 m 25
 0 896 l 25
 128 896 l 25
 128 768 l 25
 0 768 l 25
256 768 m 25
 256 896 l 25
 384 896 l 25
 384 768 l 25
 256 768 l 25
128 640 m 25
 128 768 l 25
 256 768 l 25
 256 640 l 25
 128 640 l 25
0 512 m 25
 0 640 l 25
 128 640 l 25
 128 512 l 25
 0 512 l 25
256 512 m 25
 256 640 l 25
 384 640 l 25
 384 512 l 25
 256 512 l 25
EndSplineSet
EndChar

StartChar: u0x2b
Encoding: 43 43 12
Width: 768
Flags: W
LayerCount: 2
Fore
SplineSet
256 512 m 25
 256 640 l 25
 384 640 l 25
 384 512 l 25
 256 512 l 25
256 384 m 25
 256 512 l 25
 384 512 l 25
 384 384 l 25
 256 384 l 25
0 256 m 25
 0 384 l 25
 128 384 l 25
 128 256 l 25
 0 256 l 25
128 256 m 25
 128 384 l 25
 256 384 l 25
 256 256 l 25
 128 256 l 25
256 256 m 25
 256 384 l 25
 384 384 l 25
 384 256 l 25
 256 256 l 25
384 256 m 25
 384 384 l 25
 512 384 l 25
 512 256 l 25
 384 256 l 25
512 256 m 25
 512 384 l 25
 640 384 l 25
 640 256 l 25
 512 256 l 25
256 128 m 25
 256 256 l 25
 384 256 l 25
 384 128 l 25
 256 128 l 25
256 0 m 25
 256 128 l 25
 384 128 l 25
 384 0 l 25
 256 0 l 25
EndSplineSet
EndChar

StartChar: u0x2c
Encoding: 44 44 13
Width: 384
Flags: W
LayerCount: 2
Fore
SplineSet
128 0 m 25
 128 128 l 25
 256 128 l 25
 256 0 l 25
 128 0 l 25
128 -128 m 25
 128 0 l 25
 256 0 l 25
 256 -128 l 25
 128 -128 l 25
0 -256 m 25
 0 -128 l 25
 128 -128 l 25
 128 -256 l 25
 0 -256 l 25
EndSplineSet
EndChar

StartChar: u0x2d
Encoding: 45 45 14
Width: 512
Flags: W
LayerCount: 2
Fore
SplineSet
0 256 m 25
 0 384 l 25
 128 384 l 25
 128 256 l 25
 0 256 l 25
128 256 m 25
 128 384 l 25
 256 384 l 25
 256 256 l 25
 128 256 l 25
256 256 m 25
 256 384 l 25
 384 384 l 25
 384 256 l 25
 256 256 l 25
EndSplineSet
EndChar

StartChar: u0x2e
Encoding: 46 46 15
Width: 256
Flags: W
LayerCount: 2
Fore
SplineSet
0 0 m 25
 0 128 l 25
 128 128 l 25
 128 0 l 25
 0 0 l 25
EndSplineSet
EndChar

StartChar: u0x2f
Encoding: 47 47 16
Width: 512
Flags: W
LayerCount: 2
Fore
SplineSet
256 768 m 25
 256 896 l 25
 384 896 l 25
 384 768 l 25
 256 768 l 25
256 640 m 25
 256 768 l 25
 384 768 l 25
 384 640 l 25
 256 640 l 25
128 512 m 25
 128 640 l 25
 256 640 l 25
 256 512 l 25
 128 512 l 25
128 384 m 25
 128 512 l 25
 256 512 l 25
 256 384 l 25
 128 384 l 25
128 256 m 25
 128 384 l 25
 256 384 l 25
 256 256 l 25
 128 256 l 25
0 128 m 25
 0 256 l 25
 128 256 l 25
 128 128 l 25
 0 128 l 25
0 0 m 25
 0 128 l 25
 128 128 l 25
 128 0 l 25
 0 0 l 25
EndSplineSet
EndChar

StartChar: u0x30
Encoding: 48 48 17
Width: 640
Flags: W
LayerCount: 2
Fore
SplineSet
128 768 m 25
 128 896 l 25
 256 896 l 25
 256 768 l 25
 128 768 l 25
256 768 m 25
 256 896 l 25
 384 896 l 25
 384 768 l 25
 256 768 l 25
0 640 m 25
 0 768 l 25
 128 768 l 25
 128 640 l 25
 0 640 l 25
384 640 m 25
 384 768 l 25
 512 768 l 25
 512 640 l 25
 384 640 l 25
0 512 m 25
 0 640 l 25
 128 640 l 25
 128 512 l 25
 0 512 l 25
384 512 m 25
 384 640 l 25
 512 640 l 25
 512 512 l 25
 384 512 l 25
0 384 m 25
 0 512 l 25
 128 512 l 25
 128 384 l 25
 0 384 l 25
384 384 m 25
 384 512 l 25
 512 512 l 25
 512 384 l 25
 384 384 l 25
0 256 m 25
 0 384 l 25
 128 384 l 25
 128 256 l 25
 0 256 l 25
384 256 m 25
 384 384 l 25
 512 384 l 25
 512 256 l 25
 384 256 l 25
0 128 m 25
 0 256 l 25
 128 256 l 25
 128 128 l 25
 0 128 l 25
384 128 m 25
 384 256 l 25
 512 256 l 25
 512 128 l 25
 384 128 l 25
128 0 m 25
 128 128 l 25
 256 128 l 25
 256 0 l 25
 128 0 l 25
256 0 m 25
 256 128 l 25
 384 128 l 25
 384 0 l 25
 256 0 l 25
EndSplineSet
EndChar

StartChar: u0x31
Encoding: 49 49 18
Width: 384
Flags: W
LayerCount: 2
Fore
SplineSet
128 768 m 25
 128 896 l 25
 256 896 l 25
 256 768 l 25
 128 768 l 25
0 640 m 25
 0 768 l 25
 128 768 l 25
 128 640 l 25
 0 640 l 25
128 640 m 25
 128 768 l 25
 256 768 l 25
 256 640 l 25
 128 640 l 25
128 512 m 25
 128 640 l 25
 256 640 l 25
 256 512 l 25
 128 512 l 25
128 384 m 25
 128 512 l 25
 256 512 l 25
 256 384 l 25
 128 384 l 25
128 256 m 25
 128 384 l 25
 256 384 l 25
 256 256 l 25
 128 256 l 25
128 128 m 25
 128 256 l 25
 256 256 l 25
 256 128 l 25
 128 128 l 25
128 0 m 25
 128 128 l 25
 256 128 l 25
 256 0 l 25
 128 0 l 25
EndSplineSet
EndChar

StartChar: u0x32
Encoding: 50 50 19
Width: 640
Flags: W
LayerCount: 2
Fore
SplineSet
128 768 m 25
 128 896 l 25
 256 896 l 25
 256 768 l 25
 128 768 l 25
256 768 m 25
 256 896 l 25
 384 896 l 25
 384 768 l 25
 256 768 l 25
0 640 m 25
 0 768 l 25
 128 768 l 25
 128 640 l 25
 0 640 l 25
384 640 m 25
 384 768 l 25
 512 768 l 25
 512 640 l 25
 384 640 l 25
384 512 m 25
 384 640 l 25
 512 640 l 25
 512 512 l 25
 384 512 l 25
256 384 m 25
 256 512 l 25
 384 512 l 25
 384 384 l 25
 256 384 l 25
128 256 m 25
 128 384 l 25
 256 384 l 25
 256 256 l 25
 128 256 l 25
0 128 m 25
 0 256 l 25
 128 256 l 25
 128 128 l 25
 0 128 l 25
0 0 m 25
 0 128 l 25
 128 128 l 25
 128 0 l 25
 0 0 l 25
128 0 m 25
 128 128 l 25
 256 128 l 25
 256 0 l 25
 128 0 l 25
256 0 m 25
 256 128 l 25
 384 128 l 25
 384 0 l 25
 256 0 l 25
384 0 m 25
 384 128 l 25
 512 128 l 25
 512 0 l 25
 384 0 l 25
EndSplineSet
EndChar

StartChar: u0x33
Encoding: 51 51 20
Width: 640
Flags: W
LayerCount: 2
Fore
SplineSet
128 768 m 25
 128 896 l 25
 256 896 l 25
 256 768 l 25
 128 768 l 25
256 768 m 25
 256 896 l 25
 384 896 l 25
 384 768 l 25
 256 768 l 25
0 640 m 25
 0 768 l 25
 128 768 l 25
 128 640 l 25
 0 640 l 25
384 640 m 25
 384 768 l 25
 512 768 l 25
 512 640 l 25
 384 640 l 25
384 512 m 25
 384 640 l 25
 512 640 l 25
 512 512 l 25
 384 512 l 25
256 384 m 25
 256 512 l 25
 384 512 l 25
 384 384 l 25
 256 384 l 25
384 256 m 25
 384 384 l 25
 512 384 l 25
 512 256 l 25
 384 256 l 25
0 128 m 25
 0 256 l 25
 128 256 l 25
 128 128 l 25
 0 128 l 25
384 128 m 25
 384 256 l 25
 512 256 l 25
 512 128 l 25
 384 128 l 25
128 0 m 25
 128 128 l 25
 256 128 l 25
 256 0 l 25
 128 0 l 25
256 0 m 25
 256 128 l 25
 384 128 l 25
 384 0 l 25
 256 0 l 25
EndSplineSet
EndChar

StartChar: u0x34
Encoding: 52 52 21
Width: 768
Flags: W
LayerCount: 2
Fore
SplineSet
256 768 m 25
 256 896 l 25
 384 896 l 25
 384 768 l 25
 256 768 l 25
384 768 m 25
 384 896 l 25
 512 896 l 25
 512 768 l 25
 384 768 l 25
128 640 m 25
 128 768 l 25
 256 768 l 25
 256 640 l 25
 128 640 l 25
384 640 m 25
 384 768 l 25
 512 768 l 25
 512 640 l 25
 384 640 l 25
128 512 m 25
 128 640 l 25
 256 640 l 25
 256 512 l 25
 128 512 l 25
384 512 m 25
 384 640 l 25
 512 640 l 25
 512 512 l 25
 384 512 l 25
0 384 m 25
 0 512 l 25
 128 512 l 25
 128 384 l 25
 0 384 l 25
384 384 m 25
 384 512 l 25
 512 512 l 25
 512 384 l 25
 384 384 l 25
0 256 m 25
 0 384 l 25
 128 384 l 25
 128 256 l 25
 0 256 l 25
128 256 m 25
 128 384 l 25
 256 384 l 25
 256 256 l 25
 128 256 l 25
256 256 m 25
 256 384 l 25
 384 384 l 25
 384 256 l 25
 256 256 l 25
384 256 m 25
 384 384 l 25
 512 384 l 25
 512 256 l 25
 384 256 l 25
512 256 m 25
 512 384 l 25
 640 384 l 25
 640 256 l 25
 512 256 l 25
384 128 m 25
 384 256 l 25
 512 256 l 25
 512 128 l 25
 384 128 l 25
384 0 m 25
 384 128 l 25
 512 128 l 25
 512 0 l 25
 384 0 l 25
EndSplineSet
EndChar

StartChar: u0x35
Encoding: 53 53 22
Width: 640
Flags: W
LayerCount: 2
Fore
SplineSet
0 768 m 25
 0 896 l 25
 128 896 l 25
 128 768 l 25
 0 768 l 25
128 768 m 25
 128 896 l 25
 256 896 l 25
 256 768 l 25
 128 768 l 25
256 768 m 25
 256 896 l 25
 384 896 l 25
 384 768 l 25
 256 768 l 25
384 768 m 25
 384 896 l 25
 512 896 l 25
 512 768 l 25
 384 768 l 25
0 640 m 25
 0 768 l 25
 128 768 l 25
 128 640 l 25
 0 640 l 25
0 512 m 25
 0 640 l 25
 128 640 l 25
 128 512 l 25
 0 512 l 25
0 384 m 25
 0 512 l 25
 128 512 l 25
 128 384 l 25
 0 384 l 25
128 384 m 25
 128 512 l 25
 256 512 l 25
 256 384 l 25
 128 384 l 25
256 384 m 25
 256 512 l 25
 384 512 l 25
 384 384 l 25
 256 384 l 25
384 256 m 25
 384 384 l 25
 512 384 l 25
 512 256 l 25
 384 256 l 25
384 128 m 25
 384 256 l 25
 512 256 l 25
 512 128 l 25
 384 128 l 25
0 0 m 25
 0 128 l 25
 128 128 l 25
 128 0 l 25
 0 0 l 25
128 0 m 25
 128 128 l 25
 256 128 l 25
 256 0 l 25
 128 0 l 25
256 0 m 25
 256 128 l 25
 384 128 l 25
 384 0 l 25
 256 0 l 25
EndSplineSet
EndChar

StartChar: u0x36
Encoding: 54 54 23
Width: 640
Flags: W
LayerCount: 2
Fore
SplineSet
128 768 m 25
 128 896 l 25
 256 896 l 25
 256 768 l 25
 128 768 l 25
256 768 m 25
 256 896 l 25
 384 896 l 25
 384 768 l 25
 256 768 l 25
0 640 m 25
 0 768 l 25
 128 768 l 25
 128 640 l 25
 0 640 l 25
0 512 m 25
 0 640 l 25
 128 640 l 25
 128 512 l 25
 0 512 l 25
0 384 m 25
 0 512 l 25
 128 512 l 25
 128 384 l 25
 0 384 l 25
128 384 m 25
 128 512 l 25
 256 512 l 25
 256 384 l 25
 128 384 l 25
256 384 m 25
 256 512 l 25
 384 512 l 25
 384 384 l 25
 256 384 l 25
0 256 m 25
 0 384 l 25
 128 384 l 25
 128 256 l 25
 0 256 l 25
384 256 m 25
 384 384 l 25
 512 384 l 25
 512 256 l 25
 384 256 l 25
0 128 m 25
 0 256 l 25
 128 256 l 25
 128 128 l 25
 0 128 l 25
384 128 m 25
 384 256 l 25
 512 256 l 25
 512 128 l 25
 384 128 l 25
128 0 m 25
 128 128 l 25
 256 128 l 25
 256 0 l 25
 128 0 l 25
256 0 m 25
 256 128 l 25
 384 128 l 25
 384 0 l 25
 256 0 l 25
EndSplineSet
EndChar

StartChar: u0x37
Encoding: 55 55 24
Width: 640
Flags: W
LayerCount: 2
Fore
SplineSet
0 768 m 25
 0 896 l 25
 128 896 l 25
 128 768 l 25
 0 768 l 25
128 768 m 25
 128 896 l 25
 256 896 l 25
 256 768 l 25
 128 768 l 25
256 768 m 25
 256 896 l 25
 384 896 l 25
 384 768 l 25
 256 768 l 25
384 768 m 25
 384 896 l 25
 512 896 l 25
 512 768 l 25
 384 768 l 25
384 640 m 25
 384 768 l 25
 512 768 l 25
 512 640 l 25
 384 640 l 25
256 512 m 25
 256 640 l 25
 384 640 l 25
 384 512 l 25
 256 512 l 25
256 384 m 25
 256 512 l 25
 384 512 l 25
 384 384 l 25
 256 384 l 25
128 256 m 25
 128 384 l 25
 256 384 l 25
 256 256 l 25
 128 256 l 25
128 128 m 25
 128 256 l 25
 256 256 l 25
 256 128 l 25
 128 128 l 25
128 0 m 25
 128 128 l 25
 256 128 l 25
 256 0 l 25
 128 0 l 25
EndSplineSet
EndChar

StartChar: u0x38
Encoding: 56 56 25
Width: 640
Flags: W
LayerCount: 2
Fore
SplineSet
128 768 m 25
 128 896 l 25
 256 896 l 25
 256 768 l 25
 128 768 l 25
256 768 m 25
 256 896 l 25
 384 896 l 25
 384 768 l 25
 256 768 l 25
0 640 m 25
 0 768 l 25
 128 768 l 25
 128 640 l 25
 0 640 l 25
384 640 m 25
 384 768 l 25
 512 768 l 25
 512 640 l 25
 384 640 l 25
0 512 m 25
 0 640 l 25
 128 640 l 25
 128 512 l 25
 0 512 l 25
384 512 m 25
 384 640 l 25
 512 640 l 25
 512 512 l 25
 384 512 l 25
128 384 m 25
 128 512 l 25
 256 512 l 25
 256 384 l 25
 128 384 l 25
256 384 m 25
 256 512 l 25
 384 512 l 25
 384 384 l 25
 256 384 l 25
0 256 m 25
 0 384 l 25
 128 384 l 25
 128 256 l 25
 0 256 l 25
384 256 m 25
 384 384 l 25
 512 384 l 25
 512 256 l 25
 384 256 l 25
0 128 m 25
 0 256 l 25
 128 256 l 25
 128 128 l 25
 0 128 l 25
384 128 m 25
 384 256 l 25
 512 256 l 25
 512 128 l 25
 384 128 l 25
128 0 m 25
 128 128 l 25
 256 128 l 25
 256 0 l 25
 128 0 l 25
256 0 m 25
 256 128 l 25
 384 128 l 25
 384 0 l 25
 256 0 l 25
EndSplineSet
EndChar

StartChar: u0x39
Encoding: 57 57 26
Width: 640
Flags: W
LayerCount: 2
Fore
SplineSet
128 768 m 25
 128 896 l 25
 256 896 l 25
 256 768 l 25
 128 768 l 25
256 768 m 25
 256 896 l 25
 384 896 l 25
 384 768 l 25
 256 768 l 25
0 640 m 25
 0 768 l 25
 128 768 l 25
 128 640 l 25
 0 640 l 25
384 640 m 25
 384 768 l 25
 512 768 l 25
 512 640 l 25
 384 640 l 25
0 512 m 25
 0 640 l 25
 128 640 l 25
 128 512 l 25
 0 512 l 25
384 512 m 25
 384 640 l 25
 512 640 l 25
 512 512 l 25
 384 512 l 25
128 384 m 25
 128 512 l 25
 256 512 l 25
 256 384 l 25
 128 384 l 25
256 384 m 25
 256 512 l 25
 384 512 l 25
 384 384 l 25
 256 384 l 25
384 384 m 25
 384 512 l 25
 512 512 l 25
 512 384 l 25
 384 384 l 25
384 256 m 25
 384 384 l 25
 512 384 l 25
 512 256 l 25
 384 256 l 25
384 128 m 25
 384 256 l 25
 512 256 l 25
 512 128 l 25
 384 128 l 25
128 0 m 25
 128 128 l 25
 256 128 l 25
 256 0 l 25
 128 0 l 25
256 0 m 25
 256 128 l 25
 384 128 l 25
 384 0 l 25
 256 0 l 25
EndSplineSet
EndChar

StartChar: u0x3a
Encoding: 58 58 27
Width: 256
Flags: W
LayerCount: 2
Fore
SplineSet
0 512 m 25
 0 640 l 25
 128 640 l 25
 128 512 l 25
 0 512 l 25
0 0 m 25
 0 128 l 25
 128 128 l 25
 128 0 l 25
 0 0 l 25
EndSplineSet
EndChar

StartChar: u0x3b
Encoding: 59 59 28
Width: 384
Flags: W
LayerCount: 2
Fore
SplineSet
128 512 m 25
 128 640 l 25
 256 640 l 25
 256 512 l 25
 128 512 l 25
128 0 m 25
 128 128 l 25
 256 128 l 25
 256 0 l 25
 128 0 l 25
128 -128 m 25
 128 0 l 25
 256 0 l 25
 256 -128 l 25
 128 -128 l 25
0 -256 m 25
 0 -128 l 25
 128 -128 l 25
 128 -256 l 25
 0 -256 l 25
EndSplineSet
EndChar

StartChar: u0x3c
Encoding: 60 60 29
Width: 512
Flags: W
LayerCount: 2
Fore
SplineSet
256 512 m 25
 256 640 l 25
 384 640 l 25
 384 512 l 25
 256 512 l 25
128 384 m 25
 128 512 l 25
 256 512 l 25
 256 384 l 25
 128 384 l 25
0 256 m 25
 0 384 l 25
 128 384 l 25
 128 256 l 25
 0 256 l 25
128 128 m 25
 128 256 l 25
 256 256 l 25
 256 128 l 25
 128 128 l 25
256 0 m 25
 256 128 l 25
 384 128 l 25
 384 0 l 25
 256 0 l 25
EndSplineSet
EndChar

StartChar: u0x3d
Encoding: 61 61 30
Width: 640
Flags: W
LayerCount: 2
Fore
SplineSet
0 384 m 25
 0 512 l 25
 128 512 l 25
 128 384 l 25
 0 384 l 25
128 384 m 25
 128 512 l 25
 256 512 l 25
 256 384 l 25
 128 384 l 25
256 384 m 25
 256 512 l 25
 384 512 l 25
 384 384 l 25
 256 384 l 25
384 384 m 25
 384 512 l 25
 512 512 l 25
 512 384 l 25
 384 384 l 25
0 128 m 25
 0 256 l 25
 128 256 l 25
 128 128 l 25
 0 128 l 25
128 128 m 25
 128 256 l 25
 256 256 l 25
 256 128 l 25
 128 128 l 25
256 128 m 25
 256 256 l 25
 384 256 l 25
 384 128 l 25
 256 128 l 25
384 128 m 25
 384 256 l 25
 512 256 l 25
 512 128 l 25
 384 128 l 25
EndSplineSet
EndChar

StartChar: u0x3e
Encoding: 62 62 31
Width: 512
Flags: W
LayerCount: 2
Fore
SplineSet
0 512 m 25
 0 640 l 25
 128 640 l 25
 128 512 l 25
 0 512 l 25
128 384 m 25
 128 512 l 25
 256 512 l 25
 256 384 l 25
 128 384 l 25
256 256 m 25
 256 384 l 25
 384 384 l 25
 384 256 l 25
 256 256 l 25
128 128 m 25
 128 256 l 25
 256 256 l 25
 256 128 l 25
 128 128 l 25
0 0 m 25
 0 128 l 25
 128 128 l 25
 128 0 l 25
 0 0 l 25
EndSplineSet
EndChar

StartChar: u0x3f
Encoding: 63 63 32
Width: 768
Flags: W
LayerCount: 2
Fore
SplineSet
128 768 m 25
 128 896 l 25
 256 896 l 25
 256 768 l 25
 128 768 l 25
256 768 m 25
 256 896 l 25
 384 896 l 25
 384 768 l 25
 256 768 l 25
384 768 m 25
 384 896 l 25
 512 896 l 25
 512 768 l 25
 384 768 l 25
0 640 m 25
 0 768 l 25
 128 768 l 25
 128 640 l 25
 0 640 l 25
512 640 m 25
 512 768 l 25
 640 768 l 25
 640 640 l 25
 512 640 l 25
512 512 m 25
 512 640 l 25
 640 640 l 25
 640 512 l 25
 512 512 l 25
384 384 m 25
 384 512 l 25
 512 512 l 25
 512 384 l 25
 384 384 l 25
256 256 m 25
 256 384 l 25
 384 384 l 25
 384 256 l 25
 256 256 l 25
256 0 m 25
 256 128 l 25
 384 128 l 25
 384 0 l 25
 256 0 l 25
EndSplineSet
EndChar

StartChar: u0x40
Encoding: 64 64 33
Width: 1152
Flags: W
LayerCount: 2
Fore
SplineSet
256 768 m 25
 256 896 l 25
 384 896 l 25
 384 768 l 25
 256 768 l 25
384 768 m 25
 384 896 l 25
 512 896 l 25
 512 768 l 25
 384 768 l 25
512 768 m 25
 512 896 l 25
 640 896 l 25
 640 768 l 25
 512 768 l 25
640 768 m 25
 640 896 l 25
 768 896 l 25
 768 768 l 25
 640 768 l 25
128 640 m 25
 128 768 l 25
 256 768 l 25
 256 640 l 25
 128 640 l 25
768 640 m 25
 768 768 l 25
 896 768 l 25
 896 640 l 25
 768 640 l 25
0 512 m 25
 0 640 l 25
 128 640 l 25
 128 512 l 25
 0 512 l 25
384 512 m 25
 384 640 l 25
 512 640 l 25
 512 512 l 25
 384 512 l 25
512 512 m 25
 512 640 l 25
 640 640 l 25
 640 512 l 25
 512 512 l 25
896 512 m 25
 896 640 l 25
 1024 640 l 25
 1024 512 l 25
 896 512 l 25
0 384 m 25
 0 512 l 25
 128 512 l 25
 128 384 l 25
 0 384 l 25
256 384 m 25
 256 512 l 25
 384 512 l 25
 384 384 l 25
 256 384 l 25
640 384 m 25
 640 512 l 25
 768 512 l 25
 768 384 l 25
 640 384 l 25
896 384 m 25
 896 512 l 25
 1024 512 l 25
 1024 384 l 25
 896 384 l 25
0 256 m 25
 0 384 l 25
 128 384 l 25
 128 256 l 25
 0 256 l 25
256 256 m 25
 256 384 l 25
 384 384 l 25
 384 256 l 25
 256 256 l 25
640 256 m 25
 640 384 l 25
 768 384 l 25
 768 256 l 25
 640 256 l 25
896 256 m 25
 896 384 l 25
 1024 384 l 25
 1024 256 l 25
 896 256 l 25
0 128 m 25
 0 256 l 25
 128 256 l 25
 128 128 l 25
 0 128 l 25
256 128 m 25
 256 256 l 25
 384 256 l 25
 384 128 l 25
 256 128 l 25
640 128 m 25
 640 256 l 25
 768 256 l 25
 768 128 l 25
 640 128 l 25
896 128 m 25
 896 256 l 25
 1024 256 l 25
 1024 128 l 25
 896 128 l 25
0 0 m 25
 0 128 l 25
 128 128 l 25
 128 0 l 25
 0 0 l 25
384 0 m 25
 384 128 l 25
 512 128 l 25
 512 0 l 25
 384 0 l 25
512 0 m 25
 512 128 l 25
 640 128 l 25
 640 0 l 25
 512 0 l 25
640 0 m 25
 640 128 l 25
 768 128 l 25
 768 0 l 25
 640 0 l 25
768 0 m 25
 768 128 l 25
 896 128 l 25
 896 0 l 25
 768 0 l 25
896 0 m 25
 896 128 l 25
 1024 128 l 25
 1024 0 l 25
 896 0 l 25
128 -128 m 25
 128 0 l 25
 256 0 l 25
 256 -128 l 25
 128 -128 l 25
256 -256 m 25
 256 -128 l 25
 384 -128 l 25
 384 -256 l 25
 256 -256 l 25
384 -256 m 25
 384 -128 l 25
 512 -128 l 25
 512 -256 l 25
 384 -256 l 25
512 -256 m 25
 512 -128 l 25
 640 -128 l 25
 640 -256 l 25
 512 -256 l 25
640 -256 m 25
 640 -128 l 25
 768 -128 l 25
 768 -256 l 25
 640 -256 l 25
768 -256 m 25
 768 -128 l 25
 896 -128 l 25
 896 -256 l 25
 768 -256 l 25
EndSplineSet
EndChar

StartChar: u0x41
Encoding: 65 65 34
Width: 768
Flags: W
LayerCount: 2
Fore
SplineSet
256 768 m 25
 256 896 l 25
 384 896 l 25
 384 768 l 25
 256 768 l 25
128 640 m 25
 128 768 l 25
 256 768 l 25
 256 640 l 25
 128 640 l 25
384 640 m 25
 384 768 l 25
 512 768 l 25
 512 640 l 25
 384 640 l 25
128 512 m 25
 128 640 l 25
 256 640 l 25
 256 512 l 25
 128 512 l 25
384 512 m 25
 384 640 l 25
 512 640 l 25
 512 512 l 25
 384 512 l 25
0 384 m 25
 0 512 l 25
 128 512 l 25
 128 384 l 25
 0 384 l 25
512 384 m 25
 512 512 l 25
 640 512 l 25
 640 384 l 25
 512 384 l 25
0 256 m 25
 0 384 l 25
 128 384 l 25
 128 256 l 25
 0 256 l 25
128 256 m 25
 128 384 l 25
 256 384 l 25
 256 256 l 25
 128 256 l 25
256 256 m 25
 256 384 l 25
 384 384 l 25
 384 256 l 25
 256 256 l 25
384 256 m 25
 384 384 l 25
 512 384 l 25
 512 256 l 25
 384 256 l 25
512 256 m 25
 512 384 l 25
 640 384 l 25
 640 256 l 25
 512 256 l 25
0 128 m 25
 0 256 l 25
 128 256 l 25
 128 128 l 25
 0 128 l 25
512 128 m 25
 512 256 l 25
 640 256 l 25
 640 128 l 25
 512 128 l 25
0 0 m 25
 0 128 l 25
 128 128 l 25
 128 0 l 25
 0 0 l 25
512 0 m 25
 512 128 l 25
 640 128 l 25
 640 0 l 25
 512 0 l 25
EndSplineSet
EndChar

StartChar: u0x42
Encoding: 66 66 35
Width: 640
Flags: W
LayerCount: 2
Fore
SplineSet
0 768 m 25
 0 896 l 25
 128 896 l 25
 128 768 l 25
 0 768 l 25
128 768 m 25
 128 896 l 25
 256 896 l 25
 256 768 l 25
 128 768 l 25
256 768 m 25
 256 896 l 25
 384 896 l 25
 384 768 l 25
 256 768 l 25
0 640 m 25
 0 768 l 25
 128 768 l 25
 128 640 l 25
 0 640 l 25
384 640 m 25
 384 768 l 25
 512 768 l 25
 512 640 l 25
 384 640 l 25
0 512 m 25
 0 640 l 25
 128 640 l 25
 128 512 l 25
 0 512 l 25
384 512 m 25
 384 640 l 25
 512 640 l 25
 512 512 l 25
 384 512 l 25
0 384 m 25
 0 512 l 25
 128 512 l 25
 128 384 l 25
 0 384 l 25
128 384 m 25
 128 512 l 25
 256 512 l 25
 256 384 l 25
 128 384 l 25
256 384 m 25
 256 512 l 25
 384 512 l 25
 384 384 l 25
 256 384 l 25
0 256 m 25
 0 384 l 25
 128 384 l 25
 128 256 l 25
 0 256 l 25
384 256 m 25
 384 384 l 25
 512 384 l 25
 512 256 l 25
 384 256 l 25
0 128 m 25
 0 256 l 25
 128 256 l 25
 128 128 l 25
 0 128 l 25
384 128 m 25
 384 256 l 25
 512 256 l 25
 512 128 l 25
 384 128 l 25
0 0 m 25
 0 128 l 25
 128 128 l 25
 128 0 l 25
 0 0 l 25
128 0 m 25
 128 128 l 25
 256 128 l 25
 256 0 l 25
 128 0 l 25
256 0 m 25
 256 128 l 25
 384 128 l 25
 384 0 l 25
 256 0 l 25
EndSplineSet
EndChar

StartChar: u0x43
Encoding: 67 67 36
Width: 640
Flags: W
LayerCount: 2
Fore
SplineSet
128 768 m 25
 128 896 l 25
 256 896 l 25
 256 768 l 25
 128 768 l 25
256 768 m 25
 256 896 l 25
 384 896 l 25
 384 768 l 25
 256 768 l 25
384 768 m 25
 384 896 l 25
 512 896 l 25
 512 768 l 25
 384 768 l 25
0 640 m 25
 0 768 l 25
 128 768 l 25
 128 640 l 25
 0 640 l 25
0 512 m 25
 0 640 l 25
 128 640 l 25
 128 512 l 25
 0 512 l 25
0 384 m 25
 0 512 l 25
 128 512 l 25
 128 384 l 25
 0 384 l 25
0 256 m 25
 0 384 l 25
 128 384 l 25
 128 256 l 25
 0 256 l 25
0 128 m 25
 0 256 l 25
 128 256 l 25
 128 128 l 25
 0 128 l 25
128 0 m 25
 128 128 l 25
 256 128 l 25
 256 0 l 25
 128 0 l 25
256 0 m 25
 256 128 l 25
 384 128 l 25
 384 0 l 25
 256 0 l 25
384 0 m 25
 384 128 l 25
 512 128 l 25
 512 0 l 25
 384 0 l 25
EndSplineSet
EndChar

StartChar: u0x44
Encoding: 68 68 37
Width: 768
Flags: W
LayerCount: 2
Fore
SplineSet
0 768 m 25
 0 896 l 25
 128 896 l 25
 128 768 l 25
 0 768 l 25
128 768 m 25
 128 896 l 25
 256 896 l 25
 256 768 l 25
 128 768 l 25
256 768 m 25
 256 896 l 25
 384 896 l 25
 384 768 l 25
 256 768 l 25
384 768 m 25
 384 896 l 25
 512 896 l 25
 512 768 l 25
 384 768 l 25
0 640 m 25
 0 768 l 25
 128 768 l 25
 128 640 l 25
 0 640 l 25
512 640 m 25
 512 768 l 25
 640 768 l 25
 640 640 l 25
 512 640 l 25
0 512 m 25
 0 640 l 25
 128 640 l 25
 128 512 l 25
 0 512 l 25
512 512 m 25
 512 640 l 25
 640 640 l 25
 640 512 l 25
 512 512 l 25
0 384 m 25
 0 512 l 25
 128 512 l 25
 128 384 l 25
 0 384 l 25
512 384 m 25
 512 512 l 25
 640 512 l 25
 640 384 l 25
 512 384 l 25
0 256 m 25
 0 384 l 25
 128 384 l 25
 128 256 l 25
 0 256 l 25
512 256 m 25
 512 384 l 25
 640 384 l 25
 640 256 l 25
 512 256 l 25
0 128 m 25
 0 256 l 25
 128 256 l 25
 128 128 l 25
 0 128 l 25
512 128 m 25
 512 256 l 25
 640 256 l 25
 640 128 l 25
 512 128 l 25
0 0 m 25
 0 128 l 25
 128 128 l 25
 128 0 l 25
 0 0 l 25
128 0 m 25
 128 128 l 25
 256 128 l 25
 256 0 l 25
 128 0 l 25
256 0 m 25
 256 128 l 25
 384 128 l 25
 384 0 l 25
 256 0 l 25
384 0 m 25
 384 128 l 25
 512 128 l 25
 512 0 l 25
 384 0 l 25
EndSplineSet
EndChar

StartChar: u0x45
Encoding: 69 69 38
Width: 640
Flags: W
LayerCount: 2
Fore
SplineSet
0 768 m 25
 0 896 l 25
 128 896 l 25
 128 768 l 25
 0 768 l 25
128 768 m 25
 128 896 l 25
 256 896 l 25
 256 768 l 25
 128 768 l 25
256 768 m 25
 256 896 l 25
 384 896 l 25
 384 768 l 25
 256 768 l 25
384 768 m 25
 384 896 l 25
 512 896 l 25
 512 768 l 25
 384 768 l 25
0 640 m 25
 0 768 l 25
 128 768 l 25
 128 640 l 25
 0 640 l 25
0 512 m 25
 0 640 l 25
 128 640 l 25
 128 512 l 25
 0 512 l 25
0 384 m 25
 0 512 l 25
 128 512 l 25
 128 384 l 25
 0 384 l 25
128 384 m 25
 128 512 l 25
 256 512 l 25
 256 384 l 25
 128 384 l 25
256 384 m 25
 256 512 l 25
 384 512 l 25
 384 384 l 25
 256 384 l 25
0 256 m 25
 0 384 l 25
 128 384 l 25
 128 256 l 25
 0 256 l 25
0 128 m 25
 0 256 l 25
 128 256 l 25
 128 128 l 25
 0 128 l 25
0 0 m 25
 0 128 l 25
 128 128 l 25
 128 0 l 25
 0 0 l 25
128 0 m 25
 128 128 l 25
 256 128 l 25
 256 0 l 25
 128 0 l 25
256 0 m 25
 256 128 l 25
 384 128 l 25
 384 0 l 25
 256 0 l 25
384 0 m 25
 384 128 l 25
 512 128 l 25
 512 0 l 25
 384 0 l 25
EndSplineSet
EndChar

StartChar: u0x46
Encoding: 70 70 39
Width: 640
Flags: W
LayerCount: 2
Fore
SplineSet
0 768 m 25
 0 896 l 25
 128 896 l 25
 128 768 l 25
 0 768 l 25
128 768 m 25
 128 896 l 25
 256 896 l 25
 256 768 l 25
 128 768 l 25
256 768 m 25
 256 896 l 25
 384 896 l 25
 384 768 l 25
 256 768 l 25
384 768 m 25
 384 896 l 25
 512 896 l 25
 512 768 l 25
 384 768 l 25
0 640 m 25
 0 768 l 25
 128 768 l 25
 128 640 l 25
 0 640 l 25
0 512 m 25
 0 640 l 25
 128 640 l 25
 128 512 l 25
 0 512 l 25
0 384 m 25
 0 512 l 25
 128 512 l 25
 128 384 l 25
 0 384 l 25
128 384 m 25
 128 512 l 25
 256 512 l 25
 256 384 l 25
 128 384 l 25
256 384 m 25
 256 512 l 25
 384 512 l 25
 384 384 l 25
 256 384 l 25
0 256 m 25
 0 384 l 25
 128 384 l 25
 128 256 l 25
 0 256 l 25
0 128 m 25
 0 256 l 25
 128 256 l 25
 128 128 l 25
 0 128 l 25
0 0 m 25
 0 128 l 25
 128 128 l 25
 128 0 l 25
 0 0 l 25
EndSplineSet
EndChar

StartChar: u0x47
Encoding: 71 71 40
Width: 768
Flags: W
LayerCount: 2
Fore
SplineSet
128 768 m 25
 128 896 l 25
 256 896 l 25
 256 768 l 25
 128 768 l 25
256 768 m 25
 256 896 l 25
 384 896 l 25
 384 768 l 25
 256 768 l 25
384 768 m 25
 384 896 l 25
 512 896 l 25
 512 768 l 25
 384 768 l 25
512 768 m 25
 512 896 l 25
 640 896 l 25
 640 768 l 25
 512 768 l 25
0 640 m 25
 0 768 l 25
 128 768 l 25
 128 640 l 25
 0 640 l 25
0 512 m 25
 0 640 l 25
 128 640 l 25
 128 512 l 25
 0 512 l 25
0 384 m 25
 0 512 l 25
 128 512 l 25
 128 384 l 25
 0 384 l 25
256 384 m 25
 256 512 l 25
 384 512 l 25
 384 384 l 25
 256 384 l 25
384 384 m 25
 384 512 l 25
 512 512 l 25
 512 384 l 25
 384 384 l 25
512 384 m 25
 512 512 l 25
 640 512 l 25
 640 384 l 25
 512 384 l 25
0 256 m 25
 0 384 l 25
 128 384 l 25
 128 256 l 25
 0 256 l 25
512 256 m 25
 512 384 l 25
 640 384 l 25
 640 256 l 25
 512 256 l 25
0 128 m 25
 0 256 l 25
 128 256 l 25
 128 128 l 25
 0 128 l 25
512 128 m 25
 512 256 l 25
 640 256 l 25
 640 128 l 25
 512 128 l 25
128 0 m 25
 128 128 l 25
 256 128 l 25
 256 0 l 25
 128 0 l 25
256 0 m 25
 256 128 l 25
 384 128 l 25
 384 0 l 25
 256 0 l 25
384 0 m 25
 384 128 l 25
 512 128 l 25
 512 0 l 25
 384 0 l 25
EndSplineSet
EndChar

StartChar: u0x48
Encoding: 72 72 41
Width: 768
Flags: W
LayerCount: 2
Fore
SplineSet
0 768 m 25
 0 896 l 25
 128 896 l 25
 128 768 l 25
 0 768 l 25
512 768 m 25
 512 896 l 25
 640 896 l 25
 640 768 l 25
 512 768 l 25
0 640 m 25
 0 768 l 25
 128 768 l 25
 128 640 l 25
 0 640 l 25
512 640 m 25
 512 768 l 25
 640 768 l 25
 640 640 l 25
 512 640 l 25
0 512 m 25
 0 640 l 25
 128 640 l 25
 128 512 l 25
 0 512 l 25
512 512 m 25
 512 640 l 25
 640 640 l 25
 640 512 l 25
 512 512 l 25
0 384 m 25
 0 512 l 25
 128 512 l 25
 128 384 l 25
 0 384 l 25
128 384 m 25
 128 512 l 25
 256 512 l 25
 256 384 l 25
 128 384 l 25
256 384 m 25
 256 512 l 25
 384 512 l 25
 384 384 l 25
 256 384 l 25
384 384 m 25
 384 512 l 25
 512 512 l 25
 512 384 l 25
 384 384 l 25
512 384 m 25
 512 512 l 25
 640 512 l 25
 640 384 l 25
 512 384 l 25
0 256 m 25
 0 384 l 25
 128 384 l 25
 128 256 l 25
 0 256 l 25
512 256 m 25
 512 384 l 25
 640 384 l 25
 640 256 l 25
 512 256 l 25
0 128 m 25
 0 256 l 25
 128 256 l 25
 128 128 l 25
 0 128 l 25
512 128 m 25
 512 256 l 25
 640 256 l 25
 640 128 l 25
 512 128 l 25
0 0 m 25
 0 128 l 25
 128 128 l 25
 128 0 l 25
 0 0 l 25
512 0 m 25
 512 128 l 25
 640 128 l 25
 640 0 l 25
 512 0 l 25
EndSplineSet
EndChar

StartChar: u0x49
Encoding: 73 73 42
Width: 512
Flags: W
LayerCount: 2
Fore
SplineSet
0 768 m 25
 0 896 l 25
 128 896 l 25
 128 768 l 25
 0 768 l 25
128 768 m 25
 128 896 l 25
 256 896 l 25
 256 768 l 25
 128 768 l 25
256 768 m 25
 256 896 l 25
 384 896 l 25
 384 768 l 25
 256 768 l 25
128 640 m 25
 128 768 l 25
 256 768 l 25
 256 640 l 25
 128 640 l 25
128 512 m 25
 128 640 l 25
 256 640 l 25
 256 512 l 25
 128 512 l 25
128 384 m 25
 128 512 l 25
 256 512 l 25
 256 384 l 25
 128 384 l 25
128 256 m 25
 128 384 l 25
 256 384 l 25
 256 256 l 25
 128 256 l 25
128 128 m 25
 128 256 l 25
 256 256 l 25
 256 128 l 25
 128 128 l 25
0 0 m 25
 0 128 l 25
 128 128 l 25
 128 0 l 25
 0 0 l 25
128 0 m 25
 128 128 l 25
 256 128 l 25
 256 0 l 25
 128 0 l 25
256 0 m 25
 256 128 l 25
 384 128 l 25
 384 0 l 25
 256 0 l 25
EndSplineSet
EndChar

StartChar: u0x4a
Encoding: 74 74 43
Width: 640
Flags: W
LayerCount: 2
Fore
SplineSet
384 768 m 25
 384 896 l 25
 512 896 l 25
 512 768 l 25
 384 768 l 25
384 640 m 25
 384 768 l 25
 512 768 l 25
 512 640 l 25
 384 640 l 25
384 512 m 25
 384 640 l 25
 512 640 l 25
 512 512 l 25
 384 512 l 25
384 384 m 25
 384 512 l 25
 512 512 l 25
 512 384 l 25
 384 384 l 25
384 256 m 25
 384 384 l 25
 512 384 l 25
 512 256 l 25
 384 256 l 25
0 128 m 25
 0 256 l 25
 128 256 l 25
 128 128 l 25
 0 128 l 25
384 128 m 25
 384 256 l 25
 512 256 l 25
 512 128 l 25
 384 128 l 25
128 0 m 25
 128 128 l 25
 256 128 l 25
 256 0 l 25
 128 0 l 25
256 0 m 25
 256 128 l 25
 384 128 l 25
 384 0 l 25
 256 0 l 25
EndSplineSet
EndChar

StartChar: u0x4b
Encoding: 75 75 44
Width: 768
Flags: W
LayerCount: 2
Fore
SplineSet
0 768 m 25
 0 896 l 25
 128 896 l 25
 128 768 l 25
 0 768 l 25
512 768 m 25
 512 896 l 25
 640 896 l 25
 640 768 l 25
 512 768 l 25
0 640 m 25
 0 768 l 25
 128 768 l 25
 128 640 l 25
 0 640 l 25
384 640 m 25
 384 768 l 25
 512 768 l 25
 512 640 l 25
 384 640 l 25
0 512 m 25
 0 640 l 25
 128 640 l 25
 128 512 l 25
 0 512 l 25
256 512 m 25
 256 640 l 25
 384 640 l 25
 384 512 l 25
 256 512 l 25
0 384 m 25
 0 512 l 25
 128 512 l 25
 128 384 l 25
 0 384 l 25
128 384 m 25
 128 512 l 25
 256 512 l 25
 256 384 l 25
 128 384 l 25
0 256 m 25
 0 384 l 25
 128 384 l 25
 128 256 l 25
 0 256 l 25
256 256 m 25
 256 384 l 25
 384 384 l 25
 384 256 l 25
 256 256 l 25
0 128 m 25
 0 256 l 25
 128 256 l 25
 128 128 l 25
 0 128 l 25
384 128 m 25
 384 256 l 25
 512 256 l 25
 512 128 l 25
 384 128 l 25
0 0 m 25
 0 128 l 25
 128 128 l 25
 128 0 l 25
 0 0 l 25
512 0 m 25
 512 128 l 25
 640 128 l 25
 640 0 l 25
 512 0 l 25
EndSplineSet
EndChar

StartChar: u0x4c
Encoding: 76 76 45
Width: 640
Flags: W
LayerCount: 2
Fore
SplineSet
0 768 m 25
 0 896 l 25
 128 896 l 25
 128 768 l 25
 0 768 l 25
0 640 m 25
 0 768 l 25
 128 768 l 25
 128 640 l 25
 0 640 l 25
0 512 m 25
 0 640 l 25
 128 640 l 25
 128 512 l 25
 0 512 l 25
0 384 m 25
 0 512 l 25
 128 512 l 25
 128 384 l 25
 0 384 l 25
0 256 m 25
 0 384 l 25
 128 384 l 25
 128 256 l 25
 0 256 l 25
0 128 m 25
 0 256 l 25
 128 256 l 25
 128 128 l 25
 0 128 l 25
0 0 m 25
 0 128 l 25
 128 128 l 25
 128 0 l 25
 0 0 l 25
128 0 m 25
 128 128 l 25
 256 128 l 25
 256 0 l 25
 128 0 l 25
256 0 m 25
 256 128 l 25
 384 128 l 25
 384 0 l 25
 256 0 l 25
384 0 m 25
 384 128 l 25
 512 128 l 25
 512 0 l 25
 384 0 l 25
EndSplineSet
EndChar

StartChar: u0x4d
Encoding: 77 77 46
Width: 768
Flags: W
LayerCount: 2
Fore
SplineSet
0 768 m 25
 0 896 l 25
 128 896 l 25
 128 768 l 25
 0 768 l 25
512 768 m 25
 512 896 l 25
 640 896 l 25
 640 768 l 25
 512 768 l 25
0 640 m 25
 0 768 l 25
 128 768 l 25
 128 640 l 25
 0 640 l 25
128 640 m 25
 128 768 l 25
 256 768 l 25
 256 640 l 25
 128 640 l 25
384 640 m 25
 384 768 l 25
 512 768 l 25
 512 640 l 25
 384 640 l 25
512 640 m 25
 512 768 l 25
 640 768 l 25
 640 640 l 25
 512 640 l 25
0 512 m 25
 0 640 l 25
 128 640 l 25
 128 512 l 25
 0 512 l 25
256 512 m 25
 256 640 l 25
 384 640 l 25
 384 512 l 25
 256 512 l 25
512 512 m 25
 512 640 l 25
 640 640 l 25
 640 512 l 25
 512 512 l 25
0 384 m 25
 0 512 l 25
 128 512 l 25
 128 384 l 25
 0 384 l 25
512 384 m 25
 512 512 l 25
 640 512 l 25
 640 384 l 25
 512 384 l 25
0 256 m 25
 0 384 l 25
 128 384 l 25
 128 256 l 25
 0 256 l 25
512 256 m 25
 512 384 l 25
 640 384 l 25
 640 256 l 25
 512 256 l 25
0 128 m 25
 0 256 l 25
 128 256 l 25
 128 128 l 25
 0 128 l 25
512 128 m 25
 512 256 l 25
 640 256 l 25
 640 128 l 25
 512 128 l 25
0 0 m 25
 0 128 l 25
 128 128 l 25
 128 0 l 25
 0 0 l 25
512 0 m 25
 512 128 l 25
 640 128 l 25
 640 0 l 25
 512 0 l 25
EndSplineSet
EndChar

StartChar: u0x4e
Encoding: 78 78 47
Width: 768
Flags: W
LayerCount: 2
Fore
SplineSet
0 768 m 25
 0 896 l 25
 128 896 l 25
 128 768 l 25
 0 768 l 25
512 768 m 25
 512 896 l 25
 640 896 l 25
 640 768 l 25
 512 768 l 25
0 640 m 25
 0 768 l 25
 128 768 l 25
 128 640 l 25
 0 640 l 25
128 640 m 25
 128 768 l 25
 256 768 l 25
 256 640 l 25
 128 640 l 25
512 640 m 25
 512 768 l 25
 640 768 l 25
 640 640 l 25
 512 640 l 25
0 512 m 25
 0 640 l 25
 128 640 l 25
 128 512 l 25
 0 512 l 25
256 512 m 25
 256 640 l 25
 384 640 l 25
 384 512 l 25
 256 512 l 25
512 512 m 25
 512 640 l 25
 640 640 l 25
 640 512 l 25
 512 512 l 25
0 384 m 25
 0 512 l 25
 128 512 l 25
 128 384 l 25
 0 384 l 25
384 384 m 25
 384 512 l 25
 512 512 l 25
 512 384 l 25
 384 384 l 25
512 384 m 25
 512 512 l 25
 640 512 l 25
 640 384 l 25
 512 384 l 25
0 256 m 25
 0 384 l 25
 128 384 l 25
 128 256 l 25
 0 256 l 25
512 256 m 25
 512 384 l 25
 640 384 l 25
 640 256 l 25
 512 256 l 25
0 128 m 25
 0 256 l 25
 128 256 l 25
 128 128 l 25
 0 128 l 25
512 128 m 25
 512 256 l 25
 640 256 l 25
 640 128 l 25
 512 128 l 25
0 0 m 25
 0 128 l 25
 128 128 l 25
 128 0 l 25
 0 0 l 25
512 0 m 25
 512 128 l 25
 640 128 l 25
 640 0 l 25
 512 0 l 25
EndSplineSet
EndChar

StartChar: u0x4f
Encoding: 79 79 48
Width: 768
Flags: W
LayerCount: 2
Fore
SplineSet
128 768 m 25
 128 896 l 25
 256 896 l 25
 256 768 l 25
 128 768 l 25
256 768 m 25
 256 896 l 25
 384 896 l 25
 384 768 l 25
 256 768 l 25
384 768 m 25
 384 896 l 25
 512 896 l 25
 512 768 l 25
 384 768 l 25
0 640 m 25
 0 768 l 25
 128 768 l 25
 128 640 l 25
 0 640 l 25
512 640 m 25
 512 768 l 25
 640 768 l 25
 640 640 l 25
 512 640 l 25
0 512 m 25
 0 640 l 25
 128 640 l 25
 128 512 l 25
 0 512 l 25
512 512 m 25
 512 640 l 25
 640 640 l 25
 640 512 l 25
 512 512 l 25
0 384 m 25
 0 512 l 25
 128 512 l 25
 128 384 l 25
 0 384 l 25
512 384 m 25
 512 512 l 25
 640 512 l 25
 640 384 l 25
 512 384 l 25
0 256 m 25
 0 384 l 25
 128 384 l 25
 128 256 l 25
 0 256 l 25
512 256 m 25
 512 384 l 25
 640 384 l 25
 640 256 l 25
 512 256 l 25
0 128 m 25
 0 256 l 25
 128 256 l 25
 128 128 l 25
 0 128 l 25
512 128 m 25
 512 256 l 25
 640 256 l 25
 640 128 l 25
 512 128 l 25
128 0 m 25
 128 128 l 25
 256 128 l 25
 256 0 l 25
 128 0 l 25
256 0 m 25
 256 128 l 25
 384 128 l 25
 384 0 l 25
 256 0 l 25
384 0 m 25
 384 128 l 25
 512 128 l 25
 512 0 l 25
 384 0 l 25
EndSplineSet
EndChar

StartChar: u0x50
Encoding: 80 80 49
Width: 640
Flags: W
LayerCount: 2
Fore
SplineSet
0 768 m 25
 0 896 l 25
 128 896 l 25
 128 768 l 25
 0 768 l 25
128 768 m 25
 128 896 l 25
 256 896 l 25
 256 768 l 25
 128 768 l 25
256 768 m 25
 256 896 l 25
 384 896 l 25
 384 768 l 25
 256 768 l 25
0 640 m 25
 0 768 l 25
 128 768 l 25
 128 640 l 25
 0 640 l 25
384 640 m 25
 384 768 l 25
 512 768 l 25
 512 640 l 25
 384 640 l 25
0 512 m 25
 0 640 l 25
 128 640 l 25
 128 512 l 25
 0 512 l 25
384 512 m 25
 384 640 l 25
 512 640 l 25
 512 512 l 25
 384 512 l 25
0 384 m 25
 0 512 l 25
 128 512 l 25
 128 384 l 25
 0 384 l 25
128 384 m 25
 128 512 l 25
 256 512 l 25
 256 384 l 25
 128 384 l 25
256 384 m 25
 256 512 l 25
 384 512 l 25
 384 384 l 25
 256 384 l 25
0 256 m 25
 0 384 l 25
 128 384 l 25
 128 256 l 25
 0 256 l 25
0 128 m 25
 0 256 l 25
 128 256 l 25
 128 128 l 25
 0 128 l 25
0 0 m 25
 0 128 l 25
 128 128 l 25
 128 0 l 25
 0 0 l 25
EndSplineSet
EndChar

StartChar: u0x51
Encoding: 81 81 50
Width: 768
Flags: W
LayerCount: 2
Fore
SplineSet
128 768 m 25
 128 896 l 25
 256 896 l 25
 256 768 l 25
 128 768 l 25
256 768 m 25
 256 896 l 25
 384 896 l 25
 384 768 l 25
 256 768 l 25
384 768 m 25
 384 896 l 25
 512 896 l 25
 512 768 l 25
 384 768 l 25
0 640 m 25
 0 768 l 25
 128 768 l 25
 128 640 l 25
 0 640 l 25
512 640 m 25
 512 768 l 25
 640 768 l 25
 640 640 l 25
 512 640 l 25
0 512 m 25
 0 640 l 25
 128 640 l 25
 128 512 l 25
 0 512 l 25
512 512 m 25
 512 640 l 25
 640 640 l 25
 640 512 l 25
 512 512 l 25
0 384 m 25
 0 512 l 25
 128 512 l 25
 128 384 l 25
 0 384 l 25
512 384 m 25
 512 512 l 25
 640 512 l 25
 640 384 l 25
 512 384 l 25
0 256 m 25
 0 384 l 25
 128 384 l 25
 128 256 l 25
 0 256 l 25
512 256 m 25
 512 384 l 25
 640 384 l 25
 640 256 l 25
 512 256 l 25
0 128 m 25
 0 256 l 25
 128 256 l 25
 128 128 l 25
 0 128 l 25
512 128 m 25
 512 256 l 25
 640 256 l 25
 640 128 l 25
 512 128 l 25
128 0 m 25
 128 128 l 25
 256 128 l 25
 256 0 l 25
 128 0 l 25
256 0 m 25
 256 128 l 25
 384 128 l 25
 384 0 l 25
 256 0 l 25
384 0 m 25
 384 128 l 25
 512 128 l 25
 512 0 l 25
 384 0 l 25
384 -128 m 25
 384 0 l 25
 512 0 l 25
 512 -128 l 25
 384 -128 l 25
512 -256 m 25
 512 -128 l 25
 640 -128 l 25
 640 -256 l 25
 512 -256 l 25
EndSplineSet
EndChar

StartChar: u0x52
Encoding: 82 82 51
Width: 640
Flags: W
LayerCount: 2
Fore
SplineSet
0 768 m 25
 0 896 l 25
 128 896 l 25
 128 768 l 25
 0 768 l 25
128 768 m 25
 128 896 l 25
 256 896 l 25
 256 768 l 25
 128 768 l 25
256 768 m 25
 256 896 l 25
 384 896 l 25
 384 768 l 25
 256 768 l 25
0 640 m 25
 0 768 l 25
 128 768 l 25
 128 640 l 25
 0 640 l 25
384 640 m 25
 384 768 l 25
 512 768 l 25
 512 640 l 25
 384 640 l 25
0 512 m 25
 0 640 l 25
 128 640 l 25
 128 512 l 25
 0 512 l 25
384 512 m 25
 384 640 l 25
 512 640 l 25
 512 512 l 25
 384 512 l 25
0 384 m 25
 0 512 l 25
 128 512 l 25
 128 384 l 25
 0 384 l 25
128 384 m 25
 128 512 l 25
 256 512 l 25
 256 384 l 25
 128 384 l 25
256 384 m 25
 256 512 l 25
 384 512 l 25
 384 384 l 25
 256 384 l 25
0 256 m 25
 0 384 l 25
 128 384 l 25
 128 256 l 25
 0 256 l 25
384 256 m 25
 384 384 l 25
 512 384 l 25
 512 256 l 25
 384 256 l 25
0 128 m 25
 0 256 l 25
 128 256 l 25
 128 128 l 25
 0 128 l 25
384 128 m 25
 384 256 l 25
 512 256 l 25
 512 128 l 25
 384 128 l 25
0 0 m 25
 0 128 l 25
 128 128 l 25
 128 0 l 25
 0 0 l 25
384 0 m 25
 384 128 l 25
 512 128 l 25
 512 0 l 25
 384 0 l 25
EndSplineSet
EndChar

StartChar: u0x53
Encoding: 83 83 52
Width: 640
Flags: W
LayerCount: 2
Fore
SplineSet
128 768 m 25
 128 896 l 25
 256 896 l 25
 256 768 l 25
 128 768 l 25
256 768 m 25
 256 896 l 25
 384 896 l 25
 384 768 l 25
 256 768 l 25
384 768 m 25
 384 896 l 25
 512 896 l 25
 512 768 l 25
 384 768 l 25
0 640 m 25
 0 768 l 25
 128 768 l 25
 128 640 l 25
 0 640 l 25
0 512 m 25
 0 640 l 25
 128 640 l 25
 128 512 l 25
 0 512 l 25
128 384 m 25
 128 512 l 25
 256 512 l 25
 256 384 l 25
 128 384 l 25
256 384 m 25
 256 512 l 25
 384 512 l 25
 384 384 l 25
 256 384 l 25
384 256 m 25
 384 384 l 25
 512 384 l 25
 512 256 l 25
 384 256 l 25
384 128 m 25
 384 256 l 25
 512 256 l 25
 512 128 l 25
 384 128 l 25
0 0 m 25
 0 128 l 25
 128 128 l 25
 128 0 l 25
 0 0 l 25
128 0 m 25
 128 128 l 25
 256 128 l 25
 256 0 l 25
 128 0 l 25
256 0 m 25
 256 128 l 25
 384 128 l 25
 384 0 l 25
 256 0 l 25
EndSplineSet
EndChar

StartChar: u0x54
Encoding: 84 84 53
Width: 768
Flags: W
LayerCount: 2
Fore
SplineSet
0 768 m 25
 0 896 l 25
 128 896 l 25
 128 768 l 25
 0 768 l 25
128 768 m 25
 128 896 l 25
 256 896 l 25
 256 768 l 25
 128 768 l 25
256 768 m 25
 256 896 l 25
 384 896 l 25
 384 768 l 25
 256 768 l 25
384 768 m 25
 384 896 l 25
 512 896 l 25
 512 768 l 25
 384 768 l 25
512 768 m 25
 512 896 l 25
 640 896 l 25
 640 768 l 25
 512 768 l 25
256 640 m 25
 256 768 l 25
 384 768 l 25
 384 640 l 25
 256 640 l 25
256 512 m 25
 256 640 l 25
 384 640 l 25
 384 512 l 25
 256 512 l 25
256 384 m 25
 256 512 l 25
 384 512 l 25
 384 384 l 25
 256 384 l 25
256 256 m 25
 256 384 l 25
 384 384 l 25
 384 256 l 25
 256 256 l 25
256 128 m 25
 256 256 l 25
 384 256 l 25
 384 128 l 25
 256 128 l 25
256 0 m 25
 256 128 l 25
 384 128 l 25
 384 0 l 25
 256 0 l 25
EndSplineSet
EndChar

StartChar: u0x55
Encoding: 85 85 54
Width: 768
Flags: W
LayerCount: 2
Fore
SplineSet
0 768 m 25
 0 896 l 25
 128 896 l 25
 128 768 l 25
 0 768 l 25
512 768 m 25
 512 896 l 25
 640 896 l 25
 640 768 l 25
 512 768 l 25
0 640 m 25
 0 768 l 25
 128 768 l 25
 128 640 l 25
 0 640 l 25
512 640 m 25
 512 768 l 25
 640 768 l 25
 640 640 l 25
 512 640 l 25
0 512 m 25
 0 640 l 25
 128 640 l 25
 128 512 l 25
 0 512 l 25
512 512 m 25
 512 640 l 25
 640 640 l 25
 640 512 l 25
 512 512 l 25
0 384 m 25
 0 512 l 25
 128 512 l 25
 128 384 l 25
 0 384 l 25
512 384 m 25
 512 512 l 25
 640 512 l 25
 640 384 l 25
 512 384 l 25
0 256 m 25
 0 384 l 25
 128 384 l 25
 128 256 l 25
 0 256 l 25
512 256 m 25
 512 384 l 25
 640 384 l 25
 640 256 l 25
 512 256 l 25
0 128 m 25
 0 256 l 25
 128 256 l 25
 128 128 l 25
 0 128 l 25
512 128 m 25
 512 256 l 25
 640 256 l 25
 640 128 l 25
 512 128 l 25
128 0 m 25
 128 128 l 25
 256 128 l 25
 256 0 l 25
 128 0 l 25
256 0 m 25
 256 128 l 25
 384 128 l 25
 384 0 l 25
 256 0 l 25
384 0 m 25
 384 128 l 25
 512 128 l 25
 512 0 l 25
 384 0 l 25
EndSplineSet
EndChar

StartChar: u0x56
Encoding: 86 86 55
Width: 768
Flags: W
LayerCount: 2
Fore
SplineSet
0 768 m 25
 0 896 l 25
 128 896 l 25
 128 768 l 25
 0 768 l 25
512 768 m 25
 512 896 l 25
 640 896 l 25
 640 768 l 25
 512 768 l 25
0 640 m 25
 0 768 l 25
 128 768 l 25
 128 640 l 25
 0 640 l 25
512 640 m 25
 512 768 l 25
 640 768 l 25
 640 640 l 25
 512 640 l 25
0 512 m 25
 0 640 l 25
 128 640 l 25
 128 512 l 25
 0 512 l 25
512 512 m 25
 512 640 l 25
 640 640 l 25
 640 512 l 25
 512 512 l 25
0 384 m 25
 0 512 l 25
 128 512 l 25
 128 384 l 25
 0 384 l 25
512 384 m 25
 512 512 l 25
 640 512 l 25
 640 384 l 25
 512 384 l 25
128 256 m 25
 128 384 l 25
 256 384 l 25
 256 256 l 25
 128 256 l 25
384 256 m 25
 384 384 l 25
 512 384 l 25
 512 256 l 25
 384 256 l 25
128 128 m 25
 128 256 l 25
 256 256 l 25
 256 128 l 25
 128 128 l 25
384 128 m 25
 384 256 l 25
 512 256 l 25
 512 128 l 25
 384 128 l 25
256 0 m 25
 256 128 l 25
 384 128 l 25
 384 0 l 25
 256 0 l 25
EndSplineSet
EndChar

StartChar: u0x57
Encoding: 87 87 56
Width: 768
Flags: W
LayerCount: 2
Fore
SplineSet
0 768 m 25
 0 896 l 25
 128 896 l 25
 128 768 l 25
 0 768 l 25
512 768 m 25
 512 896 l 25
 640 896 l 25
 640 768 l 25
 512 768 l 25
0 640 m 25
 0 768 l 25
 128 768 l 25
 128 640 l 25
 0 640 l 25
256 640 m 25
 256 768 l 25
 384 768 l 25
 384 640 l 25
 256 640 l 25
512 640 m 25
 512 768 l 25
 640 768 l 25
 640 640 l 25
 512 640 l 25
0 512 m 25
 0 640 l 25
 128 640 l 25
 128 512 l 25
 0 512 l 25
256 512 m 25
 256 640 l 25
 384 640 l 25
 384 512 l 25
 256 512 l 25
512 512 m 25
 512 640 l 25
 640 640 l 25
 640 512 l 25
 512 512 l 25
0 384 m 25
 0 512 l 25
 128 512 l 25
 128 384 l 25
 0 384 l 25
256 384 m 25
 256 512 l 25
 384 512 l 25
 384 384 l 25
 256 384 l 25
512 384 m 25
 512 512 l 25
 640 512 l 25
 640 384 l 25
 512 384 l 25
0 256 m 25
 0 384 l 25
 128 384 l 25
 128 256 l 25
 0 256 l 25
256 256 m 25
 256 384 l 25
 384 384 l 25
 384 256 l 25
 256 256 l 25
512 256 m 25
 512 384 l 25
 640 384 l 25
 640 256 l 25
 512 256 l 25
0 128 m 25
 0 256 l 25
 128 256 l 25
 128 128 l 25
 0 128 l 25
256 128 m 25
 256 256 l 25
 384 256 l 25
 384 128 l 25
 256 128 l 25
512 128 m 25
 512 256 l 25
 640 256 l 25
 640 128 l 25
 512 128 l 25
128 0 m 25
 128 128 l 25
 256 128 l 25
 256 0 l 25
 128 0 l 25
384 0 m 25
 384 128 l 25
 512 128 l 25
 512 0 l 25
 384 0 l 25
EndSplineSet
EndChar

StartChar: u0x58
Encoding: 88 88 57
Width: 768
Flags: W
LayerCount: 2
Fore
SplineSet
0 768 m 25
 0 896 l 25
 128 896 l 25
 128 768 l 25
 0 768 l 25
512 768 m 25
 512 896 l 25
 640 896 l 25
 640 768 l 25
 512 768 l 25
0 640 m 25
 0 768 l 25
 128 768 l 25
 128 640 l 25
 0 640 l 25
512 640 m 25
 512 768 l 25
 640 768 l 25
 640 640 l 25
 512 640 l 25
128 512 m 25
 128 640 l 25
 256 640 l 25
 256 512 l 25
 128 512 l 25
384 512 m 25
 384 640 l 25
 512 640 l 25
 512 512 l 25
 384 512 l 25
256 384 m 25
 256 512 l 25
 384 512 l 25
 384 384 l 25
 256 384 l 25
128 256 m 25
 128 384 l 25
 256 384 l 25
 256 256 l 25
 128 256 l 25
384 256 m 25
 384 384 l 25
 512 384 l 25
 512 256 l 25
 384 256 l 25
0 128 m 25
 0 256 l 25
 128 256 l 25
 128 128 l 25
 0 128 l 25
512 128 m 25
 512 256 l 25
 640 256 l 25
 640 128 l 25
 512 128 l 25
0 0 m 25
 0 128 l 25
 128 128 l 25
 128 0 l 25
 0 0 l 25
512 0 m 25
 512 128 l 25
 640 128 l 25
 640 0 l 25
 512 0 l 25
EndSplineSet
EndChar

StartChar: u0x59
Encoding: 89 89 58
Width: 768
Flags: W
LayerCount: 2
Fore
SplineSet
0 768 m 25
 0 896 l 25
 128 896 l 25
 128 768 l 25
 0 768 l 25
512 768 m 25
 512 896 l 25
 640 896 l 25
 640 768 l 25
 512 768 l 25
0 640 m 25
 0 768 l 25
 128 768 l 25
 128 640 l 25
 0 640 l 25
512 640 m 25
 512 768 l 25
 640 768 l 25
 640 640 l 25
 512 640 l 25
0 512 m 25
 0 640 l 25
 128 640 l 25
 128 512 l 25
 0 512 l 25
512 512 m 25
 512 640 l 25
 640 640 l 25
 640 512 l 25
 512 512 l 25
128 384 m 25
 128 512 l 25
 256 512 l 25
 256 384 l 25
 128 384 l 25
384 384 m 25
 384 512 l 25
 512 512 l 25
 512 384 l 25
 384 384 l 25
256 256 m 25
 256 384 l 25
 384 384 l 25
 384 256 l 25
 256 256 l 25
256 128 m 25
 256 256 l 25
 384 256 l 25
 384 128 l 25
 256 128 l 25
256 0 m 25
 256 128 l 25
 384 128 l 25
 384 0 l 25
 256 0 l 25
EndSplineSet
EndChar

StartChar: u0x5a
Encoding: 90 90 59
Width: 768
Flags: W
LayerCount: 2
Fore
SplineSet
0 768 m 25
 0 896 l 25
 128 896 l 25
 128 768 l 25
 0 768 l 25
128 768 m 25
 128 896 l 25
 256 896 l 25
 256 768 l 25
 128 768 l 25
256 768 m 25
 256 896 l 25
 384 896 l 25
 384 768 l 25
 256 768 l 25
384 768 m 25
 384 896 l 25
 512 896 l 25
 512 768 l 25
 384 768 l 25
512 768 m 25
 512 896 l 25
 640 896 l 25
 640 768 l 25
 512 768 l 25
512 640 m 25
 512 768 l 25
 640 768 l 25
 640 640 l 25
 512 640 l 25
384 512 m 25
 384 640 l 25
 512 640 l 25
 512 512 l 25
 384 512 l 25
256 384 m 25
 256 512 l 25
 384 512 l 25
 384 384 l 25
 256 384 l 25
128 256 m 25
 128 384 l 25
 256 384 l 25
 256 256 l 25
 128 256 l 25
0 128 m 25
 0 256 l 25
 128 256 l 25
 128 128 l 25
 0 128 l 25
0 0 m 25
 0 128 l 25
 128 128 l 25
 128 0 l 25
 0 0 l 25
128 0 m 25
 128 128 l 25
 256 128 l 25
 256 0 l 25
 128 0 l 25
256 0 m 25
 256 128 l 25
 384 128 l 25
 384 0 l 25
 256 0 l 25
384 0 m 25
 384 128 l 25
 512 128 l 25
 512 0 l 25
 384 0 l 25
512 0 m 25
 512 128 l 25
 640 128 l 25
 640 0 l 25
 512 0 l 25
EndSplineSet
EndChar

StartChar: u0x5b
Encoding: 91 91 60
Width: 512
Flags: W
LayerCount: 2
Fore
SplineSet
0 768 m 25
 0 896 l 25
 128 896 l 25
 128 768 l 25
 0 768 l 25
128 768 m 25
 128 896 l 25
 256 896 l 25
 256 768 l 25
 128 768 l 25
256 768 m 25
 256 896 l 25
 384 896 l 25
 384 768 l 25
 256 768 l 25
0 640 m 25
 0 768 l 25
 128 768 l 25
 128 640 l 25
 0 640 l 25
0 512 m 25
 0 640 l 25
 128 640 l 25
 128 512 l 25
 0 512 l 25
0 384 m 25
 0 512 l 25
 128 512 l 25
 128 384 l 25
 0 384 l 25
0 256 m 25
 0 384 l 25
 128 384 l 25
 128 256 l 25
 0 256 l 25
0 128 m 25
 0 256 l 25
 128 256 l 25
 128 128 l 25
 0 128 l 25
0 0 m 25
 0 128 l 25
 128 128 l 25
 128 0 l 25
 0 0 l 25
0 -128 m 25
 0 0 l 25
 128 0 l 25
 128 -128 l 25
 0 -128 l 25
128 -128 m 25
 128 0 l 25
 256 0 l 25
 256 -128 l 25
 128 -128 l 25
256 -128 m 25
 256 0 l 25
 384 0 l 25
 384 -128 l 25
 256 -128 l 25
EndSplineSet
EndChar

StartChar: u0x5c
Encoding: 92 92 61
Width: 512
Flags: W
LayerCount: 2
Fore
SplineSet
0 768 m 25
 0 896 l 25
 128 896 l 25
 128 768 l 25
 0 768 l 25
0 640 m 25
 0 768 l 25
 128 768 l 25
 128 640 l 25
 0 640 l 25
128 512 m 25
 128 640 l 25
 256 640 l 25
 256 512 l 25
 128 512 l 25
128 384 m 25
 128 512 l 25
 256 512 l 25
 256 384 l 25
 128 384 l 25
128 256 m 25
 128 384 l 25
 256 384 l 25
 256 256 l 25
 128 256 l 25
256 128 m 25
 256 256 l 25
 384 256 l 25
 384 128 l 25
 256 128 l 25
256 0 m 25
 256 128 l 25
 384 128 l 25
 384 0 l 25
 256 0 l 25
EndSplineSet
EndChar

StartChar: u0x5d
Encoding: 93 93 62
Width: 512
Flags: W
LayerCount: 2
Fore
SplineSet
0 768 m 25
 0 896 l 25
 128 896 l 25
 128 768 l 25
 0 768 l 25
128 768 m 25
 128 896 l 25
 256 896 l 25
 256 768 l 25
 128 768 l 25
256 768 m 25
 256 896 l 25
 384 896 l 25
 384 768 l 25
 256 768 l 25
256 640 m 25
 256 768 l 25
 384 768 l 25
 384 640 l 25
 256 640 l 25
256 512 m 25
 256 640 l 25
 384 640 l 25
 384 512 l 25
 256 512 l 25
256 384 m 25
 256 512 l 25
 384 512 l 25
 384 384 l 25
 256 384 l 25
256 256 m 25
 256 384 l 25
 384 384 l 25
 384 256 l 25
 256 256 l 25
256 128 m 25
 256 256 l 25
 384 256 l 25
 384 128 l 25
 256 128 l 25
256 0 m 25
 256 128 l 25
 384 128 l 25
 384 0 l 25
 256 0 l 25
0 -128 m 25
 0 0 l 25
 128 0 l 25
 128 -128 l 25
 0 -128 l 25
128 -128 m 25
 128 0 l 25
 256 0 l 25
 256 -128 l 25
 128 -128 l 25
256 -128 m 25
 256 0 l 25
 384 0 l 25
 384 -128 l 25
 256 -128 l 25
EndSplineSet
EndChar

StartChar: u0x5e
Encoding: 94 94 63
Width: 768
Flags: W
LayerCount: 2
Fore
SplineSet
256 768 m 25
 256 896 l 25
 384 896 l 25
 384 768 l 25
 256 768 l 25
128 640 m 25
 128 768 l 25
 256 768 l 25
 256 640 l 25
 128 640 l 25
384 640 m 25
 384 768 l 25
 512 768 l 25
 512 640 l 25
 384 640 l 25
0 512 m 25
 0 640 l 25
 128 640 l 25
 128 512 l 25
 0 512 l 25
512 512 m 25
 512 640 l 25
 640 640 l 25
 640 512 l 25
 512 512 l 25
EndSplineSet
EndChar

StartChar: u0x5f
Encoding: 95 95 64
Width: 640
Flags: W
LayerCount: 2
Fore
SplineSet
0 0 m 25
 0 128 l 25
 128 128 l 25
 128 0 l 25
 0 0 l 25
128 0 m 25
 128 128 l 25
 256 128 l 25
 256 0 l 25
 128 0 l 25
256 0 m 25
 256 128 l 25
 384 128 l 25
 384 0 l 25
 256 0 l 25
384 0 m 25
 384 128 l 25
 512 128 l 25
 512 0 l 25
 384 0 l 25
EndSplineSet
EndChar

StartChar: u0x60
Encoding: 96 96 65
Width: 512
Flags: W
LayerCount: 2
Fore
SplineSet
0 768 m 25
 0 896 l 25
 128 896 l 25
 128 768 l 25
 0 768 l 25
128 640 m 25
 128 768 l 25
 256 768 l 25
 256 640 l 25
 128 640 l 25
256 512 m 25
 256 640 l 25
 384 640 l 25
 384 512 l 25
 256 512 l 25
EndSplineSet
EndChar

StartChar: u0x61
Encoding: 97 97 66
Width: 640
Flags: W
LayerCount: 2
Fore
SplineSet
128 512 m 25
 128 640 l 25
 256 640 l 25
 256 512 l 25
 128 512 l 25
256 512 m 25
 256 640 l 25
 384 640 l 25
 384 512 l 25
 256 512 l 25
384 384 m 25
 384 512 l 25
 512 512 l 25
 512 384 l 25
 384 384 l 25
128 256 m 25
 128 384 l 25
 256 384 l 25
 256 256 l 25
 128 256 l 25
256 256 m 25
 256 384 l 25
 384 384 l 25
 384 256 l 25
 256 256 l 25
384 256 m 25
 384 384 l 25
 512 384 l 25
 512 256 l 25
 384 256 l 25
0 128 m 25
 0 256 l 25
 128 256 l 25
 128 128 l 25
 0 128 l 25
384 128 m 25
 384 256 l 25
 512 256 l 25
 512 128 l 25
 384 128 l 25
128 0 m 25
 128 128 l 25
 256 128 l 25
 256 0 l 25
 128 0 l 25
256 0 m 25
 256 128 l 25
 384 128 l 25
 384 0 l 25
 256 0 l 25
384 0 m 25
 384 128 l 25
 512 128 l 25
 512 0 l 25
 384 0 l 25
EndSplineSet
EndChar

StartChar: u0x62
Encoding: 98 98 67
Width: 640
Flags: W
LayerCount: 2
Fore
SplineSet
0 768 m 25
 0 896 l 25
 128 896 l 25
 128 768 l 25
 0 768 l 25
0 640 m 25
 0 768 l 25
 128 768 l 25
 128 640 l 25
 0 640 l 25
0 512 m 25
 0 640 l 25
 128 640 l 25
 128 512 l 25
 0 512 l 25
128 512 m 25
 128 640 l 25
 256 640 l 25
 256 512 l 25
 128 512 l 25
256 512 m 25
 256 640 l 25
 384 640 l 25
 384 512 l 25
 256 512 l 25
0 384 m 25
 0 512 l 25
 128 512 l 25
 128 384 l 25
 0 384 l 25
384 384 m 25
 384 512 l 25
 512 512 l 25
 512 384 l 25
 384 384 l 25
0 256 m 25
 0 384 l 25
 128 384 l 25
 128 256 l 25
 0 256 l 25
384 256 m 25
 384 384 l 25
 512 384 l 25
 512 256 l 25
 384 256 l 25
0 128 m 25
 0 256 l 25
 128 256 l 25
 128 128 l 25
 0 128 l 25
384 128 m 25
 384 256 l 25
 512 256 l 25
 512 128 l 25
 384 128 l 25
0 0 m 25
 0 128 l 25
 128 128 l 25
 128 0 l 25
 0 0 l 25
128 0 m 25
 128 128 l 25
 256 128 l 25
 256 0 l 25
 128 0 l 25
256 0 m 25
 256 128 l 25
 384 128 l 25
 384 0 l 25
 256 0 l 25
EndSplineSet
EndChar

StartChar: u0x63
Encoding: 99 99 68
Width: 512
Flags: W
LayerCount: 2
Fore
SplineSet
128 512 m 25
 128 640 l 25
 256 640 l 25
 256 512 l 25
 128 512 l 25
256 512 m 25
 256 640 l 25
 384 640 l 25
 384 512 l 25
 256 512 l 25
0 384 m 25
 0 512 l 25
 128 512 l 25
 128 384 l 25
 0 384 l 25
0 256 m 25
 0 384 l 25
 128 384 l 25
 128 256 l 25
 0 256 l 25
0 128 m 25
 0 256 l 25
 128 256 l 25
 128 128 l 25
 0 128 l 25
128 0 m 25
 128 128 l 25
 256 128 l 25
 256 0 l 25
 128 0 l 25
256 0 m 25
 256 128 l 25
 384 128 l 25
 384 0 l 25
 256 0 l 25
EndSplineSet
EndChar

StartChar: u0x64
Encoding: 100 100 69
Width: 640
Flags: W
LayerCount: 2
Fore
SplineSet
384 768 m 25
 384 896 l 25
 512 896 l 25
 512 768 l 25
 384 768 l 25
384 640 m 25
 384 768 l 25
 512 768 l 25
 512 640 l 25
 384 640 l 25
128 512 m 25
 128 640 l 25
 256 640 l 25
 256 512 l 25
 128 512 l 25
256 512 m 25
 256 640 l 25
 384 640 l 25
 384 512 l 25
 256 512 l 25
384 512 m 25
 384 640 l 25
 512 640 l 25
 512 512 l 25
 384 512 l 25
0 384 m 25
 0 512 l 25
 128 512 l 25
 128 384 l 25
 0 384 l 25
384 384 m 25
 384 512 l 25
 512 512 l 25
 512 384 l 25
 384 384 l 25
0 256 m 25
 0 384 l 25
 128 384 l 25
 128 256 l 25
 0 256 l 25
384 256 m 25
 384 384 l 25
 512 384 l 25
 512 256 l 25
 384 256 l 25
0 128 m 25
 0 256 l 25
 128 256 l 25
 128 128 l 25
 0 128 l 25
384 128 m 25
 384 256 l 25
 512 256 l 25
 512 128 l 25
 384 128 l 25
128 0 m 25
 128 128 l 25
 256 128 l 25
 256 0 l 25
 128 0 l 25
256 0 m 25
 256 128 l 25
 384 128 l 25
 384 0 l 25
 256 0 l 25
384 0 m 25
 384 128 l 25
 512 128 l 25
 512 0 l 25
 384 0 l 25
EndSplineSet
EndChar

StartChar: u0x65
Encoding: 101 101 70
Width: 640
Flags: W
LayerCount: 2
Fore
SplineSet
128 512 m 25
 128 640 l 25
 256 640 l 25
 256 512 l 25
 128 512 l 25
256 512 m 25
 256 640 l 25
 384 640 l 25
 384 512 l 25
 256 512 l 25
0 384 m 25
 0 512 l 25
 128 512 l 25
 128 384 l 25
 0 384 l 25
384 384 m 25
 384 512 l 25
 512 512 l 25
 512 384 l 25
 384 384 l 25
0 256 m 25
 0 384 l 25
 128 384 l 25
 128 256 l 25
 0 256 l 25
128 256 m 25
 128 384 l 25
 256 384 l 25
 256 256 l 25
 128 256 l 25
256 256 m 25
 256 384 l 25
 384 384 l 25
 384 256 l 25
 256 256 l 25
384 256 m 25
 384 384 l 25
 512 384 l 25
 512 256 l 25
 384 256 l 25
0 128 m 25
 0 256 l 25
 128 256 l 25
 128 128 l 25
 0 128 l 25
128 0 m 25
 128 128 l 25
 256 128 l 25
 256 0 l 25
 128 0 l 25
256 0 m 25
 256 128 l 25
 384 128 l 25
 384 0 l 25
 256 0 l 25
EndSplineSet
EndChar

StartChar: u0x66
Encoding: 102 102 71
Width: 512
Flags: W
LayerCount: 2
Fore
SplineSet
256 768 m 25
 256 896 l 25
 384 896 l 25
 384 768 l 25
 256 768 l 25
128 640 m 25
 128 768 l 25
 256 768 l 25
 256 640 l 25
 128 640 l 25
0 512 m 25
 0 640 l 25
 128 640 l 25
 128 512 l 25
 0 512 l 25
128 512 m 25
 128 640 l 25
 256 640 l 25
 256 512 l 25
 128 512 l 25
256 512 m 25
 256 640 l 25
 384 640 l 25
 384 512 l 25
 256 512 l 25
128 384 m 25
 128 512 l 25
 256 512 l 25
 256 384 l 25
 128 384 l 25
128 256 m 25
 128 384 l 25
 256 384 l 25
 256 256 l 25
 128 256 l 25
128 128 m 25
 128 256 l 25
 256 256 l 25
 256 128 l 25
 128 128 l 25
128 0 m 25
 128 128 l 25
 256 128 l 25
 256 0 l 25
 128 0 l 25
EndSplineSet
EndChar

StartChar: u0x67
Encoding: 103 103 72
Width: 640
Flags: W
LayerCount: 2
Fore
SplineSet
128 512 m 25
 128 640 l 25
 256 640 l 25
 256 512 l 25
 128 512 l 25
256 512 m 25
 256 640 l 25
 384 640 l 25
 384 512 l 25
 256 512 l 25
384 512 m 25
 384 640 l 25
 512 640 l 25
 512 512 l 25
 384 512 l 25
0 384 m 25
 0 512 l 25
 128 512 l 25
 128 384 l 25
 0 384 l 25
384 384 m 25
 384 512 l 25
 512 512 l 25
 512 384 l 25
 384 384 l 25
0 256 m 25
 0 384 l 25
 128 384 l 25
 128 256 l 25
 0 256 l 25
384 256 m 25
 384 384 l 25
 512 384 l 25
 512 256 l 25
 384 256 l 25
0 128 m 25
 0 256 l 25
 128 256 l 25
 128 128 l 25
 0 128 l 25
384 128 m 25
 384 256 l 25
 512 256 l 25
 512 128 l 25
 384 128 l 25
128 0 m 25
 128 128 l 25
 256 128 l 25
 256 0 l 25
 128 0 l 25
256 0 m 25
 256 128 l 25
 384 128 l 25
 384 0 l 25
 256 0 l 25
384 0 m 25
 384 128 l 25
 512 128 l 25
 512 0 l 25
 384 0 l 25
384 -128 m 25
 384 0 l 25
 512 0 l 25
 512 -128 l 25
 384 -128 l 25
128 -256 m 25
 128 -128 l 25
 256 -128 l 25
 256 -256 l 25
 128 -256 l 25
256 -256 m 25
 256 -128 l 25
 384 -128 l 25
 384 -256 l 25
 256 -256 l 25
EndSplineSet
EndChar

StartChar: u0x68
Encoding: 104 104 73
Width: 640
Flags: W
LayerCount: 2
Fore
SplineSet
0 768 m 25
 0 896 l 25
 128 896 l 25
 128 768 l 25
 0 768 l 25
0 640 m 25
 0 768 l 25
 128 768 l 25
 128 640 l 25
 0 640 l 25
0 512 m 25
 0 640 l 25
 128 640 l 25
 128 512 l 25
 0 512 l 25
128 512 m 25
 128 640 l 25
 256 640 l 25
 256 512 l 25
 128 512 l 25
256 512 m 25
 256 640 l 25
 384 640 l 25
 384 512 l 25
 256 512 l 25
0 384 m 25
 0 512 l 25
 128 512 l 25
 128 384 l 25
 0 384 l 25
384 384 m 25
 384 512 l 25
 512 512 l 25
 512 384 l 25
 384 384 l 25
0 256 m 25
 0 384 l 25
 128 384 l 25
 128 256 l 25
 0 256 l 25
384 256 m 25
 384 384 l 25
 512 384 l 25
 512 256 l 25
 384 256 l 25
0 128 m 25
 0 256 l 25
 128 256 l 25
 128 128 l 25
 0 128 l 25
384 128 m 25
 384 256 l 25
 512 256 l 25
 512 128 l 25
 384 128 l 25
0 0 m 25
 0 128 l 25
 128 128 l 25
 128 0 l 25
 0 0 l 25
384 0 m 25
 384 128 l 25
 512 128 l 25
 512 0 l 25
 384 0 l 25
EndSplineSet
EndChar

StartChar: u0x69
Encoding: 105 105 74
Width: 256
Flags: W
LayerCount: 2
Fore
SplineSet
0 768 m 25
 0 896 l 25
 128 896 l 25
 128 768 l 25
 0 768 l 25
0 512 m 25
 0 640 l 25
 128 640 l 25
 128 512 l 25
 0 512 l 25
0 384 m 25
 0 512 l 25
 128 512 l 25
 128 384 l 25
 0 384 l 25
0 256 m 25
 0 384 l 25
 128 384 l 25
 128 256 l 25
 0 256 l 25
0 128 m 25
 0 256 l 25
 128 256 l 25
 128 128 l 25
 0 128 l 25
0 0 m 25
 0 128 l 25
 128 128 l 25
 128 0 l 25
 0 0 l 25
EndSplineSet
EndChar

StartChar: u0x6a
Encoding: 106 106 75
Width: 384
Flags: W
LayerCount: 2
Fore
SplineSet
128 768 m 25
 128 896 l 25
 256 896 l 25
 256 768 l 25
 128 768 l 25
128 512 m 25
 128 640 l 25
 256 640 l 25
 256 512 l 25
 128 512 l 25
128 384 m 25
 128 512 l 25
 256 512 l 25
 256 384 l 25
 128 384 l 25
128 256 m 25
 128 384 l 25
 256 384 l 25
 256 256 l 25
 128 256 l 25
128 128 m 25
 128 256 l 25
 256 256 l 25
 256 128 l 25
 128 128 l 25
128 0 m 25
 128 128 l 25
 256 128 l 25
 256 0 l 25
 128 0 l 25
128 -128 m 25
 128 0 l 25
 256 0 l 25
 256 -128 l 25
 128 -128 l 25
0 -256 m 25
 0 -128 l 25
 128 -128 l 25
 128 -256 l 25
 0 -256 l 25
EndSplineSet
EndChar

StartChar: u0x6b
Encoding: 107 107 76
Width: 640
Flags: W
LayerCount: 2
Fore
SplineSet
0 768 m 25
 0 896 l 25
 128 896 l 25
 128 768 l 25
 0 768 l 25
0 640 m 25
 0 768 l 25
 128 768 l 25
 128 640 l 25
 0 640 l 25
0 512 m 25
 0 640 l 25
 128 640 l 25
 128 512 l 25
 0 512 l 25
256 512 m 25
 256 640 l 25
 384 640 l 25
 384 512 l 25
 256 512 l 25
0 384 m 25
 0 512 l 25
 128 512 l 25
 128 384 l 25
 0 384 l 25
128 384 m 25
 128 512 l 25
 256 512 l 25
 256 384 l 25
 128 384 l 25
0 256 m 25
 0 384 l 25
 128 384 l 25
 128 256 l 25
 0 256 l 25
128 256 m 25
 128 384 l 25
 256 384 l 25
 256 256 l 25
 128 256 l 25
0 128 m 25
 0 256 l 25
 128 256 l 25
 128 128 l 25
 0 128 l 25
256 128 m 25
 256 256 l 25
 384 256 l 25
 384 128 l 25
 256 128 l 25
0 0 m 25
 0 128 l 25
 128 128 l 25
 128 0 l 25
 0 0 l 25
384 0 m 25
 384 128 l 25
 512 128 l 25
 512 0 l 25
 384 0 l 25
EndSplineSet
EndChar

StartChar: u0x6c
Encoding: 108 108 77
Width: 256
Flags: W
LayerCount: 2
Fore
SplineSet
0 768 m 25
 0 896 l 25
 128 896 l 25
 128 768 l 25
 0 768 l 25
0 640 m 25
 0 768 l 25
 128 768 l 25
 128 640 l 25
 0 640 l 25
0 512 m 25
 0 640 l 25
 128 640 l 25
 128 512 l 25
 0 512 l 25
0 384 m 25
 0 512 l 25
 128 512 l 25
 128 384 l 25
 0 384 l 25
0 256 m 25
 0 384 l 25
 128 384 l 25
 128 256 l 25
 0 256 l 25
0 128 m 25
 0 256 l 25
 128 256 l 25
 128 128 l 25
 0 128 l 25
0 0 m 25
 0 128 l 25
 128 128 l 25
 128 0 l 25
 0 0 l 25
EndSplineSet
EndChar

StartChar: u0x6d
Encoding: 109 109 78
Width: 768
Flags: W
LayerCount: 2
Fore
SplineSet
0 512 m 25
 0 640 l 25
 128 640 l 25
 128 512 l 25
 0 512 l 25
128 512 m 25
 128 640 l 25
 256 640 l 25
 256 512 l 25
 128 512 l 25
256 512 m 25
 256 640 l 25
 384 640 l 25
 384 512 l 25
 256 512 l 25
384 512 m 25
 384 640 l 25
 512 640 l 25
 512 512 l 25
 384 512 l 25
0 384 m 25
 0 512 l 25
 128 512 l 25
 128 384 l 25
 0 384 l 25
256 384 m 25
 256 512 l 25
 384 512 l 25
 384 384 l 25
 256 384 l 25
512 384 m 25
 512 512 l 25
 640 512 l 25
 640 384 l 25
 512 384 l 25
0 256 m 25
 0 384 l 25
 128 384 l 25
 128 256 l 25
 0 256 l 25
256 256 m 25
 256 384 l 25
 384 384 l 25
 384 256 l 25
 256 256 l 25
512 256 m 25
 512 384 l 25
 640 384 l 25
 640 256 l 25
 512 256 l 25
0 128 m 25
 0 256 l 25
 128 256 l 25
 128 128 l 25
 0 128 l 25
256 128 m 25
 256 256 l 25
 384 256 l 25
 384 128 l 25
 256 128 l 25
512 128 m 25
 512 256 l 25
 640 256 l 25
 640 128 l 25
 512 128 l 25
0 0 m 25
 0 128 l 25
 128 128 l 25
 128 0 l 25
 0 0 l 25
256 0 m 25
 256 128 l 25
 384 128 l 25
 384 0 l 25
 256 0 l 25
512 0 m 25
 512 128 l 25
 640 128 l 25
 640 0 l 25
 512 0 l 25
EndSplineSet
EndChar

StartChar: u0x6e
Encoding: 110 110 79
Width: 640
Flags: W
LayerCount: 2
Fore
SplineSet
0 512 m 25
 0 640 l 25
 128 640 l 25
 128 512 l 25
 0 512 l 25
128 512 m 25
 128 640 l 25
 256 640 l 25
 256 512 l 25
 128 512 l 25
256 512 m 25
 256 640 l 25
 384 640 l 25
 384 512 l 25
 256 512 l 25
0 384 m 25
 0 512 l 25
 128 512 l 25
 128 384 l 25
 0 384 l 25
384 384 m 25
 384 512 l 25
 512 512 l 25
 512 384 l 25
 384 384 l 25
0 256 m 25
 0 384 l 25
 128 384 l 25
 128 256 l 25
 0 256 l 25
384 256 m 25
 384 384 l 25
 512 384 l 25
 512 256 l 25
 384 256 l 25
0 128 m 25
 0 256 l 25
 128 256 l 25
 128 128 l 25
 0 128 l 25
384 128 m 25
 384 256 l 25
 512 256 l 25
 512 128 l 25
 384 128 l 25
0 0 m 25
 0 128 l 25
 128 128 l 25
 128 0 l 25
 0 0 l 25
384 0 m 25
 384 128 l 25
 512 128 l 25
 512 0 l 25
 384 0 l 25
EndSplineSet
EndChar

StartChar: u0x6f
Encoding: 111 111 80
Width: 640
Flags: W
LayerCount: 2
Fore
SplineSet
128 512 m 25
 128 640 l 25
 256 640 l 25
 256 512 l 25
 128 512 l 25
256 512 m 25
 256 640 l 25
 384 640 l 25
 384 512 l 25
 256 512 l 25
0 384 m 25
 0 512 l 25
 128 512 l 25
 128 384 l 25
 0 384 l 25
384 384 m 25
 384 512 l 25
 512 512 l 25
 512 384 l 25
 384 384 l 25
0 256 m 25
 0 384 l 25
 128 384 l 25
 128 256 l 25
 0 256 l 25
384 256 m 25
 384 384 l 25
 512 384 l 25
 512 256 l 25
 384 256 l 25
0 128 m 25
 0 256 l 25
 128 256 l 25
 128 128 l 25
 0 128 l 25
384 128 m 25
 384 256 l 25
 512 256 l 25
 512 128 l 25
 384 128 l 25
128 0 m 25
 128 128 l 25
 256 128 l 25
 256 0 l 25
 128 0 l 25
256 0 m 25
 256 128 l 25
 384 128 l 25
 384 0 l 25
 256 0 l 25
EndSplineSet
EndChar

StartChar: u0x70
Encoding: 112 112 81
Width: 640
Flags: W
LayerCount: 2
Fore
SplineSet
0 512 m 25
 0 640 l 25
 128 640 l 25
 128 512 l 25
 0 512 l 25
128 512 m 25
 128 640 l 25
 256 640 l 25
 256 512 l 25
 128 512 l 25
256 512 m 25
 256 640 l 25
 384 640 l 25
 384 512 l 25
 256 512 l 25
0 384 m 25
 0 512 l 25
 128 512 l 25
 128 384 l 25
 0 384 l 25
384 384 m 25
 384 512 l 25
 512 512 l 25
 512 384 l 25
 384 384 l 25
0 256 m 25
 0 384 l 25
 128 384 l 25
 128 256 l 25
 0 256 l 25
384 256 m 25
 384 384 l 25
 512 384 l 25
 512 256 l 25
 384 256 l 25
0 128 m 25
 0 256 l 25
 128 256 l 25
 128 128 l 25
 0 128 l 25
384 128 m 25
 384 256 l 25
 512 256 l 25
 512 128 l 25
 384 128 l 25
0 0 m 25
 0 128 l 25
 128 128 l 25
 128 0 l 25
 0 0 l 25
128 0 m 25
 128 128 l 25
 256 128 l 25
 256 0 l 25
 128 0 l 25
256 0 m 25
 256 128 l 25
 384 128 l 25
 384 0 l 25
 256 0 l 25
0 -128 m 25
 0 0 l 25
 128 0 l 25
 128 -128 l 25
 0 -128 l 25
0 -256 m 25
 0 -128 l 25
 128 -128 l 25
 128 -256 l 25
 0 -256 l 25
EndSplineSet
EndChar

StartChar: u0x71
Encoding: 113 113 82
Width: 640
Flags: W
LayerCount: 2
Fore
SplineSet
128 512 m 25
 128 640 l 25
 256 640 l 25
 256 512 l 25
 128 512 l 25
256 512 m 25
 256 640 l 25
 384 640 l 25
 384 512 l 25
 256 512 l 25
384 512 m 25
 384 640 l 25
 512 640 l 25
 512 512 l 25
 384 512 l 25
0 384 m 25
 0 512 l 25
 128 512 l 25
 128 384 l 25
 0 384 l 25
384 384 m 25
 384 512 l 25
 512 512 l 25
 512 384 l 25
 384 384 l 25
0 256 m 25
 0 384 l 25
 128 384 l 25
 128 256 l 25
 0 256 l 25
384 256 m 25
 384 384 l 25
 512 384 l 25
 512 256 l 25
 384 256 l 25
0 128 m 25
 0 256 l 25
 128 256 l 25
 128 128 l 25
 0 128 l 25
384 128 m 25
 384 256 l 25
 512 256 l 25
 512 128 l 25
 384 128 l 25
128 0 m 25
 128 128 l 25
 256 128 l 25
 256 0 l 25
 128 0 l 25
256 0 m 25
 256 128 l 25
 384 128 l 25
 384 0 l 25
 256 0 l 25
384 0 m 25
 384 128 l 25
 512 128 l 25
 512 0 l 25
 384 0 l 25
384 -128 m 25
 384 0 l 25
 512 0 l 25
 512 -128 l 25
 384 -128 l 25
384 -256 m 25
 384 -128 l 25
 512 -128 l 25
 512 -256 l 25
 384 -256 l 25
EndSplineSet
EndChar

StartChar: u0x72
Encoding: 114 114 83
Width: 512
Flags: W
LayerCount: 2
Fore
SplineSet
0 512 m 25
 0 640 l 25
 128 640 l 25
 128 512 l 25
 0 512 l 25
256 512 m 25
 256 640 l 25
 384 640 l 25
 384 512 l 25
 256 512 l 25
0 384 m 25
 0 512 l 25
 128 512 l 25
 128 384 l 25
 0 384 l 25
128 384 m 25
 128 512 l 25
 256 512 l 25
 256 384 l 25
 128 384 l 25
0 256 m 25
 0 384 l 25
 128 384 l 25
 128 256 l 25
 0 256 l 25
0 128 m 25
 0 256 l 25
 128 256 l 25
 128 128 l 25
 0 128 l 25
0 0 m 25
 0 128 l 25
 128 128 l 25
 128 0 l 25
 0 0 l 25
EndSplineSet
EndChar

StartChar: u0x73
Encoding: 115 115 84
Width: 640
Flags: W
LayerCount: 2
Fore
SplineSet
128 512 m 25
 128 640 l 25
 256 640 l 25
 256 512 l 25
 128 512 l 25
256 512 m 25
 256 640 l 25
 384 640 l 25
 384 512 l 25
 256 512 l 25
0 384 m 25
 0 512 l 25
 128 512 l 25
 128 384 l 25
 0 384 l 25
128 256 m 25
 128 384 l 25
 256 384 l 25
 256 256 l 25
 128 256 l 25
256 256 m 25
 256 384 l 25
 384 384 l 25
 384 256 l 25
 256 256 l 25
384 128 m 25
 384 256 l 25
 512 256 l 25
 512 128 l 25
 384 128 l 25
0 0 m 25
 0 128 l 25
 128 128 l 25
 128 0 l 25
 0 0 l 25
128 0 m 25
 128 128 l 25
 256 128 l 25
 256 0 l 25
 128 0 l 25
256 0 m 25
 256 128 l 25
 384 128 l 25
 384 0 l 25
 256 0 l 25
EndSplineSet
EndChar

StartChar: u0x74
Encoding: 116 116 85
Width: 512
Flags: W
LayerCount: 2
Fore
SplineSet
128 768 m 25
 128 896 l 25
 256 896 l 25
 256 768 l 25
 128 768 l 25
128 640 m 25
 128 768 l 25
 256 768 l 25
 256 640 l 25
 128 640 l 25
0 512 m 25
 0 640 l 25
 128 640 l 25
 128 512 l 25
 0 512 l 25
128 512 m 25
 128 640 l 25
 256 640 l 25
 256 512 l 25
 128 512 l 25
256 512 m 25
 256 640 l 25
 384 640 l 25
 384 512 l 25
 256 512 l 25
128 384 m 25
 128 512 l 25
 256 512 l 25
 256 384 l 25
 128 384 l 25
128 256 m 25
 128 384 l 25
 256 384 l 25
 256 256 l 25
 128 256 l 25
128 128 m 25
 128 256 l 25
 256 256 l 25
 256 128 l 25
 128 128 l 25
256 0 m 25
 256 128 l 25
 384 128 l 25
 384 0 l 25
 256 0 l 25
EndSplineSet
EndChar

StartChar: u0x75
Encoding: 117 117 86
Width: 640
Flags: W
LayerCount: 2
Fore
SplineSet
0 512 m 25
 0 640 l 25
 128 640 l 25
 128 512 l 25
 0 512 l 25
384 512 m 25
 384 640 l 25
 512 640 l 25
 512 512 l 25
 384 512 l 25
0 384 m 25
 0 512 l 25
 128 512 l 25
 128 384 l 25
 0 384 l 25
384 384 m 25
 384 512 l 25
 512 512 l 25
 512 384 l 25
 384 384 l 25
0 256 m 25
 0 384 l 25
 128 384 l 25
 128 256 l 25
 0 256 l 25
384 256 m 25
 384 384 l 25
 512 384 l 25
 512 256 l 25
 384 256 l 25
0 128 m 25
 0 256 l 25
 128 256 l 25
 128 128 l 25
 0 128 l 25
384 128 m 25
 384 256 l 25
 512 256 l 25
 512 128 l 25
 384 128 l 25
128 0 m 25
 128 128 l 25
 256 128 l 25
 256 0 l 25
 128 0 l 25
256 0 m 25
 256 128 l 25
 384 128 l 25
 384 0 l 25
 256 0 l 25
384 0 m 25
 384 128 l 25
 512 128 l 25
 512 0 l 25
 384 0 l 25
EndSplineSet
EndChar

StartChar: u0x76
Encoding: 118 118 87
Width: 640
Flags: W
LayerCount: 2
Fore
SplineSet
0 512 m 25
 0 640 l 25
 128 640 l 25
 128 512 l 25
 0 512 l 25
384 512 m 25
 384 640 l 25
 512 640 l 25
 512 512 l 25
 384 512 l 25
0 384 m 25
 0 512 l 25
 128 512 l 25
 128 384 l 25
 0 384 l 25
384 384 m 25
 384 512 l 25
 512 512 l 25
 512 384 l 25
 384 384 l 25
0 256 m 25
 0 384 l 25
 128 384 l 25
 128 256 l 25
 0 256 l 25
384 256 m 25
 384 384 l 25
 512 384 l 25
 512 256 l 25
 384 256 l 25
0 128 m 25
 0 256 l 25
 128 256 l 25
 128 128 l 25
 0 128 l 25
256 128 m 25
 256 256 l 25
 384 256 l 25
 384 128 l 25
 256 128 l 25
128 0 m 25
 128 128 l 25
 256 128 l 25
 256 0 l 25
 128 0 l 25
EndSplineSet
EndChar

StartChar: u0x77
Encoding: 119 119 88
Width: 768
Flags: W
LayerCount: 2
Fore
SplineSet
0 512 m 25
 0 640 l 25
 128 640 l 25
 128 512 l 25
 0 512 l 25
256 512 m 25
 256 640 l 25
 384 640 l 25
 384 512 l 25
 256 512 l 25
512 512 m 25
 512 640 l 25
 640 640 l 25
 640 512 l 25
 512 512 l 25
0 384 m 25
 0 512 l 25
 128 512 l 25
 128 384 l 25
 0 384 l 25
256 384 m 25
 256 512 l 25
 384 512 l 25
 384 384 l 25
 256 384 l 25
512 384 m 25
 512 512 l 25
 640 512 l 25
 640 384 l 25
 512 384 l 25
0 256 m 25
 0 384 l 25
 128 384 l 25
 128 256 l 25
 0 256 l 25
256 256 m 25
 256 384 l 25
 384 384 l 25
 384 256 l 25
 256 256 l 25
512 256 m 25
 512 384 l 25
 640 384 l 25
 640 256 l 25
 512 256 l 25
0 128 m 25
 0 256 l 25
 128 256 l 25
 128 128 l 25
 0 128 l 25
256 128 m 25
 256 256 l 25
 384 256 l 25
 384 128 l 25
 256 128 l 25
512 128 m 25
 512 256 l 25
 640 256 l 25
 640 128 l 25
 512 128 l 25
128 0 m 25
 128 128 l 25
 256 128 l 25
 256 0 l 25
 128 0 l 25
384 0 m 25
 384 128 l 25
 512 128 l 25
 512 0 l 25
 384 0 l 25
EndSplineSet
EndChar

StartChar: u0x78
Encoding: 120 120 89
Width: 640
Flags: W
LayerCount: 2
Fore
SplineSet
0 512 m 25
 0 640 l 25
 128 640 l 25
 128 512 l 25
 0 512 l 25
384 512 m 25
 384 640 l 25
 512 640 l 25
 512 512 l 25
 384 512 l 25
0 384 m 25
 0 512 l 25
 128 512 l 25
 128 384 l 25
 0 384 l 25
384 384 m 25
 384 512 l 25
 512 512 l 25
 512 384 l 25
 384 384 l 25
128 256 m 25
 128 384 l 25
 256 384 l 25
 256 256 l 25
 128 256 l 25
256 256 m 25
 256 384 l 25
 384 384 l 25
 384 256 l 25
 256 256 l 25
0 128 m 25
 0 256 l 25
 128 256 l 25
 128 128 l 25
 0 128 l 25
384 128 m 25
 384 256 l 25
 512 256 l 25
 512 128 l 25
 384 128 l 25
0 0 m 25
 0 128 l 25
 128 128 l 25
 128 0 l 25
 0 0 l 25
384 0 m 25
 384 128 l 25
 512 128 l 25
 512 0 l 25
 384 0 l 25
EndSplineSet
EndChar

StartChar: u0x79
Encoding: 121 121 90
Width: 640
Flags: W
LayerCount: 2
Fore
SplineSet
0 512 m 25
 0 640 l 25
 128 640 l 25
 128 512 l 25
 0 512 l 25
384 512 m 25
 384 640 l 25
 512 640 l 25
 512 512 l 25
 384 512 l 25
0 384 m 25
 0 512 l 25
 128 512 l 25
 128 384 l 25
 0 384 l 25
384 384 m 25
 384 512 l 25
 512 512 l 25
 512 384 l 25
 384 384 l 25
0 256 m 25
 0 384 l 25
 128 384 l 25
 128 256 l 25
 0 256 l 25
384 256 m 25
 384 384 l 25
 512 384 l 25
 512 256 l 25
 384 256 l 25
0 128 m 25
 0 256 l 25
 128 256 l 25
 128 128 l 25
 0 128 l 25
384 128 m 25
 384 256 l 25
 512 256 l 25
 512 128 l 25
 384 128 l 25
128 0 m 25
 128 128 l 25
 256 128 l 25
 256 0 l 25
 128 0 l 25
256 0 m 25
 256 128 l 25
 384 128 l 25
 384 0 l 25
 256 0 l 25
384 0 m 25
 384 128 l 25
 512 128 l 25
 512 0 l 25
 384 0 l 25
384 -128 m 25
 384 0 l 25
 512 0 l 25
 512 -128 l 25
 384 -128 l 25
128 -256 m 25
 128 -128 l 25
 256 -128 l 25
 256 -256 l 25
 128 -256 l 25
256 -256 m 25
 256 -128 l 25
 384 -128 l 25
 384 -256 l 25
 256 -256 l 25
EndSplineSet
EndChar

StartChar: u0x7a
Encoding: 122 122 91
Width: 640
Flags: W
LayerCount: 2
Fore
SplineSet
0 512 m 25
 0 640 l 25
 128 640 l 25
 128 512 l 25
 0 512 l 25
128 512 m 25
 128 640 l 25
 256 640 l 25
 256 512 l 25
 128 512 l 25
256 512 m 25
 256 640 l 25
 384 640 l 25
 384 512 l 25
 256 512 l 25
384 512 m 25
 384 640 l 25
 512 640 l 25
 512 512 l 25
 384 512 l 25
384 384 m 25
 384 512 l 25
 512 512 l 25
 512 384 l 25
 384 384 l 25
128 256 m 25
 128 384 l 25
 256 384 l 25
 256 256 l 25
 128 256 l 25
256 256 m 25
 256 384 l 25
 384 384 l 25
 384 256 l 25
 256 256 l 25
0 128 m 25
 0 256 l 25
 128 256 l 25
 128 128 l 25
 0 128 l 25
0 0 m 25
 0 128 l 25
 128 128 l 25
 128 0 l 25
 0 0 l 25
128 0 m 25
 128 128 l 25
 256 128 l 25
 256 0 l 25
 128 0 l 25
256 0 m 25
 256 128 l 25
 384 128 l 25
 384 0 l 25
 256 0 l 25
384 0 m 25
 384 128 l 25
 512 128 l 25
 512 0 l 25
 384 0 l 25
EndSplineSet
EndChar

StartChar: u0x7b
Encoding: 123 123 92
Width: 640
Flags: W
LayerCount: 2
Fore
SplineSet
256 768 m 25
 256 896 l 25
 384 896 l 25
 384 768 l 25
 256 768 l 25
384 768 m 25
 384 896 l 25
 512 896 l 25
 512 768 l 25
 384 768 l 25
128 640 m 25
 128 768 l 25
 256 768 l 25
 256 640 l 25
 128 640 l 25
128 512 m 25
 128 640 l 25
 256 640 l 25
 256 512 l 25
 128 512 l 25
0 384 m 25
 0 512 l 25
 128 512 l 25
 128 384 l 25
 0 384 l 25
128 256 m 25
 128 384 l 25
 256 384 l 25
 256 256 l 25
 128 256 l 25
128 128 m 25
 128 256 l 25
 256 256 l 25
 256 128 l 25
 128 128 l 25
128 0 m 25
 128 128 l 25
 256 128 l 25
 256 0 l 25
 128 0 l 25
256 -128 m 25
 256 0 l 25
 384 0 l 25
 384 -128 l 25
 256 -128 l 25
384 -128 m 25
 384 0 l 25
 512 0 l 25
 512 -128 l 25
 384 -128 l 25
EndSplineSet
EndChar

StartChar: u0x7c
Encoding: 124 124 93
Width: 256
Flags: W
LayerCount: 2
Fore
SplineSet
0 768 m 25
 0 896 l 25
 128 896 l 25
 128 768 l 25
 0 768 l 25
0 640 m 25
 0 768 l 25
 128 768 l 25
 128 640 l 25
 0 640 l 25
0 512 m 25
 0 640 l 25
 128 640 l 25
 128 512 l 25
 0 512 l 25
0 384 m 25
 0 512 l 25
 128 512 l 25
 128 384 l 25
 0 384 l 25
0 256 m 25
 0 384 l 25
 128 384 l 25
 128 256 l 25
 0 256 l 25
0 128 m 25
 0 256 l 25
 128 256 l 25
 128 128 l 25
 0 128 l 25
0 0 m 25
 0 128 l 25
 128 128 l 25
 128 0 l 25
 0 0 l 25
0 -128 m 25
 0 0 l 25
 128 0 l 25
 128 -128 l 25
 0 -128 l 25
0 -256 m 25
 0 -128 l 25
 128 -128 l 25
 128 -256 l 25
 0 -256 l 25
EndSplineSet
EndChar

StartChar: u0x7d
Encoding: 125 125 94
Width: 640
Flags: W
LayerCount: 2
Fore
SplineSet
0 768 m 25
 0 896 l 25
 128 896 l 25
 128 768 l 25
 0 768 l 25
128 768 m 25
 128 896 l 25
 256 896 l 25
 256 768 l 25
 128 768 l 25
256 640 m 25
 256 768 l 25
 384 768 l 25
 384 640 l 25
 256 640 l 25
256 512 m 25
 256 640 l 25
 384 640 l 25
 384 512 l 25
 256 512 l 25
384 384 m 25
 384 512 l 25
 512 512 l 25
 512 384 l 25
 384 384 l 25
256 256 m 25
 256 384 l 25
 384 384 l 25
 384 256 l 25
 256 256 l 25
256 128 m 25
 256 256 l 25
 384 256 l 25
 384 128 l 25
 256 128 l 25
256 0 m 25
 256 128 l 25
 384 128 l 25
 384 0 l 25
 256 0 l 25
0 -128 m 25
 0 0 l 25
 128 0 l 25
 128 -128 l 25
 0 -128 l 25
128 -128 m 25
 128 0 l 25
 256 0 l 25
 256 -128 l 25
 128 -128 l 25
EndSplineSet
EndChar

StartChar: u0x7e
Encoding: 126 126 95
Width: 896
Flags: W
LayerCount: 2
Fore
SplineSet
128 384 m 25
 128 512 l 25
 256 512 l 25
 256 384 l 25
 128 384 l 25
256 384 m 25
 256 512 l 25
 384 512 l 25
 384 384 l 25
 256 384 l 25
640 384 m 25
 640 512 l 25
 768 512 l 25
 768 384 l 25
 640 384 l 25
0 256 m 25
 0 384 l 25
 128 384 l 25
 128 256 l 25
 0 256 l 25
384 256 m 25
 384 384 l 25
 512 384 l 25
 512 256 l 25
 384 256 l 25
512 256 m 25
 512 384 l 25
 640 384 l 25
 640 256 l 25
 512 256 l 25
EndSplineSet
EndChar

StartChar: u0xa1
Encoding: 161 161 96
Width: 256
Flags: W
LayerCount: 2
Fore
SplineSet
0 512 m 25
 0 640 l 25
 128 640 l 25
 128 512 l 25
 0 512 l 25
0 256 m 25
 0 384 l 25
 128 384 l 25
 128 256 l 25
 0 256 l 25
0 128 m 25
 0 256 l 25
 128 256 l 25
 128 128 l 25
 0 128 l 25
0 0 m 25
 0 128 l 25
 128 128 l 25
 128 0 l 25
 0 0 l 25
0 -128 m 25
 0 0 l 25
 128 0 l 25
 128 -128 l 25
 0 -128 l 25
0 -256 m 25
 0 -128 l 25
 128 -128 l 25
 128 -256 l 25
 0 -256 l 25
EndSplineSet
EndChar

StartChar: u0xa2
Encoding: 162 162 97
Width: 640
Flags: W
LayerCount: 2
Fore
SplineSet
256 768 m 25
 256 896 l 25
 384 896 l 25
 384 768 l 25
 256 768 l 25
128 640 m 25
 128 768 l 25
 256 768 l 25
 256 640 l 25
 128 640 l 25
256 640 m 25
 256 768 l 25
 384 768 l 25
 384 640 l 25
 256 640 l 25
384 640 m 25
 384 768 l 25
 512 768 l 25
 512 640 l 25
 384 640 l 25
0 512 m 25
 0 640 l 25
 128 640 l 25
 128 512 l 25
 0 512 l 25
256 512 m 25
 256 640 l 25
 384 640 l 25
 384 512 l 25
 256 512 l 25
0 384 m 25
 0 512 l 25
 128 512 l 25
 128 384 l 25
 0 384 l 25
256 384 m 25
 256 512 l 25
 384 512 l 25
 384 384 l 25
 256 384 l 25
0 256 m 25
 0 384 l 25
 128 384 l 25
 128 256 l 25
 0 256 l 25
256 256 m 25
 256 384 l 25
 384 384 l 25
 384 256 l 25
 256 256 l 25
128 128 m 25
 128 256 l 25
 256 256 l 25
 256 128 l 25
 128 128 l 25
256 128 m 25
 256 256 l 25
 384 256 l 25
 384 128 l 25
 256 128 l 25
384 128 m 25
 384 256 l 25
 512 256 l 25
 512 128 l 25
 384 128 l 25
256 0 m 25
 256 128 l 25
 384 128 l 25
 384 0 l 25
 256 0 l 25
EndSplineSet
EndChar

StartChar: u0xa3
Encoding: 163 163 98
Width: 768
Flags: W
LayerCount: 2
Fore
SplineSet
256 768 m 25
 256 896 l 25
 384 896 l 25
 384 768 l 25
 256 768 l 25
384 768 m 25
 384 896 l 25
 512 896 l 25
 512 768 l 25
 384 768 l 25
128 640 m 25
 128 768 l 25
 256 768 l 25
 256 640 l 25
 128 640 l 25
128 512 m 25
 128 640 l 25
 256 640 l 25
 256 512 l 25
 128 512 l 25
0 384 m 25
 0 512 l 25
 128 512 l 25
 128 384 l 25
 0 384 l 25
128 384 m 25
 128 512 l 25
 256 512 l 25
 256 384 l 25
 128 384 l 25
256 384 m 25
 256 512 l 25
 384 512 l 25
 384 384 l 25
 256 384 l 25
128 256 m 25
 128 384 l 25
 256 384 l 25
 256 256 l 25
 128 256 l 25
128 128 m 25
 128 256 l 25
 256 256 l 25
 256 128 l 25
 128 128 l 25
0 0 m 25
 0 128 l 25
 128 128 l 25
 128 0 l 25
 0 0 l 25
128 0 m 25
 128 128 l 25
 256 128 l 25
 256 0 l 25
 128 0 l 25
256 0 m 25
 256 128 l 25
 384 128 l 25
 384 0 l 25
 256 0 l 25
384 0 m 25
 384 128 l 25
 512 128 l 25
 512 0 l 25
 384 0 l 25
512 0 m 25
 512 128 l 25
 640 128 l 25
 640 0 l 25
 512 0 l 25
EndSplineSet
EndChar

StartChar: u0xa4
Encoding: 164 164 99
Width: 768
Flags: W
LayerCount: 2
Fore
SplineSet
0 640 m 25
 0 768 l 25
 128 768 l 25
 128 640 l 25
 0 640 l 25
512 640 m 25
 512 768 l 25
 640 768 l 25
 640 640 l 25
 512 640 l 25
128 512 m 25
 128 640 l 25
 256 640 l 25
 256 512 l 25
 128 512 l 25
256 512 m 25
 256 640 l 25
 384 640 l 25
 384 512 l 25
 256 512 l 25
384 512 m 25
 384 640 l 25
 512 640 l 25
 512 512 l 25
 384 512 l 25
128 384 m 25
 128 512 l 25
 256 512 l 25
 256 384 l 25
 128 384 l 25
384 384 m 25
 384 512 l 25
 512 512 l 25
 512 384 l 25
 384 384 l 25
128 256 m 25
 128 384 l 25
 256 384 l 25
 256 256 l 25
 128 256 l 25
256 256 m 25
 256 384 l 25
 384 384 l 25
 384 256 l 25
 256 256 l 25
384 256 m 25
 384 384 l 25
 512 384 l 25
 512 256 l 25
 384 256 l 25
0 128 m 25
 0 256 l 25
 128 256 l 25
 128 128 l 25
 0 128 l 25
512 128 m 25
 512 256 l 25
 640 256 l 25
 640 128 l 25
 512 128 l 25
EndSplineSet
EndChar

StartChar: u0xa5
Encoding: 165 165 100
Width: 768
Flags: W
LayerCount: 2
Fore
SplineSet
0 768 m 25
 0 896 l 25
 128 896 l 25
 128 768 l 25
 0 768 l 25
512 768 m 25
 512 896 l 25
 640 896 l 25
 640 768 l 25
 512 768 l 25
0 640 m 25
 0 768 l 25
 128 768 l 25
 128 640 l 25
 0 640 l 25
512 640 m 25
 512 768 l 25
 640 768 l 25
 640 640 l 25
 512 640 l 25
128 512 m 25
 128 640 l 25
 256 640 l 25
 256 512 l 25
 128 512 l 25
384 512 m 25
 384 640 l 25
 512 640 l 25
 512 512 l 25
 384 512 l 25
256 384 m 25
 256 512 l 25
 384 512 l 25
 384 384 l 25
 256 384 l 25
0 256 m 25
 0 384 l 25
 128 384 l 25
 128 256 l 25
 0 256 l 25
128 256 m 25
 128 384 l 25
 256 384 l 25
 256 256 l 25
 128 256 l 25
256 256 m 25
 256 384 l 25
 384 384 l 25
 384 256 l 25
 256 256 l 25
384 256 m 25
 384 384 l 25
 512 384 l 25
 512 256 l 25
 384 256 l 25
512 256 m 25
 512 384 l 25
 640 384 l 25
 640 256 l 25
 512 256 l 25
256 128 m 25
 256 256 l 25
 384 256 l 25
 384 128 l 25
 256 128 l 25
256 0 m 25
 256 128 l 25
 384 128 l 25
 384 0 l 25
 256 0 l 25
EndSplineSet
EndChar

StartChar: u0xa6
Encoding: 166 166 101
Width: 256
Flags: W
LayerCount: 2
Fore
SplineSet
0 768 m 25
 0 896 l 25
 128 896 l 25
 128 768 l 25
 0 768 l 25
0 640 m 25
 0 768 l 25
 128 768 l 25
 128 640 l 25
 0 640 l 25
0 512 m 25
 0 640 l 25
 128 640 l 25
 128 512 l 25
 0 512 l 25
0 384 m 25
 0 512 l 25
 128 512 l 25
 128 384 l 25
 0 384 l 25
0 128 m 25
 0 256 l 25
 128 256 l 25
 128 128 l 25
 0 128 l 25
0 0 m 25
 0 128 l 25
 128 128 l 25
 128 0 l 25
 0 0 l 25
0 -128 m 25
 0 0 l 25
 128 0 l 25
 128 -128 l 25
 0 -128 l 25
0 -256 m 25
 0 -128 l 25
 128 -128 l 25
 128 -256 l 25
 0 -256 l 25
EndSplineSet
EndChar

StartChar: u0xa7
Encoding: 167 167 102
Width: 640
Flags: W
LayerCount: 2
Fore
SplineSet
128 768 m 25
 128 896 l 25
 256 896 l 25
 256 768 l 25
 128 768 l 25
256 768 m 25
 256 896 l 25
 384 896 l 25
 384 768 l 25
 256 768 l 25
384 768 m 25
 384 896 l 25
 512 896 l 25
 512 768 l 25
 384 768 l 25
0 640 m 25
 0 768 l 25
 128 768 l 25
 128 640 l 25
 0 640 l 25
128 512 m 25
 128 640 l 25
 256 640 l 25
 256 512 l 25
 128 512 l 25
256 512 m 25
 256 640 l 25
 384 640 l 25
 384 512 l 25
 256 512 l 25
0 384 m 25
 0 512 l 25
 128 512 l 25
 128 384 l 25
 0 384 l 25
384 384 m 25
 384 512 l 25
 512 512 l 25
 512 384 l 25
 384 384 l 25
128 256 m 25
 128 384 l 25
 256 384 l 25
 256 256 l 25
 128 256 l 25
256 256 m 25
 256 384 l 25
 384 384 l 25
 384 256 l 25
 256 256 l 25
384 128 m 25
 384 256 l 25
 512 256 l 25
 512 128 l 25
 384 128 l 25
0 0 m 25
 0 128 l 25
 128 128 l 25
 128 0 l 25
 0 0 l 25
128 0 m 25
 128 128 l 25
 256 128 l 25
 256 0 l 25
 128 0 l 25
256 0 m 25
 256 128 l 25
 384 128 l 25
 384 0 l 25
 256 0 l 25
EndSplineSet
EndChar

StartChar: u0xa8
Encoding: 168 168 103
Width: 512
Flags: W
LayerCount: 2
Fore
SplineSet
0 768 m 25
 0 896 l 25
 128 896 l 25
 128 768 l 25
 0 768 l 25
256 768 m 25
 256 896 l 25
 384 896 l 25
 384 768 l 25
 256 768 l 25
EndSplineSet
EndChar

StartChar: u0xa9
Encoding: 169 169 104
Width: 1024
Flags: W
LayerCount: 2
Fore
SplineSet
256 768 m 25
 256 896 l 25
 384 896 l 25
 384 768 l 25
 256 768 l 25
384 768 m 25
 384 896 l 25
 512 896 l 25
 512 768 l 25
 384 768 l 25
512 768 m 25
 512 896 l 25
 640 896 l 25
 640 768 l 25
 512 768 l 25
128 640 m 25
 128 768 l 25
 256 768 l 25
 256 640 l 25
 128 640 l 25
640 640 m 25
 640 768 l 25
 768 768 l 25
 768 640 l 25
 640 640 l 25
0 512 m 25
 0 640 l 25
 128 640 l 25
 128 512 l 25
 0 512 l 25
256 512 m 25
 256 640 l 25
 384 640 l 25
 384 512 l 25
 256 512 l 25
384 512 m 25
 384 640 l 25
 512 640 l 25
 512 512 l 25
 384 512 l 25
512 512 m 25
 512 640 l 25
 640 640 l 25
 640 512 l 25
 512 512 l 25
768 512 m 25
 768 640 l 25
 896 640 l 25
 896 512 l 25
 768 512 l 25
0 384 m 25
 0 512 l 25
 128 512 l 25
 128 384 l 25
 0 384 l 25
256 384 m 25
 256 512 l 25
 384 512 l 25
 384 384 l 25
 256 384 l 25
768 384 m 25
 768 512 l 25
 896 512 l 25
 896 384 l 25
 768 384 l 25
0 256 m 25
 0 384 l 25
 128 384 l 25
 128 256 l 25
 0 256 l 25
256 256 m 25
 256 384 l 25
 384 384 l 25
 384 256 l 25
 256 256 l 25
384 256 m 25
 384 384 l 25
 512 384 l 25
 512 256 l 25
 384 256 l 25
512 256 m 25
 512 384 l 25
 640 384 l 25
 640 256 l 25
 512 256 l 25
768 256 m 25
 768 384 l 25
 896 384 l 25
 896 256 l 25
 768 256 l 25
128 128 m 25
 128 256 l 25
 256 256 l 25
 256 128 l 25
 128 128 l 25
640 128 m 25
 640 256 l 25
 768 256 l 25
 768 128 l 25
 640 128 l 25
256 0 m 25
 256 128 l 25
 384 128 l 25
 384 0 l 25
 256 0 l 25
384 0 m 25
 384 128 l 25
 512 128 l 25
 512 0 l 25
 384 0 l 25
512 0 m 25
 512 128 l 25
 640 128 l 25
 640 0 l 25
 512 0 l 25
EndSplineSet
EndChar

StartChar: u0xaa
Encoding: 170 170 105
Width: 512
Flags: W
LayerCount: 2
Fore
SplineSet
0 768 m 25
 0 896 l 25
 128 896 l 25
 128 768 l 25
 0 768 l 25
128 768 m 25
 128 896 l 25
 256 896 l 25
 256 768 l 25
 128 768 l 25
256 640 m 25
 256 768 l 25
 384 768 l 25
 384 640 l 25
 256 640 l 25
0 512 m 25
 0 640 l 25
 128 640 l 25
 128 512 l 25
 0 512 l 25
256 512 m 25
 256 640 l 25
 384 640 l 25
 384 512 l 25
 256 512 l 25
0 384 m 25
 0 512 l 25
 128 512 l 25
 128 384 l 25
 0 384 l 25
128 384 m 25
 128 512 l 25
 256 512 l 25
 256 384 l 25
 128 384 l 25
256 384 m 25
 256 512 l 25
 384 512 l 25
 384 384 l 25
 256 384 l 25
0 128 m 25
 0 256 l 25
 128 256 l 25
 128 128 l 25
 0 128 l 25
128 128 m 25
 128 256 l 25
 256 256 l 25
 256 128 l 25
 128 128 l 25
256 128 m 25
 256 256 l 25
 384 256 l 25
 384 128 l 25
 256 128 l 25
EndSplineSet
EndChar

StartChar: u0xab
Encoding: 171 171 106
Width: 640
Flags: W
LayerCount: 2
Fore
SplineSet
128 384 m 25
 128 512 l 25
 256 512 l 25
 256 384 l 25
 128 384 l 25
384 384 m 25
 384 512 l 25
 512 512 l 25
 512 384 l 25
 384 384 l 25
0 256 m 25
 0 384 l 25
 128 384 l 25
 128 256 l 25
 0 256 l 25
256 256 m 25
 256 384 l 25
 384 384 l 25
 384 256 l 25
 256 256 l 25
128 128 m 25
 128 256 l 25
 256 256 l 25
 256 128 l 25
 128 128 l 25
384 128 m 25
 384 256 l 25
 512 256 l 25
 512 128 l 25
 384 128 l 25
EndSplineSet
EndChar

StartChar: u0xac
Encoding: 172 172 107
Width: 640
Flags: W
LayerCount: 2
Fore
SplineSet
0 384 m 25
 0 512 l 25
 128 512 l 25
 128 384 l 25
 0 384 l 25
128 384 m 25
 128 512 l 25
 256 512 l 25
 256 384 l 25
 128 384 l 25
256 384 m 25
 256 512 l 25
 384 512 l 25
 384 384 l 25
 256 384 l 25
384 384 m 25
 384 512 l 25
 512 512 l 25
 512 384 l 25
 384 384 l 25
384 256 m 25
 384 384 l 25
 512 384 l 25
 512 256 l 25
 384 256 l 25
EndSplineSet
EndChar

StartChar: u0xae
Encoding: 174 174 108
Width: 1024
Flags: W
LayerCount: 2
Fore
SplineSet
256 768 m 25
 256 896 l 25
 384 896 l 25
 384 768 l 25
 256 768 l 25
384 768 m 25
 384 896 l 25
 512 896 l 25
 512 768 l 25
 384 768 l 25
512 768 m 25
 512 896 l 25
 640 896 l 25
 640 768 l 25
 512 768 l 25
128 640 m 25
 128 768 l 25
 256 768 l 25
 256 640 l 25
 128 640 l 25
640 640 m 25
 640 768 l 25
 768 768 l 25
 768 640 l 25
 640 640 l 25
0 512 m 25
 0 640 l 25
 128 640 l 25
 128 512 l 25
 0 512 l 25
256 512 m 25
 256 640 l 25
 384 640 l 25
 384 512 l 25
 256 512 l 25
384 512 m 25
 384 640 l 25
 512 640 l 25
 512 512 l 25
 384 512 l 25
512 512 m 25
 512 640 l 25
 640 640 l 25
 640 512 l 25
 512 512 l 25
768 512 m 25
 768 640 l 25
 896 640 l 25
 896 512 l 25
 768 512 l 25
0 384 m 25
 0 512 l 25
 128 512 l 25
 128 384 l 25
 0 384 l 25
256 384 m 25
 256 512 l 25
 384 512 l 25
 384 384 l 25
 256 384 l 25
384 384 m 25
 384 512 l 25
 512 512 l 25
 512 384 l 25
 384 384 l 25
768 384 m 25
 768 512 l 25
 896 512 l 25
 896 384 l 25
 768 384 l 25
0 256 m 25
 0 384 l 25
 128 384 l 25
 128 256 l 25
 0 256 l 25
256 256 m 25
 256 384 l 25
 384 384 l 25
 384 256 l 25
 256 256 l 25
512 256 m 25
 512 384 l 25
 640 384 l 25
 640 256 l 25
 512 256 l 25
768 256 m 25
 768 384 l 25
 896 384 l 25
 896 256 l 25
 768 256 l 25
128 128 m 25
 128 256 l 25
 256 256 l 25
 256 128 l 25
 128 128 l 25
640 128 m 25
 640 256 l 25
 768 256 l 25
 768 128 l 25
 640 128 l 25
256 0 m 25
 256 128 l 25
 384 128 l 25
 384 0 l 25
 256 0 l 25
384 0 m 25
 384 128 l 25
 512 128 l 25
 512 0 l 25
 384 0 l 25
512 0 m 25
 512 128 l 25
 640 128 l 25
 640 0 l 25
 512 0 l 25
EndSplineSet
EndChar

StartChar: u0xaf
Encoding: 175 175 109
Width: 640
Flags: W
LayerCount: 2
Fore
SplineSet
0 768 m 25
 0 896 l 25
 128 896 l 25
 128 768 l 25
 0 768 l 25
128 768 m 25
 128 896 l 25
 256 896 l 25
 256 768 l 25
 128 768 l 25
256 768 m 25
 256 896 l 25
 384 896 l 25
 384 768 l 25
 256 768 l 25
384 768 m 25
 384 896 l 25
 512 896 l 25
 512 768 l 25
 384 768 l 25
EndSplineSet
EndChar

StartChar: u0xb0
Encoding: 176 176 110
Width: 512
Flags: W
LayerCount: 2
Fore
SplineSet
128 768 m 25
 128 896 l 25
 256 896 l 25
 256 768 l 25
 128 768 l 25
0 640 m 25
 0 768 l 25
 128 768 l 25
 128 640 l 25
 0 640 l 25
256 640 m 25
 256 768 l 25
 384 768 l 25
 384 640 l 25
 256 640 l 25
128 512 m 25
 128 640 l 25
 256 640 l 25
 256 512 l 25
 128 512 l 25
EndSplineSet
EndChar

StartChar: u0xb1
Encoding: 177 177 111
Width: 768
Flags: W
LayerCount: 2
Fore
SplineSet
256 768 m 25
 256 896 l 25
 384 896 l 25
 384 768 l 25
 256 768 l 25
256 640 m 25
 256 768 l 25
 384 768 l 25
 384 640 l 25
 256 640 l 25
0 512 m 25
 0 640 l 25
 128 640 l 25
 128 512 l 25
 0 512 l 25
128 512 m 25
 128 640 l 25
 256 640 l 25
 256 512 l 25
 128 512 l 25
256 512 m 25
 256 640 l 25
 384 640 l 25
 384 512 l 25
 256 512 l 25
384 512 m 25
 384 640 l 25
 512 640 l 25
 512 512 l 25
 384 512 l 25
512 512 m 25
 512 640 l 25
 640 640 l 25
 640 512 l 25
 512 512 l 25
256 384 m 25
 256 512 l 25
 384 512 l 25
 384 384 l 25
 256 384 l 25
256 256 m 25
 256 384 l 25
 384 384 l 25
 384 256 l 25
 256 256 l 25
0 0 m 25
 0 128 l 25
 128 128 l 25
 128 0 l 25
 0 0 l 25
128 0 m 25
 128 128 l 25
 256 128 l 25
 256 0 l 25
 128 0 l 25
256 0 m 25
 256 128 l 25
 384 128 l 25
 384 0 l 25
 256 0 l 25
384 0 m 25
 384 128 l 25
 512 128 l 25
 512 0 l 25
 384 0 l 25
512 0 m 25
 512 128 l 25
 640 128 l 25
 640 0 l 25
 512 0 l 25
EndSplineSet
EndChar

StartChar: u0xb2
Encoding: 178 178 112
Width: 512
Flags: W
LayerCount: 2
Fore
SplineSet
0 768 m 25
 0 896 l 25
 128 896 l 25
 128 768 l 25
 0 768 l 25
128 768 m 25
 128 896 l 25
 256 896 l 25
 256 768 l 25
 128 768 l 25
256 640 m 25
 256 768 l 25
 384 768 l 25
 384 640 l 25
 256 640 l 25
0 512 m 25
 0 640 l 25
 128 640 l 25
 128 512 l 25
 0 512 l 25
0 384 m 25
 0 512 l 25
 128 512 l 25
 128 384 l 25
 0 384 l 25
128 384 m 25
 128 512 l 25
 256 512 l 25
 256 384 l 25
 128 384 l 25
256 384 m 25
 256 512 l 25
 384 512 l 25
 384 384 l 25
 256 384 l 25
EndSplineSet
EndChar

StartChar: u0xb3
Encoding: 179 179 113
Width: 512
Flags: W
LayerCount: 2
Fore
SplineSet
0 768 m 25
 0 896 l 25
 128 896 l 25
 128 768 l 25
 0 768 l 25
128 768 m 25
 128 896 l 25
 256 896 l 25
 256 768 l 25
 128 768 l 25
256 640 m 25
 256 768 l 25
 384 768 l 25
 384 640 l 25
 256 640 l 25
128 512 m 25
 128 640 l 25
 256 640 l 25
 256 512 l 25
 128 512 l 25
256 512 m 25
 256 640 l 25
 384 640 l 25
 384 512 l 25
 256 512 l 25
0 384 m 25
 0 512 l 25
 128 512 l 25
 128 384 l 25
 0 384 l 25
128 384 m 25
 128 512 l 25
 256 512 l 25
 256 384 l 25
 128 384 l 25
256 384 m 25
 256 512 l 25
 384 512 l 25
 384 384 l 25
 256 384 l 25
EndSplineSet
EndChar

StartChar: u0xb4
Encoding: 180 180 114
Width: 384
Flags: W
LayerCount: 2
Fore
SplineSet
128 768 m 25
 128 896 l 25
 256 896 l 25
 256 768 l 25
 128 768 l 25
0 640 m 25
 0 768 l 25
 128 768 l 25
 128 640 l 25
 0 640 l 25
EndSplineSet
EndChar

StartChar: u0xb5
Encoding: 181 181 115
Width: 768
Flags: W
LayerCount: 2
Fore
SplineSet
0 512 m 25
 0 640 l 25
 128 640 l 25
 128 512 l 25
 0 512 l 25
384 512 m 25
 384 640 l 25
 512 640 l 25
 512 512 l 25
 384 512 l 25
0 384 m 25
 0 512 l 25
 128 512 l 25
 128 384 l 25
 0 384 l 25
384 384 m 25
 384 512 l 25
 512 512 l 25
 512 384 l 25
 384 384 l 25
0 256 m 25
 0 384 l 25
 128 384 l 25
 128 256 l 25
 0 256 l 25
384 256 m 25
 384 384 l 25
 512 384 l 25
 512 256 l 25
 384 256 l 25
0 128 m 25
 0 256 l 25
 128 256 l 25
 128 128 l 25
 0 128 l 25
384 128 m 25
 384 256 l 25
 512 256 l 25
 512 128 l 25
 384 128 l 25
0 0 m 25
 0 128 l 25
 128 128 l 25
 128 0 l 25
 0 0 l 25
128 0 m 25
 128 128 l 25
 256 128 l 25
 256 0 l 25
 128 0 l 25
256 0 m 25
 256 128 l 25
 384 128 l 25
 384 0 l 25
 256 0 l 25
512 0 m 25
 512 128 l 25
 640 128 l 25
 640 0 l 25
 512 0 l 25
0 -128 m 25
 0 0 l 25
 128 0 l 25
 128 -128 l 25
 0 -128 l 25
0 -256 m 25
 0 -128 l 25
 128 -128 l 25
 128 -256 l 25
 0 -256 l 25
EndSplineSet
EndChar

StartChar: u0xb6
Encoding: 182 182 116
Width: 768
Flags: W
LayerCount: 2
Fore
SplineSet
128 768 m 25
 128 896 l 25
 256 896 l 25
 256 768 l 25
 128 768 l 25
256 768 m 25
 256 896 l 25
 384 896 l 25
 384 768 l 25
 256 768 l 25
384 768 m 25
 384 896 l 25
 512 896 l 25
 512 768 l 25
 384 768 l 25
512 768 m 25
 512 896 l 25
 640 896 l 25
 640 768 l 25
 512 768 l 25
0 640 m 25
 0 768 l 25
 128 768 l 25
 128 640 l 25
 0 640 l 25
128 640 m 25
 128 768 l 25
 256 768 l 25
 256 640 l 25
 128 640 l 25
256 640 m 25
 256 768 l 25
 384 768 l 25
 384 640 l 25
 256 640 l 25
512 640 m 25
 512 768 l 25
 640 768 l 25
 640 640 l 25
 512 640 l 25
0 512 m 25
 0 640 l 25
 128 640 l 25
 128 512 l 25
 0 512 l 25
128 512 m 25
 128 640 l 25
 256 640 l 25
 256 512 l 25
 128 512 l 25
256 512 m 25
 256 640 l 25
 384 640 l 25
 384 512 l 25
 256 512 l 25
512 512 m 25
 512 640 l 25
 640 640 l 25
 640 512 l 25
 512 512 l 25
128 384 m 25
 128 512 l 25
 256 512 l 25
 256 384 l 25
 128 384 l 25
256 384 m 25
 256 512 l 25
 384 512 l 25
 384 384 l 25
 256 384 l 25
512 384 m 25
 512 512 l 25
 640 512 l 25
 640 384 l 25
 512 384 l 25
256 256 m 25
 256 384 l 25
 384 384 l 25
 384 256 l 25
 256 256 l 25
512 256 m 25
 512 384 l 25
 640 384 l 25
 640 256 l 25
 512 256 l 25
256 128 m 25
 256 256 l 25
 384 256 l 25
 384 128 l 25
 256 128 l 25
512 128 m 25
 512 256 l 25
 640 256 l 25
 640 128 l 25
 512 128 l 25
256 0 m 25
 256 128 l 25
 384 128 l 25
 384 0 l 25
 256 0 l 25
512 0 m 25
 512 128 l 25
 640 128 l 25
 640 0 l 25
 512 0 l 25
EndSplineSet
EndChar

StartChar: u0xb7
Encoding: 183 183 117
Width: 256
Flags: W
LayerCount: 2
Fore
SplineSet
0 256 m 25
 0 384 l 25
 128 384 l 25
 128 256 l 25
 0 256 l 25
EndSplineSet
EndChar

StartChar: u0xb8
Encoding: 184 184 118
Width: 384
Flags: W
LayerCount: 2
Fore
SplineSet
0 0 m 25
 0 128 l 25
 128 128 l 25
 128 0 l 25
 0 0 l 25
128 -128 m 25
 128 0 l 25
 256 0 l 25
 256 -128 l 25
 128 -128 l 25
0 -256 m 25
 0 -128 l 25
 128 -128 l 25
 128 -256 l 25
 0 -256 l 25
EndSplineSet
EndChar

StartChar: u0xb9
Encoding: 185 185 119
Width: 384
Flags: W
LayerCount: 2
Fore
SplineSet
0 768 m 25
 0 896 l 25
 128 896 l 25
 128 768 l 25
 0 768 l 25
128 768 m 25
 128 896 l 25
 256 896 l 25
 256 768 l 25
 128 768 l 25
128 640 m 25
 128 768 l 25
 256 768 l 25
 256 640 l 25
 128 640 l 25
128 512 m 25
 128 640 l 25
 256 640 l 25
 256 512 l 25
 128 512 l 25
128 384 m 25
 128 512 l 25
 256 512 l 25
 256 384 l 25
 128 384 l 25
EndSplineSet
EndChar

StartChar: u0xba
Encoding: 186 186 120
Width: 512
Flags: W
LayerCount: 2
Fore
SplineSet
128 768 m 25
 128 896 l 25
 256 896 l 25
 256 768 l 25
 128 768 l 25
0 640 m 25
 0 768 l 25
 128 768 l 25
 128 640 l 25
 0 640 l 25
256 640 m 25
 256 768 l 25
 384 768 l 25
 384 640 l 25
 256 640 l 25
0 512 m 25
 0 640 l 25
 128 640 l 25
 128 512 l 25
 0 512 l 25
256 512 m 25
 256 640 l 25
 384 640 l 25
 384 512 l 25
 256 512 l 25
128 384 m 25
 128 512 l 25
 256 512 l 25
 256 384 l 25
 128 384 l 25
0 128 m 25
 0 256 l 25
 128 256 l 25
 128 128 l 25
 0 128 l 25
128 128 m 25
 128 256 l 25
 256 256 l 25
 256 128 l 25
 128 128 l 25
256 128 m 25
 256 256 l 25
 384 256 l 25
 384 128 l 25
 256 128 l 25
EndSplineSet
EndChar

StartChar: u0xbb
Encoding: 187 187 121
Width: 640
Flags: W
LayerCount: 2
Fore
SplineSet
0 384 m 25
 0 512 l 25
 128 512 l 25
 128 384 l 25
 0 384 l 25
256 384 m 25
 256 512 l 25
 384 512 l 25
 384 384 l 25
 256 384 l 25
128 256 m 25
 128 384 l 25
 256 384 l 25
 256 256 l 25
 128 256 l 25
384 256 m 25
 384 384 l 25
 512 384 l 25
 512 256 l 25
 384 256 l 25
0 128 m 25
 0 256 l 25
 128 256 l 25
 128 128 l 25
 0 128 l 25
256 128 m 25
 256 256 l 25
 384 256 l 25
 384 128 l 25
 256 128 l 25
EndSplineSet
EndChar

StartChar: u0xbc
Encoding: 188 188 122
Width: 1024
Flags: W
LayerCount: 2
Fore
SplineSet
128 768 m 25
 128 896 l 25
 256 896 l 25
 256 768 l 25
 128 768 l 25
768 768 m 25
 768 896 l 25
 896 896 l 25
 896 768 l 25
 768 768 l 25
128 640 m 25
 128 768 l 25
 256 768 l 25
 256 640 l 25
 128 640 l 25
640 640 m 25
 640 768 l 25
 768 768 l 25
 768 640 l 25
 640 640 l 25
128 512 m 25
 128 640 l 25
 256 640 l 25
 256 512 l 25
 128 512 l 25
512 512 m 25
 512 640 l 25
 640 640 l 25
 640 512 l 25
 512 512 l 25
384 384 m 25
 384 512 l 25
 512 512 l 25
 512 384 l 25
 384 384 l 25
256 256 m 25
 256 384 l 25
 384 384 l 25
 384 256 l 25
 256 256 l 25
512 256 m 25
 512 384 l 25
 640 384 l 25
 640 256 l 25
 512 256 l 25
768 256 m 25
 768 384 l 25
 896 384 l 25
 896 256 l 25
 768 256 l 25
128 128 m 25
 128 256 l 25
 256 256 l 25
 256 128 l 25
 128 128 l 25
512 128 m 25
 512 256 l 25
 640 256 l 25
 640 128 l 25
 512 128 l 25
640 128 m 25
 640 256 l 25
 768 256 l 25
 768 128 l 25
 640 128 l 25
768 128 m 25
 768 256 l 25
 896 256 l 25
 896 128 l 25
 768 128 l 25
0 0 m 25
 0 128 l 25
 128 128 l 25
 128 0 l 25
 0 0 l 25
768 0 m 25
 768 128 l 25
 896 128 l 25
 896 0 l 25
 768 0 l 25
EndSplineSet
EndChar

StartChar: u0xbd
Encoding: 189 189 123
Width: 1024
Flags: W
LayerCount: 2
Fore
SplineSet
128 768 m 25
 128 896 l 25
 256 896 l 25
 256 768 l 25
 128 768 l 25
768 768 m 25
 768 896 l 25
 896 896 l 25
 896 768 l 25
 768 768 l 25
128 640 m 25
 128 768 l 25
 256 768 l 25
 256 640 l 25
 128 640 l 25
640 640 m 25
 640 768 l 25
 768 768 l 25
 768 640 l 25
 640 640 l 25
128 512 m 25
 128 640 l 25
 256 640 l 25
 256 512 l 25
 128 512 l 25
512 512 m 25
 512 640 l 25
 640 640 l 25
 640 512 l 25
 512 512 l 25
384 384 m 25
 384 512 l 25
 512 512 l 25
 512 384 l 25
 384 384 l 25
512 384 m 25
 512 512 l 25
 640 512 l 25
 640 384 l 25
 512 384 l 25
640 384 m 25
 640 512 l 25
 768 512 l 25
 768 384 l 25
 640 384 l 25
768 384 m 25
 768 512 l 25
 896 512 l 25
 896 384 l 25
 768 384 l 25
256 256 m 25
 256 384 l 25
 384 384 l 25
 384 256 l 25
 256 256 l 25
768 256 m 25
 768 384 l 25
 896 384 l 25
 896 256 l 25
 768 256 l 25
128 128 m 25
 128 256 l 25
 256 256 l 25
 256 128 l 25
 128 128 l 25
512 128 m 25
 512 256 l 25
 640 256 l 25
 640 128 l 25
 512 128 l 25
0 0 m 25
 0 128 l 25
 128 128 l 25
 128 0 l 25
 0 0 l 25
512 0 m 25
 512 128 l 25
 640 128 l 25
 640 0 l 25
 512 0 l 25
640 0 m 25
 640 128 l 25
 768 128 l 25
 768 0 l 25
 640 0 l 25
768 0 m 25
 768 128 l 25
 896 128 l 25
 896 0 l 25
 768 0 l 25
EndSplineSet
EndChar

StartChar: u0xbe
Encoding: 190 190 124
Width: 1024
Flags: W
LayerCount: 2
Fore
SplineSet
0 768 m 25
 0 896 l 25
 128 896 l 25
 128 768 l 25
 0 768 l 25
128 768 m 25
 128 896 l 25
 256 896 l 25
 256 768 l 25
 128 768 l 25
256 768 m 25
 256 896 l 25
 384 896 l 25
 384 768 l 25
 256 768 l 25
768 768 m 25
 768 896 l 25
 896 896 l 25
 896 768 l 25
 768 768 l 25
128 640 m 25
 128 768 l 25
 256 768 l 25
 256 640 l 25
 128 640 l 25
256 640 m 25
 256 768 l 25
 384 768 l 25
 384 640 l 25
 256 640 l 25
640 640 m 25
 640 768 l 25
 768 768 l 25
 768 640 l 25
 640 640 l 25
0 512 m 25
 0 640 l 25
 128 640 l 25
 128 512 l 25
 0 512 l 25
128 512 m 25
 128 640 l 25
 256 640 l 25
 256 512 l 25
 128 512 l 25
256 512 m 25
 256 640 l 25
 384 640 l 25
 384 512 l 25
 256 512 l 25
512 512 m 25
 512 640 l 25
 640 640 l 25
 640 512 l 25
 512 512 l 25
384 384 m 25
 384 512 l 25
 512 512 l 25
 512 384 l 25
 384 384 l 25
256 256 m 25
 256 384 l 25
 384 384 l 25
 384 256 l 25
 256 256 l 25
512 256 m 25
 512 384 l 25
 640 384 l 25
 640 256 l 25
 512 256 l 25
768 256 m 25
 768 384 l 25
 896 384 l 25
 896 256 l 25
 768 256 l 25
128 128 m 25
 128 256 l 25
 256 256 l 25
 256 128 l 25
 128 128 l 25
512 128 m 25
 512 256 l 25
 640 256 l 25
 640 128 l 25
 512 128 l 25
640 128 m 25
 640 256 l 25
 768 256 l 25
 768 128 l 25
 640 128 l 25
768 128 m 25
 768 256 l 25
 896 256 l 25
 896 128 l 25
 768 128 l 25
0 0 m 25
 0 128 l 25
 128 128 l 25
 128 0 l 25
 0 0 l 25
768 0 m 25
 768 128 l 25
 896 128 l 25
 896 0 l 25
 768 0 l 25
EndSplineSet
EndChar

StartChar: u0xbf
Encoding: 191 191 125
Width: 768
Flags: W
LayerCount: 2
Fore
SplineSet
256 512 m 25
 256 640 l 25
 384 640 l 25
 384 512 l 25
 256 512 l 25
256 256 m 25
 256 384 l 25
 384 384 l 25
 384 256 l 25
 256 256 l 25
128 128 m 25
 128 256 l 25
 256 256 l 25
 256 128 l 25
 128 128 l 25
0 0 m 25
 0 128 l 25
 128 128 l 25
 128 0 l 25
 0 0 l 25
0 -128 m 25
 0 0 l 25
 128 0 l 25
 128 -128 l 25
 0 -128 l 25
512 -128 m 25
 512 0 l 25
 640 0 l 25
 640 -128 l 25
 512 -128 l 25
128 -256 m 25
 128 -128 l 25
 256 -128 l 25
 256 -256 l 25
 128 -256 l 25
256 -256 m 25
 256 -128 l 25
 384 -128 l 25
 384 -256 l 25
 256 -256 l 25
384 -256 m 25
 384 -128 l 25
 512 -128 l 25
 512 -256 l 25
 384 -256 l 25
EndSplineSet
EndChar

StartChar: u0xc0
Encoding: 192 192 126
Width: 768
Flags: W
LayerCount: 2
Fore
SplineSet
128 1152 m 25
 128 1280 l 25
 256 1280 l 25
 256 1152 l 25
 128 1152 l 25
256 1024 m 25
 256 1152 l 25
 384 1152 l 25
 384 1024 l 25
 256 1024 l 25
256 768 m 25
 256 896 l 25
 384 896 l 25
 384 768 l 25
 256 768 l 25
128 640 m 25
 128 768 l 25
 256 768 l 25
 256 640 l 25
 128 640 l 25
384 640 m 25
 384 768 l 25
 512 768 l 25
 512 640 l 25
 384 640 l 25
128 512 m 25
 128 640 l 25
 256 640 l 25
 256 512 l 25
 128 512 l 25
384 512 m 25
 384 640 l 25
 512 640 l 25
 512 512 l 25
 384 512 l 25
0 384 m 25
 0 512 l 25
 128 512 l 25
 128 384 l 25
 0 384 l 25
512 384 m 25
 512 512 l 25
 640 512 l 25
 640 384 l 25
 512 384 l 25
0 256 m 25
 0 384 l 25
 128 384 l 25
 128 256 l 25
 0 256 l 25
128 256 m 25
 128 384 l 25
 256 384 l 25
 256 256 l 25
 128 256 l 25
256 256 m 25
 256 384 l 25
 384 384 l 25
 384 256 l 25
 256 256 l 25
384 256 m 25
 384 384 l 25
 512 384 l 25
 512 256 l 25
 384 256 l 25
512 256 m 25
 512 384 l 25
 640 384 l 25
 640 256 l 25
 512 256 l 25
0 128 m 25
 0 256 l 25
 128 256 l 25
 128 128 l 25
 0 128 l 25
512 128 m 25
 512 256 l 25
 640 256 l 25
 640 128 l 25
 512 128 l 25
0 0 m 25
 0 128 l 25
 128 128 l 25
 128 0 l 25
 0 0 l 25
512 0 m 25
 512 128 l 25
 640 128 l 25
 640 0 l 25
 512 0 l 25
EndSplineSet
EndChar

StartChar: u0xc1
Encoding: 193 193 127
Width: 768
Flags: W
LayerCount: 2
Fore
SplineSet
384 1152 m 25
 384 1280 l 25
 512 1280 l 25
 512 1152 l 25
 384 1152 l 25
256 1024 m 25
 256 1152 l 25
 384 1152 l 25
 384 1024 l 25
 256 1024 l 25
256 768 m 25
 256 896 l 25
 384 896 l 25
 384 768 l 25
 256 768 l 25
128 640 m 25
 128 768 l 25
 256 768 l 25
 256 640 l 25
 128 640 l 25
384 640 m 25
 384 768 l 25
 512 768 l 25
 512 640 l 25
 384 640 l 25
128 512 m 25
 128 640 l 25
 256 640 l 25
 256 512 l 25
 128 512 l 25
384 512 m 25
 384 640 l 25
 512 640 l 25
 512 512 l 25
 384 512 l 25
0 384 m 25
 0 512 l 25
 128 512 l 25
 128 384 l 25
 0 384 l 25
512 384 m 25
 512 512 l 25
 640 512 l 25
 640 384 l 25
 512 384 l 25
0 256 m 25
 0 384 l 25
 128 384 l 25
 128 256 l 25
 0 256 l 25
128 256 m 25
 128 384 l 25
 256 384 l 25
 256 256 l 25
 128 256 l 25
256 256 m 25
 256 384 l 25
 384 384 l 25
 384 256 l 25
 256 256 l 25
384 256 m 25
 384 384 l 25
 512 384 l 25
 512 256 l 25
 384 256 l 25
512 256 m 25
 512 384 l 25
 640 384 l 25
 640 256 l 25
 512 256 l 25
0 128 m 25
 0 256 l 25
 128 256 l 25
 128 128 l 25
 0 128 l 25
512 128 m 25
 512 256 l 25
 640 256 l 25
 640 128 l 25
 512 128 l 25
0 0 m 25
 0 128 l 25
 128 128 l 25
 128 0 l 25
 0 0 l 25
512 0 m 25
 512 128 l 25
 640 128 l 25
 640 0 l 25
 512 0 l 25
EndSplineSet
EndChar

StartChar: u0xc2
Encoding: 194 194 128
Width: 768
Flags: W
LayerCount: 2
Fore
SplineSet
256 1152 m 25
 256 1280 l 25
 384 1280 l 25
 384 1152 l 25
 256 1152 l 25
128 1024 m 25
 128 1152 l 25
 256 1152 l 25
 256 1024 l 25
 128 1024 l 25
384 1024 m 25
 384 1152 l 25
 512 1152 l 25
 512 1024 l 25
 384 1024 l 25
256 768 m 25
 256 896 l 25
 384 896 l 25
 384 768 l 25
 256 768 l 25
128 640 m 25
 128 768 l 25
 256 768 l 25
 256 640 l 25
 128 640 l 25
384 640 m 25
 384 768 l 25
 512 768 l 25
 512 640 l 25
 384 640 l 25
128 512 m 25
 128 640 l 25
 256 640 l 25
 256 512 l 25
 128 512 l 25
384 512 m 25
 384 640 l 25
 512 640 l 25
 512 512 l 25
 384 512 l 25
0 384 m 25
 0 512 l 25
 128 512 l 25
 128 384 l 25
 0 384 l 25
512 384 m 25
 512 512 l 25
 640 512 l 25
 640 384 l 25
 512 384 l 25
0 256 m 25
 0 384 l 25
 128 384 l 25
 128 256 l 25
 0 256 l 25
128 256 m 25
 128 384 l 25
 256 384 l 25
 256 256 l 25
 128 256 l 25
256 256 m 25
 256 384 l 25
 384 384 l 25
 384 256 l 25
 256 256 l 25
384 256 m 25
 384 384 l 25
 512 384 l 25
 512 256 l 25
 384 256 l 25
512 256 m 25
 512 384 l 25
 640 384 l 25
 640 256 l 25
 512 256 l 25
0 128 m 25
 0 256 l 25
 128 256 l 25
 128 128 l 25
 0 128 l 25
512 128 m 25
 512 256 l 25
 640 256 l 25
 640 128 l 25
 512 128 l 25
0 0 m 25
 0 128 l 25
 128 128 l 25
 128 0 l 25
 0 0 l 25
512 0 m 25
 512 128 l 25
 640 128 l 25
 640 0 l 25
 512 0 l 25
EndSplineSet
EndChar

StartChar: u0xc3
Encoding: 195 195 129
Width: 768
Flags: W
LayerCount: 2
Fore
SplineSet
256 1152 m 25
 256 1280 l 25
 384 1280 l 25
 384 1152 l 25
 256 1152 l 25
512 1152 m 25
 512 1280 l 25
 640 1280 l 25
 640 1152 l 25
 512 1152 l 25
128 1024 m 25
 128 1152 l 25
 256 1152 l 25
 256 1024 l 25
 128 1024 l 25
384 1024 m 25
 384 1152 l 25
 512 1152 l 25
 512 1024 l 25
 384 1024 l 25
256 768 m 25
 256 896 l 25
 384 896 l 25
 384 768 l 25
 256 768 l 25
128 640 m 25
 128 768 l 25
 256 768 l 25
 256 640 l 25
 128 640 l 25
384 640 m 25
 384 768 l 25
 512 768 l 25
 512 640 l 25
 384 640 l 25
128 512 m 25
 128 640 l 25
 256 640 l 25
 256 512 l 25
 128 512 l 25
384 512 m 25
 384 640 l 25
 512 640 l 25
 512 512 l 25
 384 512 l 25
0 384 m 25
 0 512 l 25
 128 512 l 25
 128 384 l 25
 0 384 l 25
512 384 m 25
 512 512 l 25
 640 512 l 25
 640 384 l 25
 512 384 l 25
0 256 m 25
 0 384 l 25
 128 384 l 25
 128 256 l 25
 0 256 l 25
128 256 m 25
 128 384 l 25
 256 384 l 25
 256 256 l 25
 128 256 l 25
256 256 m 25
 256 384 l 25
 384 384 l 25
 384 256 l 25
 256 256 l 25
384 256 m 25
 384 384 l 25
 512 384 l 25
 512 256 l 25
 384 256 l 25
512 256 m 25
 512 384 l 25
 640 384 l 25
 640 256 l 25
 512 256 l 25
0 128 m 25
 0 256 l 25
 128 256 l 25
 128 128 l 25
 0 128 l 25
512 128 m 25
 512 256 l 25
 640 256 l 25
 640 128 l 25
 512 128 l 25
0 0 m 25
 0 128 l 25
 128 128 l 25
 128 0 l 25
 0 0 l 25
512 0 m 25
 512 128 l 25
 640 128 l 25
 640 0 l 25
 512 0 l 25
EndSplineSet
EndChar

StartChar: u0xc4
Encoding: 196 196 130
Width: 768
Flags: W
LayerCount: 2
Fore
SplineSet
128 1024 m 25
 128 1152 l 25
 256 1152 l 25
 256 1024 l 25
 128 1024 l 25
384 1024 m 25
 384 1152 l 25
 512 1152 l 25
 512 1024 l 25
 384 1024 l 25
256 768 m 25
 256 896 l 25
 384 896 l 25
 384 768 l 25
 256 768 l 25
128 640 m 25
 128 768 l 25
 256 768 l 25
 256 640 l 25
 128 640 l 25
384 640 m 25
 384 768 l 25
 512 768 l 25
 512 640 l 25
 384 640 l 25
128 512 m 25
 128 640 l 25
 256 640 l 25
 256 512 l 25
 128 512 l 25
384 512 m 25
 384 640 l 25
 512 640 l 25
 512 512 l 25
 384 512 l 25
0 384 m 25
 0 512 l 25
 128 512 l 25
 128 384 l 25
 0 384 l 25
512 384 m 25
 512 512 l 25
 640 512 l 25
 640 384 l 25
 512 384 l 25
0 256 m 25
 0 384 l 25
 128 384 l 25
 128 256 l 25
 0 256 l 25
128 256 m 25
 128 384 l 25
 256 384 l 25
 256 256 l 25
 128 256 l 25
256 256 m 25
 256 384 l 25
 384 384 l 25
 384 256 l 25
 256 256 l 25
384 256 m 25
 384 384 l 25
 512 384 l 25
 512 256 l 25
 384 256 l 25
512 256 m 25
 512 384 l 25
 640 384 l 25
 640 256 l 25
 512 256 l 25
0 128 m 25
 0 256 l 25
 128 256 l 25
 128 128 l 25
 0 128 l 25
512 128 m 25
 512 256 l 25
 640 256 l 25
 640 128 l 25
 512 128 l 25
0 0 m 25
 0 128 l 25
 128 128 l 25
 128 0 l 25
 0 0 l 25
512 0 m 25
 512 128 l 25
 640 128 l 25
 640 0 l 25
 512 0 l 25
EndSplineSet
EndChar

StartChar: u0xc5
Encoding: 197 197 131
Width: 768
Flags: W
LayerCount: 2
Fore
SplineSet
256 1152 m 25
 256 1280 l 25
 384 1280 l 25
 384 1152 l 25
 256 1152 l 25
128 1024 m 25
 128 1152 l 25
 256 1152 l 25
 256 1024 l 25
 128 1024 l 25
384 1024 m 25
 384 1152 l 25
 512 1152 l 25
 512 1024 l 25
 384 1024 l 25
256 896 m 25
 256 1024 l 25
 384 1024 l 25
 384 896 l 25
 256 896 l 25
256 768 m 25
 256 896 l 25
 384 896 l 25
 384 768 l 25
 256 768 l 25
128 640 m 25
 128 768 l 25
 256 768 l 25
 256 640 l 25
 128 640 l 25
384 640 m 25
 384 768 l 25
 512 768 l 25
 512 640 l 25
 384 640 l 25
128 512 m 25
 128 640 l 25
 256 640 l 25
 256 512 l 25
 128 512 l 25
384 512 m 25
 384 640 l 25
 512 640 l 25
 512 512 l 25
 384 512 l 25
0 384 m 25
 0 512 l 25
 128 512 l 25
 128 384 l 25
 0 384 l 25
512 384 m 25
 512 512 l 25
 640 512 l 25
 640 384 l 25
 512 384 l 25
0 256 m 25
 0 384 l 25
 128 384 l 25
 128 256 l 25
 0 256 l 25
128 256 m 25
 128 384 l 25
 256 384 l 25
 256 256 l 25
 128 256 l 25
256 256 m 25
 256 384 l 25
 384 384 l 25
 384 256 l 25
 256 256 l 25
384 256 m 25
 384 384 l 25
 512 384 l 25
 512 256 l 25
 384 256 l 25
512 256 m 25
 512 384 l 25
 640 384 l 25
 640 256 l 25
 512 256 l 25
0 128 m 25
 0 256 l 25
 128 256 l 25
 128 128 l 25
 0 128 l 25
512 128 m 25
 512 256 l 25
 640 256 l 25
 640 128 l 25
 512 128 l 25
0 0 m 25
 0 128 l 25
 128 128 l 25
 128 0 l 25
 0 0 l 25
512 0 m 25
 512 128 l 25
 640 128 l 25
 640 0 l 25
 512 0 l 25
EndSplineSet
EndChar

StartChar: u0xc6
Encoding: 198 198 132
Width: 1024
Flags: W
LayerCount: 2
Fore
SplineSet
256 768 m 25
 256 896 l 25
 384 896 l 25
 384 768 l 25
 256 768 l 25
384 768 m 25
 384 896 l 25
 512 896 l 25
 512 768 l 25
 384 768 l 25
512 768 m 25
 512 896 l 25
 640 896 l 25
 640 768 l 25
 512 768 l 25
640 768 m 25
 640 896 l 25
 768 896 l 25
 768 768 l 25
 640 768 l 25
768 768 m 25
 768 896 l 25
 896 896 l 25
 896 768 l 25
 768 768 l 25
128 640 m 25
 128 768 l 25
 256 768 l 25
 256 640 l 25
 128 640 l 25
384 640 m 25
 384 768 l 25
 512 768 l 25
 512 640 l 25
 384 640 l 25
0 512 m 25
 0 640 l 25
 128 640 l 25
 128 512 l 25
 0 512 l 25
384 512 m 25
 384 640 l 25
 512 640 l 25
 512 512 l 25
 384 512 l 25
0 384 m 25
 0 512 l 25
 128 512 l 25
 128 384 l 25
 0 384 l 25
128 384 m 25
 128 512 l 25
 256 512 l 25
 256 384 l 25
 128 384 l 25
256 384 m 25
 256 512 l 25
 384 512 l 25
 384 384 l 25
 256 384 l 25
384 384 m 25
 384 512 l 25
 512 512 l 25
 512 384 l 25
 384 384 l 25
512 384 m 25
 512 512 l 25
 640 512 l 25
 640 384 l 25
 512 384 l 25
640 384 m 25
 640 512 l 25
 768 512 l 25
 768 384 l 25
 640 384 l 25
0 256 m 25
 0 384 l 25
 128 384 l 25
 128 256 l 25
 0 256 l 25
384 256 m 25
 384 384 l 25
 512 384 l 25
 512 256 l 25
 384 256 l 25
0 128 m 25
 0 256 l 25
 128 256 l 25
 128 128 l 25
 0 128 l 25
384 128 m 25
 384 256 l 25
 512 256 l 25
 512 128 l 25
 384 128 l 25
0 0 m 25
 0 128 l 25
 128 128 l 25
 128 0 l 25
 0 0 l 25
384 0 m 25
 384 128 l 25
 512 128 l 25
 512 0 l 25
 384 0 l 25
512 0 m 25
 512 128 l 25
 640 128 l 25
 640 0 l 25
 512 0 l 25
640 0 m 25
 640 128 l 25
 768 128 l 25
 768 0 l 25
 640 0 l 25
768 0 m 25
 768 128 l 25
 896 128 l 25
 896 0 l 25
 768 0 l 25
EndSplineSet
EndChar

StartChar: u0xc7
Encoding: 199 199 133
Width: 640
Flags: W
LayerCount: 2
Fore
SplineSet
128 768 m 25
 128 896 l 25
 256 896 l 25
 256 768 l 25
 128 768 l 25
256 768 m 25
 256 896 l 25
 384 896 l 25
 384 768 l 25
 256 768 l 25
384 768 m 25
 384 896 l 25
 512 896 l 25
 512 768 l 25
 384 768 l 25
0 640 m 25
 0 768 l 25
 128 768 l 25
 128 640 l 25
 0 640 l 25
0 512 m 25
 0 640 l 25
 128 640 l 25
 128 512 l 25
 0 512 l 25
0 384 m 25
 0 512 l 25
 128 512 l 25
 128 384 l 25
 0 384 l 25
0 256 m 25
 0 384 l 25
 128 384 l 25
 128 256 l 25
 0 256 l 25
0 128 m 25
 0 256 l 25
 128 256 l 25
 128 128 l 25
 0 128 l 25
128 0 m 25
 128 128 l 25
 256 128 l 25
 256 0 l 25
 128 0 l 25
256 0 m 25
 256 128 l 25
 384 128 l 25
 384 0 l 25
 256 0 l 25
384 0 m 25
 384 128 l 25
 512 128 l 25
 512 0 l 25
 384 0 l 25
384 -128 m 25
 384 0 l 25
 512 0 l 25
 512 -128 l 25
 384 -128 l 25
256 -256 m 25
 256 -128 l 25
 384 -128 l 25
 384 -256 l 25
 256 -256 l 25
EndSplineSet
EndChar

StartChar: u0xc8
Encoding: 200 200 134
Width: 640
Flags: W
LayerCount: 2
Fore
SplineSet
128 1152 m 25
 128 1280 l 25
 256 1280 l 25
 256 1152 l 25
 128 1152 l 25
256 1024 m 25
 256 1152 l 25
 384 1152 l 25
 384 1024 l 25
 256 1024 l 25
0 768 m 25
 0 896 l 25
 128 896 l 25
 128 768 l 25
 0 768 l 25
128 768 m 25
 128 896 l 25
 256 896 l 25
 256 768 l 25
 128 768 l 25
256 768 m 25
 256 896 l 25
 384 896 l 25
 384 768 l 25
 256 768 l 25
384 768 m 25
 384 896 l 25
 512 896 l 25
 512 768 l 25
 384 768 l 25
0 640 m 25
 0 768 l 25
 128 768 l 25
 128 640 l 25
 0 640 l 25
0 512 m 25
 0 640 l 25
 128 640 l 25
 128 512 l 25
 0 512 l 25
0 384 m 25
 0 512 l 25
 128 512 l 25
 128 384 l 25
 0 384 l 25
128 384 m 25
 128 512 l 25
 256 512 l 25
 256 384 l 25
 128 384 l 25
256 384 m 25
 256 512 l 25
 384 512 l 25
 384 384 l 25
 256 384 l 25
0 256 m 25
 0 384 l 25
 128 384 l 25
 128 256 l 25
 0 256 l 25
0 128 m 25
 0 256 l 25
 128 256 l 25
 128 128 l 25
 0 128 l 25
0 0 m 25
 0 128 l 25
 128 128 l 25
 128 0 l 25
 0 0 l 25
128 0 m 25
 128 128 l 25
 256 128 l 25
 256 0 l 25
 128 0 l 25
256 0 m 25
 256 128 l 25
 384 128 l 25
 384 0 l 25
 256 0 l 25
384 0 m 25
 384 128 l 25
 512 128 l 25
 512 0 l 25
 384 0 l 25
EndSplineSet
EndChar

StartChar: u0xc9
Encoding: 201 201 135
Width: 640
Flags: W
LayerCount: 2
Fore
SplineSet
256 1152 m 25
 256 1280 l 25
 384 1280 l 25
 384 1152 l 25
 256 1152 l 25
128 1024 m 25
 128 1152 l 25
 256 1152 l 25
 256 1024 l 25
 128 1024 l 25
0 768 m 25
 0 896 l 25
 128 896 l 25
 128 768 l 25
 0 768 l 25
128 768 m 25
 128 896 l 25
 256 896 l 25
 256 768 l 25
 128 768 l 25
256 768 m 25
 256 896 l 25
 384 896 l 25
 384 768 l 25
 256 768 l 25
384 768 m 25
 384 896 l 25
 512 896 l 25
 512 768 l 25
 384 768 l 25
0 640 m 25
 0 768 l 25
 128 768 l 25
 128 640 l 25
 0 640 l 25
0 512 m 25
 0 640 l 25
 128 640 l 25
 128 512 l 25
 0 512 l 25
0 384 m 25
 0 512 l 25
 128 512 l 25
 128 384 l 25
 0 384 l 25
128 384 m 25
 128 512 l 25
 256 512 l 25
 256 384 l 25
 128 384 l 25
256 384 m 25
 256 512 l 25
 384 512 l 25
 384 384 l 25
 256 384 l 25
0 256 m 25
 0 384 l 25
 128 384 l 25
 128 256 l 25
 0 256 l 25
0 128 m 25
 0 256 l 25
 128 256 l 25
 128 128 l 25
 0 128 l 25
0 0 m 25
 0 128 l 25
 128 128 l 25
 128 0 l 25
 0 0 l 25
128 0 m 25
 128 128 l 25
 256 128 l 25
 256 0 l 25
 128 0 l 25
256 0 m 25
 256 128 l 25
 384 128 l 25
 384 0 l 25
 256 0 l 25
384 0 m 25
 384 128 l 25
 512 128 l 25
 512 0 l 25
 384 0 l 25
EndSplineSet
EndChar

StartChar: u0xca
Encoding: 202 202 136
Width: 640
Flags: W
LayerCount: 2
Fore
SplineSet
128 1152 m 25
 128 1280 l 25
 256 1280 l 25
 256 1152 l 25
 128 1152 l 25
256 1152 m 25
 256 1280 l 25
 384 1280 l 25
 384 1152 l 25
 256 1152 l 25
0 1024 m 25
 0 1152 l 25
 128 1152 l 25
 128 1024 l 25
 0 1024 l 25
384 1024 m 25
 384 1152 l 25
 512 1152 l 25
 512 1024 l 25
 384 1024 l 25
0 768 m 25
 0 896 l 25
 128 896 l 25
 128 768 l 25
 0 768 l 25
128 768 m 25
 128 896 l 25
 256 896 l 25
 256 768 l 25
 128 768 l 25
256 768 m 25
 256 896 l 25
 384 896 l 25
 384 768 l 25
 256 768 l 25
384 768 m 25
 384 896 l 25
 512 896 l 25
 512 768 l 25
 384 768 l 25
0 640 m 25
 0 768 l 25
 128 768 l 25
 128 640 l 25
 0 640 l 25
0 512 m 25
 0 640 l 25
 128 640 l 25
 128 512 l 25
 0 512 l 25
0 384 m 25
 0 512 l 25
 128 512 l 25
 128 384 l 25
 0 384 l 25
128 384 m 25
 128 512 l 25
 256 512 l 25
 256 384 l 25
 128 384 l 25
256 384 m 25
 256 512 l 25
 384 512 l 25
 384 384 l 25
 256 384 l 25
0 256 m 25
 0 384 l 25
 128 384 l 25
 128 256 l 25
 0 256 l 25
0 128 m 25
 0 256 l 25
 128 256 l 25
 128 128 l 25
 0 128 l 25
0 0 m 25
 0 128 l 25
 128 128 l 25
 128 0 l 25
 0 0 l 25
128 0 m 25
 128 128 l 25
 256 128 l 25
 256 0 l 25
 128 0 l 25
256 0 m 25
 256 128 l 25
 384 128 l 25
 384 0 l 25
 256 0 l 25
384 0 m 25
 384 128 l 25
 512 128 l 25
 512 0 l 25
 384 0 l 25
EndSplineSet
EndChar

StartChar: u0xcb
Encoding: 203 203 137
Width: 640
Flags: W
LayerCount: 2
Fore
SplineSet
0 1024 m 25
 0 1152 l 25
 128 1152 l 25
 128 1024 l 25
 0 1024 l 25
384 1024 m 25
 384 1152 l 25
 512 1152 l 25
 512 1024 l 25
 384 1024 l 25
0 768 m 25
 0 896 l 25
 128 896 l 25
 128 768 l 25
 0 768 l 25
128 768 m 25
 128 896 l 25
 256 896 l 25
 256 768 l 25
 128 768 l 25
256 768 m 25
 256 896 l 25
 384 896 l 25
 384 768 l 25
 256 768 l 25
384 768 m 25
 384 896 l 25
 512 896 l 25
 512 768 l 25
 384 768 l 25
0 640 m 25
 0 768 l 25
 128 768 l 25
 128 640 l 25
 0 640 l 25
0 512 m 25
 0 640 l 25
 128 640 l 25
 128 512 l 25
 0 512 l 25
0 384 m 25
 0 512 l 25
 128 512 l 25
 128 384 l 25
 0 384 l 25
128 384 m 25
 128 512 l 25
 256 512 l 25
 256 384 l 25
 128 384 l 25
256 384 m 25
 256 512 l 25
 384 512 l 25
 384 384 l 25
 256 384 l 25
0 256 m 25
 0 384 l 25
 128 384 l 25
 128 256 l 25
 0 256 l 25
0 128 m 25
 0 256 l 25
 128 256 l 25
 128 128 l 25
 0 128 l 25
0 0 m 25
 0 128 l 25
 128 128 l 25
 128 0 l 25
 0 0 l 25
128 0 m 25
 128 128 l 25
 256 128 l 25
 256 0 l 25
 128 0 l 25
256 0 m 25
 256 128 l 25
 384 128 l 25
 384 0 l 25
 256 0 l 25
384 0 m 25
 384 128 l 25
 512 128 l 25
 512 0 l 25
 384 0 l 25
EndSplineSet
EndChar

StartChar: u0xcc
Encoding: 204 204 138
Width: 512
Flags: W
LayerCount: 2
Fore
SplineSet
0 1152 m 25
 0 1280 l 25
 128 1280 l 25
 128 1152 l 25
 0 1152 l 25
128 1024 m 25
 128 1152 l 25
 256 1152 l 25
 256 1024 l 25
 128 1024 l 25
0 768 m 25
 0 896 l 25
 128 896 l 25
 128 768 l 25
 0 768 l 25
128 768 m 25
 128 896 l 25
 256 896 l 25
 256 768 l 25
 128 768 l 25
256 768 m 25
 256 896 l 25
 384 896 l 25
 384 768 l 25
 256 768 l 25
128 640 m 25
 128 768 l 25
 256 768 l 25
 256 640 l 25
 128 640 l 25
128 512 m 25
 128 640 l 25
 256 640 l 25
 256 512 l 25
 128 512 l 25
128 384 m 25
 128 512 l 25
 256 512 l 25
 256 384 l 25
 128 384 l 25
128 256 m 25
 128 384 l 25
 256 384 l 25
 256 256 l 25
 128 256 l 25
128 128 m 25
 128 256 l 25
 256 256 l 25
 256 128 l 25
 128 128 l 25
0 0 m 25
 0 128 l 25
 128 128 l 25
 128 0 l 25
 0 0 l 25
128 0 m 25
 128 128 l 25
 256 128 l 25
 256 0 l 25
 128 0 l 25
256 0 m 25
 256 128 l 25
 384 128 l 25
 384 0 l 25
 256 0 l 25
EndSplineSet
EndChar

StartChar: u0xcd
Encoding: 205 205 139
Width: 512
Flags: W
LayerCount: 2
Fore
SplineSet
256 1152 m 25
 256 1280 l 25
 384 1280 l 25
 384 1152 l 25
 256 1152 l 25
128 1024 m 25
 128 1152 l 25
 256 1152 l 25
 256 1024 l 25
 128 1024 l 25
0 768 m 25
 0 896 l 25
 128 896 l 25
 128 768 l 25
 0 768 l 25
128 768 m 25
 128 896 l 25
 256 896 l 25
 256 768 l 25
 128 768 l 25
256 768 m 25
 256 896 l 25
 384 896 l 25
 384 768 l 25
 256 768 l 25
128 640 m 25
 128 768 l 25
 256 768 l 25
 256 640 l 25
 128 640 l 25
128 512 m 25
 128 640 l 25
 256 640 l 25
 256 512 l 25
 128 512 l 25
128 384 m 25
 128 512 l 25
 256 512 l 25
 256 384 l 25
 128 384 l 25
128 256 m 25
 128 384 l 25
 256 384 l 25
 256 256 l 25
 128 256 l 25
128 128 m 25
 128 256 l 25
 256 256 l 25
 256 128 l 25
 128 128 l 25
0 0 m 25
 0 128 l 25
 128 128 l 25
 128 0 l 25
 0 0 l 25
128 0 m 25
 128 128 l 25
 256 128 l 25
 256 0 l 25
 128 0 l 25
256 0 m 25
 256 128 l 25
 384 128 l 25
 384 0 l 25
 256 0 l 25
EndSplineSet
EndChar

StartChar: u0xce
Encoding: 206 206 140
Width: 512
Flags: W
LayerCount: 2
Fore
SplineSet
128 1152 m 25
 128 1280 l 25
 256 1280 l 25
 256 1152 l 25
 128 1152 l 25
0 1024 m 25
 0 1152 l 25
 128 1152 l 25
 128 1024 l 25
 0 1024 l 25
256 1024 m 25
 256 1152 l 25
 384 1152 l 25
 384 1024 l 25
 256 1024 l 25
0 768 m 25
 0 896 l 25
 128 896 l 25
 128 768 l 25
 0 768 l 25
128 768 m 25
 128 896 l 25
 256 896 l 25
 256 768 l 25
 128 768 l 25
256 768 m 25
 256 896 l 25
 384 896 l 25
 384 768 l 25
 256 768 l 25
128 640 m 25
 128 768 l 25
 256 768 l 25
 256 640 l 25
 128 640 l 25
128 512 m 25
 128 640 l 25
 256 640 l 25
 256 512 l 25
 128 512 l 25
128 384 m 25
 128 512 l 25
 256 512 l 25
 256 384 l 25
 128 384 l 25
128 256 m 25
 128 384 l 25
 256 384 l 25
 256 256 l 25
 128 256 l 25
128 128 m 25
 128 256 l 25
 256 256 l 25
 256 128 l 25
 128 128 l 25
0 0 m 25
 0 128 l 25
 128 128 l 25
 128 0 l 25
 0 0 l 25
128 0 m 25
 128 128 l 25
 256 128 l 25
 256 0 l 25
 128 0 l 25
256 0 m 25
 256 128 l 25
 384 128 l 25
 384 0 l 25
 256 0 l 25
EndSplineSet
EndChar

StartChar: u0xcf
Encoding: 207 207 141
Width: 512
Flags: W
LayerCount: 2
Fore
SplineSet
0 1024 m 25
 0 1152 l 25
 128 1152 l 25
 128 1024 l 25
 0 1024 l 25
256 1024 m 25
 256 1152 l 25
 384 1152 l 25
 384 1024 l 25
 256 1024 l 25
0 768 m 25
 0 896 l 25
 128 896 l 25
 128 768 l 25
 0 768 l 25
128 768 m 25
 128 896 l 25
 256 896 l 25
 256 768 l 25
 128 768 l 25
256 768 m 25
 256 896 l 25
 384 896 l 25
 384 768 l 25
 256 768 l 25
128 640 m 25
 128 768 l 25
 256 768 l 25
 256 640 l 25
 128 640 l 25
128 512 m 25
 128 640 l 25
 256 640 l 25
 256 512 l 25
 128 512 l 25
128 384 m 25
 128 512 l 25
 256 512 l 25
 256 384 l 25
 128 384 l 25
128 256 m 25
 128 384 l 25
 256 384 l 25
 256 256 l 25
 128 256 l 25
128 128 m 25
 128 256 l 25
 256 256 l 25
 256 128 l 25
 128 128 l 25
0 0 m 25
 0 128 l 25
 128 128 l 25
 128 0 l 25
 0 0 l 25
128 0 m 25
 128 128 l 25
 256 128 l 25
 256 0 l 25
 128 0 l 25
256 0 m 25
 256 128 l 25
 384 128 l 25
 384 0 l 25
 256 0 l 25
EndSplineSet
EndChar

StartChar: u0xd0
Encoding: 208 208 142
Width: 896
Flags: W
LayerCount: 2
Fore
SplineSet
128 768 m 25
 128 896 l 25
 256 896 l 25
 256 768 l 25
 128 768 l 25
256 768 m 25
 256 896 l 25
 384 896 l 25
 384 768 l 25
 256 768 l 25
384 768 m 25
 384 896 l 25
 512 896 l 25
 512 768 l 25
 384 768 l 25
512 768 m 25
 512 896 l 25
 640 896 l 25
 640 768 l 25
 512 768 l 25
128 640 m 25
 128 768 l 25
 256 768 l 25
 256 640 l 25
 128 640 l 25
640 640 m 25
 640 768 l 25
 768 768 l 25
 768 640 l 25
 640 640 l 25
128 512 m 25
 128 640 l 25
 256 640 l 25
 256 512 l 25
 128 512 l 25
640 512 m 25
 640 640 l 25
 768 640 l 25
 768 512 l 25
 640 512 l 25
0 384 m 25
 0 512 l 25
 128 512 l 25
 128 384 l 25
 0 384 l 25
128 384 m 25
 128 512 l 25
 256 512 l 25
 256 384 l 25
 128 384 l 25
256 384 m 25
 256 512 l 25
 384 512 l 25
 384 384 l 25
 256 384 l 25
640 384 m 25
 640 512 l 25
 768 512 l 25
 768 384 l 25
 640 384 l 25
128 256 m 25
 128 384 l 25
 256 384 l 25
 256 256 l 25
 128 256 l 25
640 256 m 25
 640 384 l 25
 768 384 l 25
 768 256 l 25
 640 256 l 25
128 128 m 25
 128 256 l 25
 256 256 l 25
 256 128 l 25
 128 128 l 25
640 128 m 25
 640 256 l 25
 768 256 l 25
 768 128 l 25
 640 128 l 25
128 0 m 25
 128 128 l 25
 256 128 l 25
 256 0 l 25
 128 0 l 25
256 0 m 25
 256 128 l 25
 384 128 l 25
 384 0 l 25
 256 0 l 25
384 0 m 25
 384 128 l 25
 512 128 l 25
 512 0 l 25
 384 0 l 25
512 0 m 25
 512 128 l 25
 640 128 l 25
 640 0 l 25
 512 0 l 25
EndSplineSet
EndChar

StartChar: u0xd1
Encoding: 209 209 143
Width: 768
Flags: W
LayerCount: 2
Fore
SplineSet
256 1152 m 25
 256 1280 l 25
 384 1280 l 25
 384 1152 l 25
 256 1152 l 25
512 1152 m 25
 512 1280 l 25
 640 1280 l 25
 640 1152 l 25
 512 1152 l 25
128 1024 m 25
 128 1152 l 25
 256 1152 l 25
 256 1024 l 25
 128 1024 l 25
384 1024 m 25
 384 1152 l 25
 512 1152 l 25
 512 1024 l 25
 384 1024 l 25
0 768 m 25
 0 896 l 25
 128 896 l 25
 128 768 l 25
 0 768 l 25
512 768 m 25
 512 896 l 25
 640 896 l 25
 640 768 l 25
 512 768 l 25
0 640 m 25
 0 768 l 25
 128 768 l 25
 128 640 l 25
 0 640 l 25
128 640 m 25
 128 768 l 25
 256 768 l 25
 256 640 l 25
 128 640 l 25
512 640 m 25
 512 768 l 25
 640 768 l 25
 640 640 l 25
 512 640 l 25
0 512 m 25
 0 640 l 25
 128 640 l 25
 128 512 l 25
 0 512 l 25
256 512 m 25
 256 640 l 25
 384 640 l 25
 384 512 l 25
 256 512 l 25
512 512 m 25
 512 640 l 25
 640 640 l 25
 640 512 l 25
 512 512 l 25
0 384 m 25
 0 512 l 25
 128 512 l 25
 128 384 l 25
 0 384 l 25
384 384 m 25
 384 512 l 25
 512 512 l 25
 512 384 l 25
 384 384 l 25
512 384 m 25
 512 512 l 25
 640 512 l 25
 640 384 l 25
 512 384 l 25
0 256 m 25
 0 384 l 25
 128 384 l 25
 128 256 l 25
 0 256 l 25
512 256 m 25
 512 384 l 25
 640 384 l 25
 640 256 l 25
 512 256 l 25
0 128 m 25
 0 256 l 25
 128 256 l 25
 128 128 l 25
 0 128 l 25
512 128 m 25
 512 256 l 25
 640 256 l 25
 640 128 l 25
 512 128 l 25
0 0 m 25
 0 128 l 25
 128 128 l 25
 128 0 l 25
 0 0 l 25
512 0 m 25
 512 128 l 25
 640 128 l 25
 640 0 l 25
 512 0 l 25
EndSplineSet
EndChar

StartChar: u0xd2
Encoding: 210 210 144
Width: 768
Flags: W
LayerCount: 2
Fore
SplineSet
128 1152 m 25
 128 1280 l 25
 256 1280 l 25
 256 1152 l 25
 128 1152 l 25
256 1024 m 25
 256 1152 l 25
 384 1152 l 25
 384 1024 l 25
 256 1024 l 25
128 768 m 25
 128 896 l 25
 256 896 l 25
 256 768 l 25
 128 768 l 25
256 768 m 25
 256 896 l 25
 384 896 l 25
 384 768 l 25
 256 768 l 25
384 768 m 25
 384 896 l 25
 512 896 l 25
 512 768 l 25
 384 768 l 25
0 640 m 25
 0 768 l 25
 128 768 l 25
 128 640 l 25
 0 640 l 25
512 640 m 25
 512 768 l 25
 640 768 l 25
 640 640 l 25
 512 640 l 25
0 512 m 25
 0 640 l 25
 128 640 l 25
 128 512 l 25
 0 512 l 25
512 512 m 25
 512 640 l 25
 640 640 l 25
 640 512 l 25
 512 512 l 25
0 384 m 25
 0 512 l 25
 128 512 l 25
 128 384 l 25
 0 384 l 25
512 384 m 25
 512 512 l 25
 640 512 l 25
 640 384 l 25
 512 384 l 25
0 256 m 25
 0 384 l 25
 128 384 l 25
 128 256 l 25
 0 256 l 25
512 256 m 25
 512 384 l 25
 640 384 l 25
 640 256 l 25
 512 256 l 25
0 128 m 25
 0 256 l 25
 128 256 l 25
 128 128 l 25
 0 128 l 25
512 128 m 25
 512 256 l 25
 640 256 l 25
 640 128 l 25
 512 128 l 25
128 0 m 25
 128 128 l 25
 256 128 l 25
 256 0 l 25
 128 0 l 25
256 0 m 25
 256 128 l 25
 384 128 l 25
 384 0 l 25
 256 0 l 25
384 0 m 25
 384 128 l 25
 512 128 l 25
 512 0 l 25
 384 0 l 25
EndSplineSet
EndChar

StartChar: u0xd3
Encoding: 211 211 145
Width: 768
Flags: W
LayerCount: 2
Fore
SplineSet
384 1152 m 25
 384 1280 l 25
 512 1280 l 25
 512 1152 l 25
 384 1152 l 25
256 1024 m 25
 256 1152 l 25
 384 1152 l 25
 384 1024 l 25
 256 1024 l 25
128 768 m 25
 128 896 l 25
 256 896 l 25
 256 768 l 25
 128 768 l 25
256 768 m 25
 256 896 l 25
 384 896 l 25
 384 768 l 25
 256 768 l 25
384 768 m 25
 384 896 l 25
 512 896 l 25
 512 768 l 25
 384 768 l 25
0 640 m 25
 0 768 l 25
 128 768 l 25
 128 640 l 25
 0 640 l 25
512 640 m 25
 512 768 l 25
 640 768 l 25
 640 640 l 25
 512 640 l 25
0 512 m 25
 0 640 l 25
 128 640 l 25
 128 512 l 25
 0 512 l 25
512 512 m 25
 512 640 l 25
 640 640 l 25
 640 512 l 25
 512 512 l 25
0 384 m 25
 0 512 l 25
 128 512 l 25
 128 384 l 25
 0 384 l 25
512 384 m 25
 512 512 l 25
 640 512 l 25
 640 384 l 25
 512 384 l 25
0 256 m 25
 0 384 l 25
 128 384 l 25
 128 256 l 25
 0 256 l 25
512 256 m 25
 512 384 l 25
 640 384 l 25
 640 256 l 25
 512 256 l 25
0 128 m 25
 0 256 l 25
 128 256 l 25
 128 128 l 25
 0 128 l 25
512 128 m 25
 512 256 l 25
 640 256 l 25
 640 128 l 25
 512 128 l 25
128 0 m 25
 128 128 l 25
 256 128 l 25
 256 0 l 25
 128 0 l 25
256 0 m 25
 256 128 l 25
 384 128 l 25
 384 0 l 25
 256 0 l 25
384 0 m 25
 384 128 l 25
 512 128 l 25
 512 0 l 25
 384 0 l 25
EndSplineSet
EndChar

StartChar: u0xd4
Encoding: 212 212 146
Width: 768
Flags: W
LayerCount: 2
Fore
SplineSet
256 1152 m 25
 256 1280 l 25
 384 1280 l 25
 384 1152 l 25
 256 1152 l 25
128 1024 m 25
 128 1152 l 25
 256 1152 l 25
 256 1024 l 25
 128 1024 l 25
384 1024 m 25
 384 1152 l 25
 512 1152 l 25
 512 1024 l 25
 384 1024 l 25
128 768 m 25
 128 896 l 25
 256 896 l 25
 256 768 l 25
 128 768 l 25
256 768 m 25
 256 896 l 25
 384 896 l 25
 384 768 l 25
 256 768 l 25
384 768 m 25
 384 896 l 25
 512 896 l 25
 512 768 l 25
 384 768 l 25
0 640 m 25
 0 768 l 25
 128 768 l 25
 128 640 l 25
 0 640 l 25
512 640 m 25
 512 768 l 25
 640 768 l 25
 640 640 l 25
 512 640 l 25
0 512 m 25
 0 640 l 25
 128 640 l 25
 128 512 l 25
 0 512 l 25
512 512 m 25
 512 640 l 25
 640 640 l 25
 640 512 l 25
 512 512 l 25
0 384 m 25
 0 512 l 25
 128 512 l 25
 128 384 l 25
 0 384 l 25
512 384 m 25
 512 512 l 25
 640 512 l 25
 640 384 l 25
 512 384 l 25
0 256 m 25
 0 384 l 25
 128 384 l 25
 128 256 l 25
 0 256 l 25
512 256 m 25
 512 384 l 25
 640 384 l 25
 640 256 l 25
 512 256 l 25
0 128 m 25
 0 256 l 25
 128 256 l 25
 128 128 l 25
 0 128 l 25
512 128 m 25
 512 256 l 25
 640 256 l 25
 640 128 l 25
 512 128 l 25
128 0 m 25
 128 128 l 25
 256 128 l 25
 256 0 l 25
 128 0 l 25
256 0 m 25
 256 128 l 25
 384 128 l 25
 384 0 l 25
 256 0 l 25
384 0 m 25
 384 128 l 25
 512 128 l 25
 512 0 l 25
 384 0 l 25
EndSplineSet
EndChar

StartChar: u0xd5
Encoding: 213 213 147
Width: 768
Flags: W
LayerCount: 2
Fore
SplineSet
256 1152 m 25
 256 1280 l 25
 384 1280 l 25
 384 1152 l 25
 256 1152 l 25
512 1152 m 25
 512 1280 l 25
 640 1280 l 25
 640 1152 l 25
 512 1152 l 25
128 1024 m 25
 128 1152 l 25
 256 1152 l 25
 256 1024 l 25
 128 1024 l 25
384 1024 m 25
 384 1152 l 25
 512 1152 l 25
 512 1024 l 25
 384 1024 l 25
128 768 m 25
 128 896 l 25
 256 896 l 25
 256 768 l 25
 128 768 l 25
256 768 m 25
 256 896 l 25
 384 896 l 25
 384 768 l 25
 256 768 l 25
384 768 m 25
 384 896 l 25
 512 896 l 25
 512 768 l 25
 384 768 l 25
0 640 m 25
 0 768 l 25
 128 768 l 25
 128 640 l 25
 0 640 l 25
512 640 m 25
 512 768 l 25
 640 768 l 25
 640 640 l 25
 512 640 l 25
0 512 m 25
 0 640 l 25
 128 640 l 25
 128 512 l 25
 0 512 l 25
512 512 m 25
 512 640 l 25
 640 640 l 25
 640 512 l 25
 512 512 l 25
0 384 m 25
 0 512 l 25
 128 512 l 25
 128 384 l 25
 0 384 l 25
512 384 m 25
 512 512 l 25
 640 512 l 25
 640 384 l 25
 512 384 l 25
0 256 m 25
 0 384 l 25
 128 384 l 25
 128 256 l 25
 0 256 l 25
512 256 m 25
 512 384 l 25
 640 384 l 25
 640 256 l 25
 512 256 l 25
0 128 m 25
 0 256 l 25
 128 256 l 25
 128 128 l 25
 0 128 l 25
512 128 m 25
 512 256 l 25
 640 256 l 25
 640 128 l 25
 512 128 l 25
128 0 m 25
 128 128 l 25
 256 128 l 25
 256 0 l 25
 128 0 l 25
256 0 m 25
 256 128 l 25
 384 128 l 25
 384 0 l 25
 256 0 l 25
384 0 m 25
 384 128 l 25
 512 128 l 25
 512 0 l 25
 384 0 l 25
EndSplineSet
EndChar

StartChar: u0xd6
Encoding: 214 214 148
Width: 768
Flags: W
LayerCount: 2
Fore
SplineSet
128 1024 m 25
 128 1152 l 25
 256 1152 l 25
 256 1024 l 25
 128 1024 l 25
384 1024 m 25
 384 1152 l 25
 512 1152 l 25
 512 1024 l 25
 384 1024 l 25
128 768 m 25
 128 896 l 25
 256 896 l 25
 256 768 l 25
 128 768 l 25
256 768 m 25
 256 896 l 25
 384 896 l 25
 384 768 l 25
 256 768 l 25
384 768 m 25
 384 896 l 25
 512 896 l 25
 512 768 l 25
 384 768 l 25
0 640 m 25
 0 768 l 25
 128 768 l 25
 128 640 l 25
 0 640 l 25
512 640 m 25
 512 768 l 25
 640 768 l 25
 640 640 l 25
 512 640 l 25
0 512 m 25
 0 640 l 25
 128 640 l 25
 128 512 l 25
 0 512 l 25
512 512 m 25
 512 640 l 25
 640 640 l 25
 640 512 l 25
 512 512 l 25
0 384 m 25
 0 512 l 25
 128 512 l 25
 128 384 l 25
 0 384 l 25
512 384 m 25
 512 512 l 25
 640 512 l 25
 640 384 l 25
 512 384 l 25
0 256 m 25
 0 384 l 25
 128 384 l 25
 128 256 l 25
 0 256 l 25
512 256 m 25
 512 384 l 25
 640 384 l 25
 640 256 l 25
 512 256 l 25
0 128 m 25
 0 256 l 25
 128 256 l 25
 128 128 l 25
 0 128 l 25
512 128 m 25
 512 256 l 25
 640 256 l 25
 640 128 l 25
 512 128 l 25
128 0 m 25
 128 128 l 25
 256 128 l 25
 256 0 l 25
 128 0 l 25
256 0 m 25
 256 128 l 25
 384 128 l 25
 384 0 l 25
 256 0 l 25
384 0 m 25
 384 128 l 25
 512 128 l 25
 512 0 l 25
 384 0 l 25
EndSplineSet
EndChar

StartChar: u0xd7
Encoding: 215 215 149
Width: 512
Flags: W
LayerCount: 2
Fore
SplineSet
0 512 m 25
 0 640 l 25
 128 640 l 25
 128 512 l 25
 0 512 l 25
256 512 m 25
 256 640 l 25
 384 640 l 25
 384 512 l 25
 256 512 l 25
128 384 m 25
 128 512 l 25
 256 512 l 25
 256 384 l 25
 128 384 l 25
0 256 m 25
 0 384 l 25
 128 384 l 25
 128 256 l 25
 0 256 l 25
256 256 m 25
 256 384 l 25
 384 384 l 25
 384 256 l 25
 256 256 l 25
EndSplineSet
EndChar

StartChar: u0xd8
Encoding: 216 216 150
Width: 1024
Flags: W
LayerCount: 2
Fore
SplineSet
256 768 m 25
 256 896 l 25
 384 896 l 25
 384 768 l 25
 256 768 l 25
384 768 m 25
 384 896 l 25
 512 896 l 25
 512 768 l 25
 384 768 l 25
512 768 m 25
 512 896 l 25
 640 896 l 25
 640 768 l 25
 512 768 l 25
768 768 m 25
 768 896 l 25
 896 896 l 25
 896 768 l 25
 768 768 l 25
128 640 m 25
 128 768 l 25
 256 768 l 25
 256 640 l 25
 128 640 l 25
640 640 m 25
 640 768 l 25
 768 768 l 25
 768 640 l 25
 640 640 l 25
128 512 m 25
 128 640 l 25
 256 640 l 25
 256 512 l 25
 128 512 l 25
512 512 m 25
 512 640 l 25
 640 640 l 25
 640 512 l 25
 512 512 l 25
640 512 m 25
 640 640 l 25
 768 640 l 25
 768 512 l 25
 640 512 l 25
128 384 m 25
 128 512 l 25
 256 512 l 25
 256 384 l 25
 128 384 l 25
384 384 m 25
 384 512 l 25
 512 512 l 25
 512 384 l 25
 384 384 l 25
640 384 m 25
 640 512 l 25
 768 512 l 25
 768 384 l 25
 640 384 l 25
128 256 m 25
 128 384 l 25
 256 384 l 25
 256 256 l 25
 128 256 l 25
256 256 m 25
 256 384 l 25
 384 384 l 25
 384 256 l 25
 256 256 l 25
640 256 m 25
 640 384 l 25
 768 384 l 25
 768 256 l 25
 640 256 l 25
128 128 m 25
 128 256 l 25
 256 256 l 25
 256 128 l 25
 128 128 l 25
640 128 m 25
 640 256 l 25
 768 256 l 25
 768 128 l 25
 640 128 l 25
0 0 m 25
 0 128 l 25
 128 128 l 25
 128 0 l 25
 0 0 l 25
256 0 m 25
 256 128 l 25
 384 128 l 25
 384 0 l 25
 256 0 l 25
384 0 m 25
 384 128 l 25
 512 128 l 25
 512 0 l 25
 384 0 l 25
512 0 m 25
 512 128 l 25
 640 128 l 25
 640 0 l 25
 512 0 l 25
EndSplineSet
EndChar

StartChar: u0xd9
Encoding: 217 217 151
Width: 768
Flags: W
LayerCount: 2
Fore
SplineSet
128 1024 m 25
 128 1152 l 25
 256 1152 l 25
 256 1024 l 25
 128 1024 l 25
256 896 m 25
 256 1024 l 25
 384 1024 l 25
 384 896 l 25
 256 896 l 25
0 768 m 25
 0 896 l 25
 128 896 l 25
 128 768 l 25
 0 768 l 25
512 768 m 25
 512 896 l 25
 640 896 l 25
 640 768 l 25
 512 768 l 25
0 640 m 25
 0 768 l 25
 128 768 l 25
 128 640 l 25
 0 640 l 25
512 640 m 25
 512 768 l 25
 640 768 l 25
 640 640 l 25
 512 640 l 25
0 512 m 25
 0 640 l 25
 128 640 l 25
 128 512 l 25
 0 512 l 25
512 512 m 25
 512 640 l 25
 640 640 l 25
 640 512 l 25
 512 512 l 25
0 384 m 25
 0 512 l 25
 128 512 l 25
 128 384 l 25
 0 384 l 25
512 384 m 25
 512 512 l 25
 640 512 l 25
 640 384 l 25
 512 384 l 25
0 256 m 25
 0 384 l 25
 128 384 l 25
 128 256 l 25
 0 256 l 25
512 256 m 25
 512 384 l 25
 640 384 l 25
 640 256 l 25
 512 256 l 25
0 128 m 25
 0 256 l 25
 128 256 l 25
 128 128 l 25
 0 128 l 25
512 128 m 25
 512 256 l 25
 640 256 l 25
 640 128 l 25
 512 128 l 25
128 0 m 25
 128 128 l 25
 256 128 l 25
 256 0 l 25
 128 0 l 25
256 0 m 25
 256 128 l 25
 384 128 l 25
 384 0 l 25
 256 0 l 25
384 0 m 25
 384 128 l 25
 512 128 l 25
 512 0 l 25
 384 0 l 25
EndSplineSet
EndChar

StartChar: u0xda
Encoding: 218 218 152
Width: 768
Flags: W
LayerCount: 2
Fore
SplineSet
384 1024 m 25
 384 1152 l 25
 512 1152 l 25
 512 1024 l 25
 384 1024 l 25
256 896 m 25
 256 1024 l 25
 384 1024 l 25
 384 896 l 25
 256 896 l 25
0 768 m 25
 0 896 l 25
 128 896 l 25
 128 768 l 25
 0 768 l 25
512 768 m 25
 512 896 l 25
 640 896 l 25
 640 768 l 25
 512 768 l 25
0 640 m 25
 0 768 l 25
 128 768 l 25
 128 640 l 25
 0 640 l 25
512 640 m 25
 512 768 l 25
 640 768 l 25
 640 640 l 25
 512 640 l 25
0 512 m 25
 0 640 l 25
 128 640 l 25
 128 512 l 25
 0 512 l 25
512 512 m 25
 512 640 l 25
 640 640 l 25
 640 512 l 25
 512 512 l 25
0 384 m 25
 0 512 l 25
 128 512 l 25
 128 384 l 25
 0 384 l 25
512 384 m 25
 512 512 l 25
 640 512 l 25
 640 384 l 25
 512 384 l 25
0 256 m 25
 0 384 l 25
 128 384 l 25
 128 256 l 25
 0 256 l 25
512 256 m 25
 512 384 l 25
 640 384 l 25
 640 256 l 25
 512 256 l 25
0 128 m 25
 0 256 l 25
 128 256 l 25
 128 128 l 25
 0 128 l 25
512 128 m 25
 512 256 l 25
 640 256 l 25
 640 128 l 25
 512 128 l 25
128 0 m 25
 128 128 l 25
 256 128 l 25
 256 0 l 25
 128 0 l 25
256 0 m 25
 256 128 l 25
 384 128 l 25
 384 0 l 25
 256 0 l 25
384 0 m 25
 384 128 l 25
 512 128 l 25
 512 0 l 25
 384 0 l 25
EndSplineSet
EndChar

StartChar: u0xdb
Encoding: 219 219 153
Width: 768
Flags: W
LayerCount: 2
Fore
SplineSet
256 1152 m 25
 256 1280 l 25
 384 1280 l 25
 384 1152 l 25
 256 1152 l 25
128 1024 m 25
 128 1152 l 25
 256 1152 l 25
 256 1024 l 25
 128 1024 l 25
384 1024 m 25
 384 1152 l 25
 512 1152 l 25
 512 1024 l 25
 384 1024 l 25
0 768 m 25
 0 896 l 25
 128 896 l 25
 128 768 l 25
 0 768 l 25
512 768 m 25
 512 896 l 25
 640 896 l 25
 640 768 l 25
 512 768 l 25
0 640 m 25
 0 768 l 25
 128 768 l 25
 128 640 l 25
 0 640 l 25
512 640 m 25
 512 768 l 25
 640 768 l 25
 640 640 l 25
 512 640 l 25
0 512 m 25
 0 640 l 25
 128 640 l 25
 128 512 l 25
 0 512 l 25
512 512 m 25
 512 640 l 25
 640 640 l 25
 640 512 l 25
 512 512 l 25
0 384 m 25
 0 512 l 25
 128 512 l 25
 128 384 l 25
 0 384 l 25
512 384 m 25
 512 512 l 25
 640 512 l 25
 640 384 l 25
 512 384 l 25
0 256 m 25
 0 384 l 25
 128 384 l 25
 128 256 l 25
 0 256 l 25
512 256 m 25
 512 384 l 25
 640 384 l 25
 640 256 l 25
 512 256 l 25
0 128 m 25
 0 256 l 25
 128 256 l 25
 128 128 l 25
 0 128 l 25
512 128 m 25
 512 256 l 25
 640 256 l 25
 640 128 l 25
 512 128 l 25
128 0 m 25
 128 128 l 25
 256 128 l 25
 256 0 l 25
 128 0 l 25
256 0 m 25
 256 128 l 25
 384 128 l 25
 384 0 l 25
 256 0 l 25
384 0 m 25
 384 128 l 25
 512 128 l 25
 512 0 l 25
 384 0 l 25
EndSplineSet
EndChar

StartChar: u0xdc
Encoding: 220 220 154
Width: 768
Flags: W
LayerCount: 2
Fore
SplineSet
128 1024 m 25
 128 1152 l 25
 256 1152 l 25
 256 1024 l 25
 128 1024 l 25
384 1024 m 25
 384 1152 l 25
 512 1152 l 25
 512 1024 l 25
 384 1024 l 25
0 768 m 25
 0 896 l 25
 128 896 l 25
 128 768 l 25
 0 768 l 25
512 768 m 25
 512 896 l 25
 640 896 l 25
 640 768 l 25
 512 768 l 25
0 640 m 25
 0 768 l 25
 128 768 l 25
 128 640 l 25
 0 640 l 25
512 640 m 25
 512 768 l 25
 640 768 l 25
 640 640 l 25
 512 640 l 25
0 512 m 25
 0 640 l 25
 128 640 l 25
 128 512 l 25
 0 512 l 25
512 512 m 25
 512 640 l 25
 640 640 l 25
 640 512 l 25
 512 512 l 25
0 384 m 25
 0 512 l 25
 128 512 l 25
 128 384 l 25
 0 384 l 25
512 384 m 25
 512 512 l 25
 640 512 l 25
 640 384 l 25
 512 384 l 25
0 256 m 25
 0 384 l 25
 128 384 l 25
 128 256 l 25
 0 256 l 25
512 256 m 25
 512 384 l 25
 640 384 l 25
 640 256 l 25
 512 256 l 25
0 128 m 25
 0 256 l 25
 128 256 l 25
 128 128 l 25
 0 128 l 25
512 128 m 25
 512 256 l 25
 640 256 l 25
 640 128 l 25
 512 128 l 25
128 0 m 25
 128 128 l 25
 256 128 l 25
 256 0 l 25
 128 0 l 25
256 0 m 25
 256 128 l 25
 384 128 l 25
 384 0 l 25
 256 0 l 25
384 0 m 25
 384 128 l 25
 512 128 l 25
 512 0 l 25
 384 0 l 25
EndSplineSet
EndChar

StartChar: u0xdd
Encoding: 221 221 155
Width: 768
Flags: W
LayerCount: 2
Fore
SplineSet
384 1024 m 25
 384 1152 l 25
 512 1152 l 25
 512 1024 l 25
 384 1024 l 25
256 896 m 25
 256 1024 l 25
 384 1024 l 25
 384 896 l 25
 256 896 l 25
0 768 m 25
 0 896 l 25
 128 896 l 25
 128 768 l 25
 0 768 l 25
512 768 m 25
 512 896 l 25
 640 896 l 25
 640 768 l 25
 512 768 l 25
0 640 m 25
 0 768 l 25
 128 768 l 25
 128 640 l 25
 0 640 l 25
512 640 m 25
 512 768 l 25
 640 768 l 25
 640 640 l 25
 512 640 l 25
0 512 m 25
 0 640 l 25
 128 640 l 25
 128 512 l 25
 0 512 l 25
512 512 m 25
 512 640 l 25
 640 640 l 25
 640 512 l 25
 512 512 l 25
128 384 m 25
 128 512 l 25
 256 512 l 25
 256 384 l 25
 128 384 l 25
384 384 m 25
 384 512 l 25
 512 512 l 25
 512 384 l 25
 384 384 l 25
256 256 m 25
 256 384 l 25
 384 384 l 25
 384 256 l 25
 256 256 l 25
256 128 m 25
 256 256 l 25
 384 256 l 25
 384 128 l 25
 256 128 l 25
256 0 m 25
 256 128 l 25
 384 128 l 25
 384 0 l 25
 256 0 l 25
EndSplineSet
EndChar

StartChar: u0xde
Encoding: 222 222 156
Width: 640
Flags: W
LayerCount: 2
Fore
SplineSet
0 768 m 25
 0 896 l 25
 128 896 l 25
 128 768 l 25
 0 768 l 25
0 640 m 25
 0 768 l 25
 128 768 l 25
 128 640 l 25
 0 640 l 25
128 640 m 25
 128 768 l 25
 256 768 l 25
 256 640 l 25
 128 640 l 25
256 640 m 25
 256 768 l 25
 384 768 l 25
 384 640 l 25
 256 640 l 25
0 512 m 25
 0 640 l 25
 128 640 l 25
 128 512 l 25
 0 512 l 25
384 512 m 25
 384 640 l 25
 512 640 l 25
 512 512 l 25
 384 512 l 25
0 384 m 25
 0 512 l 25
 128 512 l 25
 128 384 l 25
 0 384 l 25
384 384 m 25
 384 512 l 25
 512 512 l 25
 512 384 l 25
 384 384 l 25
0 256 m 25
 0 384 l 25
 128 384 l 25
 128 256 l 25
 0 256 l 25
128 256 m 25
 128 384 l 25
 256 384 l 25
 256 256 l 25
 128 256 l 25
256 256 m 25
 256 384 l 25
 384 384 l 25
 384 256 l 25
 256 256 l 25
0 128 m 25
 0 256 l 25
 128 256 l 25
 128 128 l 25
 0 128 l 25
0 0 m 25
 0 128 l 25
 128 128 l 25
 128 0 l 25
 0 0 l 25
EndSplineSet
EndChar

StartChar: u0xdf
Encoding: 223 223 157
Width: 640
Flags: W
LayerCount: 2
Fore
SplineSet
128 768 m 25
 128 896 l 25
 256 896 l 25
 256 768 l 25
 128 768 l 25
256 768 m 25
 256 896 l 25
 384 896 l 25
 384 768 l 25
 256 768 l 25
0 640 m 25
 0 768 l 25
 128 768 l 25
 128 640 l 25
 0 640 l 25
384 640 m 25
 384 768 l 25
 512 768 l 25
 512 640 l 25
 384 640 l 25
0 512 m 25
 0 640 l 25
 128 640 l 25
 128 512 l 25
 0 512 l 25
384 512 m 25
 384 640 l 25
 512 640 l 25
 512 512 l 25
 384 512 l 25
0 384 m 25
 0 512 l 25
 128 512 l 25
 128 384 l 25
 0 384 l 25
256 384 m 25
 256 512 l 25
 384 512 l 25
 384 384 l 25
 256 384 l 25
0 256 m 25
 0 384 l 25
 128 384 l 25
 128 256 l 25
 0 256 l 25
384 256 m 25
 384 384 l 25
 512 384 l 25
 512 256 l 25
 384 256 l 25
0 128 m 25
 0 256 l 25
 128 256 l 25
 128 128 l 25
 0 128 l 25
384 128 m 25
 384 256 l 25
 512 256 l 25
 512 128 l 25
 384 128 l 25
0 0 m 25
 0 128 l 25
 128 128 l 25
 128 0 l 25
 0 0 l 25
256 0 m 25
 256 128 l 25
 384 128 l 25
 384 0 l 25
 256 0 l 25
EndSplineSet
EndChar

StartChar: u0xe0
Encoding: 224 224 158
Width: 640
Flags: W
LayerCount: 2
Fore
SplineSet
128 896 m 25
 128 1024 l 25
 256 1024 l 25
 256 896 l 25
 128 896 l 25
256 768 m 25
 256 896 l 25
 384 896 l 25
 384 768 l 25
 256 768 l 25
128 512 m 25
 128 640 l 25
 256 640 l 25
 256 512 l 25
 128 512 l 25
256 512 m 25
 256 640 l 25
 384 640 l 25
 384 512 l 25
 256 512 l 25
384 384 m 25
 384 512 l 25
 512 512 l 25
 512 384 l 25
 384 384 l 25
128 256 m 25
 128 384 l 25
 256 384 l 25
 256 256 l 25
 128 256 l 25
256 256 m 25
 256 384 l 25
 384 384 l 25
 384 256 l 25
 256 256 l 25
384 256 m 25
 384 384 l 25
 512 384 l 25
 512 256 l 25
 384 256 l 25
0 128 m 25
 0 256 l 25
 128 256 l 25
 128 128 l 25
 0 128 l 25
384 128 m 25
 384 256 l 25
 512 256 l 25
 512 128 l 25
 384 128 l 25
128 0 m 25
 128 128 l 25
 256 128 l 25
 256 0 l 25
 128 0 l 25
256 0 m 25
 256 128 l 25
 384 128 l 25
 384 0 l 25
 256 0 l 25
384 0 m 25
 384 128 l 25
 512 128 l 25
 512 0 l 25
 384 0 l 25
EndSplineSet
EndChar

StartChar: u0xe1
Encoding: 225 225 159
Width: 640
Flags: W
LayerCount: 2
Fore
SplineSet
256 896 m 25
 256 1024 l 25
 384 1024 l 25
 384 896 l 25
 256 896 l 25
128 768 m 25
 128 896 l 25
 256 896 l 25
 256 768 l 25
 128 768 l 25
128 512 m 25
 128 640 l 25
 256 640 l 25
 256 512 l 25
 128 512 l 25
256 512 m 25
 256 640 l 25
 384 640 l 25
 384 512 l 25
 256 512 l 25
384 384 m 25
 384 512 l 25
 512 512 l 25
 512 384 l 25
 384 384 l 25
128 256 m 25
 128 384 l 25
 256 384 l 25
 256 256 l 25
 128 256 l 25
256 256 m 25
 256 384 l 25
 384 384 l 25
 384 256 l 25
 256 256 l 25
384 256 m 25
 384 384 l 25
 512 384 l 25
 512 256 l 25
 384 256 l 25
0 128 m 25
 0 256 l 25
 128 256 l 25
 128 128 l 25
 0 128 l 25
384 128 m 25
 384 256 l 25
 512 256 l 25
 512 128 l 25
 384 128 l 25
128 0 m 25
 128 128 l 25
 256 128 l 25
 256 0 l 25
 128 0 l 25
256 0 m 25
 256 128 l 25
 384 128 l 25
 384 0 l 25
 256 0 l 25
384 0 m 25
 384 128 l 25
 512 128 l 25
 512 0 l 25
 384 0 l 25
EndSplineSet
EndChar

StartChar: u0xe2
Encoding: 226 226 160
Width: 640
Flags: W
LayerCount: 2
Fore
SplineSet
256 896 m 25
 256 1024 l 25
 384 1024 l 25
 384 896 l 25
 256 896 l 25
128 768 m 25
 128 896 l 25
 256 896 l 25
 256 768 l 25
 128 768 l 25
384 768 m 25
 384 896 l 25
 512 896 l 25
 512 768 l 25
 384 768 l 25
128 512 m 25
 128 640 l 25
 256 640 l 25
 256 512 l 25
 128 512 l 25
256 512 m 25
 256 640 l 25
 384 640 l 25
 384 512 l 25
 256 512 l 25
384 384 m 25
 384 512 l 25
 512 512 l 25
 512 384 l 25
 384 384 l 25
128 256 m 25
 128 384 l 25
 256 384 l 25
 256 256 l 25
 128 256 l 25
256 256 m 25
 256 384 l 25
 384 384 l 25
 384 256 l 25
 256 256 l 25
384 256 m 25
 384 384 l 25
 512 384 l 25
 512 256 l 25
 384 256 l 25
0 128 m 25
 0 256 l 25
 128 256 l 25
 128 128 l 25
 0 128 l 25
384 128 m 25
 384 256 l 25
 512 256 l 25
 512 128 l 25
 384 128 l 25
128 0 m 25
 128 128 l 25
 256 128 l 25
 256 0 l 25
 128 0 l 25
256 0 m 25
 256 128 l 25
 384 128 l 25
 384 0 l 25
 256 0 l 25
384 0 m 25
 384 128 l 25
 512 128 l 25
 512 0 l 25
 384 0 l 25
EndSplineSet
EndChar

StartChar: u0xe3
Encoding: 227 227 161
Width: 640
Flags: W
LayerCount: 2
Fore
SplineSet
128 896 m 25
 128 1024 l 25
 256 1024 l 25
 256 896 l 25
 128 896 l 25
384 896 m 25
 384 1024 l 25
 512 1024 l 25
 512 896 l 25
 384 896 l 25
0 768 m 25
 0 896 l 25
 128 896 l 25
 128 768 l 25
 0 768 l 25
256 768 m 25
 256 896 l 25
 384 896 l 25
 384 768 l 25
 256 768 l 25
128 512 m 25
 128 640 l 25
 256 640 l 25
 256 512 l 25
 128 512 l 25
256 512 m 25
 256 640 l 25
 384 640 l 25
 384 512 l 25
 256 512 l 25
384 384 m 25
 384 512 l 25
 512 512 l 25
 512 384 l 25
 384 384 l 25
128 256 m 25
 128 384 l 25
 256 384 l 25
 256 256 l 25
 128 256 l 25
256 256 m 25
 256 384 l 25
 384 384 l 25
 384 256 l 25
 256 256 l 25
384 256 m 25
 384 384 l 25
 512 384 l 25
 512 256 l 25
 384 256 l 25
0 128 m 25
 0 256 l 25
 128 256 l 25
 128 128 l 25
 0 128 l 25
384 128 m 25
 384 256 l 25
 512 256 l 25
 512 128 l 25
 384 128 l 25
128 0 m 25
 128 128 l 25
 256 128 l 25
 256 0 l 25
 128 0 l 25
256 0 m 25
 256 128 l 25
 384 128 l 25
 384 0 l 25
 256 0 l 25
384 0 m 25
 384 128 l 25
 512 128 l 25
 512 0 l 25
 384 0 l 25
EndSplineSet
EndChar

StartChar: u0xe4
Encoding: 228 228 162
Width: 640
Flags: W
LayerCount: 2
Fore
SplineSet
128 768 m 25
 128 896 l 25
 256 896 l 25
 256 768 l 25
 128 768 l 25
384 768 m 25
 384 896 l 25
 512 896 l 25
 512 768 l 25
 384 768 l 25
128 512 m 25
 128 640 l 25
 256 640 l 25
 256 512 l 25
 128 512 l 25
256 512 m 25
 256 640 l 25
 384 640 l 25
 384 512 l 25
 256 512 l 25
384 384 m 25
 384 512 l 25
 512 512 l 25
 512 384 l 25
 384 384 l 25
128 256 m 25
 128 384 l 25
 256 384 l 25
 256 256 l 25
 128 256 l 25
256 256 m 25
 256 384 l 25
 384 384 l 25
 384 256 l 25
 256 256 l 25
384 256 m 25
 384 384 l 25
 512 384 l 25
 512 256 l 25
 384 256 l 25
0 128 m 25
 0 256 l 25
 128 256 l 25
 128 128 l 25
 0 128 l 25
384 128 m 25
 384 256 l 25
 512 256 l 25
 512 128 l 25
 384 128 l 25
128 0 m 25
 128 128 l 25
 256 128 l 25
 256 0 l 25
 128 0 l 25
256 0 m 25
 256 128 l 25
 384 128 l 25
 384 0 l 25
 256 0 l 25
384 0 m 25
 384 128 l 25
 512 128 l 25
 512 0 l 25
 384 0 l 25
EndSplineSet
EndChar

StartChar: u0xe5
Encoding: 229 229 163
Width: 640
Flags: W
LayerCount: 2
Fore
SplineSet
256 1024 m 25
 256 1152 l 25
 384 1152 l 25
 384 1024 l 25
 256 1024 l 25
128 896 m 25
 128 1024 l 25
 256 1024 l 25
 256 896 l 25
 128 896 l 25
384 896 m 25
 384 1024 l 25
 512 1024 l 25
 512 896 l 25
 384 896 l 25
256 768 m 25
 256 896 l 25
 384 896 l 25
 384 768 l 25
 256 768 l 25
128 512 m 25
 128 640 l 25
 256 640 l 25
 256 512 l 25
 128 512 l 25
256 512 m 25
 256 640 l 25
 384 640 l 25
 384 512 l 25
 256 512 l 25
384 384 m 25
 384 512 l 25
 512 512 l 25
 512 384 l 25
 384 384 l 25
128 256 m 25
 128 384 l 25
 256 384 l 25
 256 256 l 25
 128 256 l 25
256 256 m 25
 256 384 l 25
 384 384 l 25
 384 256 l 25
 256 256 l 25
384 256 m 25
 384 384 l 25
 512 384 l 25
 512 256 l 25
 384 256 l 25
0 128 m 25
 0 256 l 25
 128 256 l 25
 128 128 l 25
 0 128 l 25
384 128 m 25
 384 256 l 25
 512 256 l 25
 512 128 l 25
 384 128 l 25
128 0 m 25
 128 128 l 25
 256 128 l 25
 256 0 l 25
 128 0 l 25
256 0 m 25
 256 128 l 25
 384 128 l 25
 384 0 l 25
 256 0 l 25
384 0 m 25
 384 128 l 25
 512 128 l 25
 512 0 l 25
 384 0 l 25
EndSplineSet
EndChar

StartChar: u0xe6
Encoding: 230 230 164
Width: 1024
Flags: W
LayerCount: 2
Fore
SplineSet
128 512 m 25
 128 640 l 25
 256 640 l 25
 256 512 l 25
 128 512 l 25
256 512 m 25
 256 640 l 25
 384 640 l 25
 384 512 l 25
 256 512 l 25
512 512 m 25
 512 640 l 25
 640 640 l 25
 640 512 l 25
 512 512 l 25
640 512 m 25
 640 640 l 25
 768 640 l 25
 768 512 l 25
 640 512 l 25
384 384 m 25
 384 512 l 25
 512 512 l 25
 512 384 l 25
 384 384 l 25
768 384 m 25
 768 512 l 25
 896 512 l 25
 896 384 l 25
 768 384 l 25
128 256 m 25
 128 384 l 25
 256 384 l 25
 256 256 l 25
 128 256 l 25
256 256 m 25
 256 384 l 25
 384 384 l 25
 384 256 l 25
 256 256 l 25
384 256 m 25
 384 384 l 25
 512 384 l 25
 512 256 l 25
 384 256 l 25
512 256 m 25
 512 384 l 25
 640 384 l 25
 640 256 l 25
 512 256 l 25
640 256 m 25
 640 384 l 25
 768 384 l 25
 768 256 l 25
 640 256 l 25
768 256 m 25
 768 384 l 25
 896 384 l 25
 896 256 l 25
 768 256 l 25
0 128 m 25
 0 256 l 25
 128 256 l 25
 128 128 l 25
 0 128 l 25
384 128 m 25
 384 256 l 25
 512 256 l 25
 512 128 l 25
 384 128 l 25
128 0 m 25
 128 128 l 25
 256 128 l 25
 256 0 l 25
 128 0 l 25
256 0 m 25
 256 128 l 25
 384 128 l 25
 384 0 l 25
 256 0 l 25
512 0 m 25
 512 128 l 25
 640 128 l 25
 640 0 l 25
 512 0 l 25
640 0 m 25
 640 128 l 25
 768 128 l 25
 768 0 l 25
 640 0 l 25
EndSplineSet
EndChar

StartChar: u0xe7
Encoding: 231 231 165
Width: 512
Flags: W
LayerCount: 2
Fore
SplineSet
128 512 m 25
 128 640 l 25
 256 640 l 25
 256 512 l 25
 128 512 l 25
256 512 m 25
 256 640 l 25
 384 640 l 25
 384 512 l 25
 256 512 l 25
0 384 m 25
 0 512 l 25
 128 512 l 25
 128 384 l 25
 0 384 l 25
0 256 m 25
 0 384 l 25
 128 384 l 25
 128 256 l 25
 0 256 l 25
0 128 m 25
 0 256 l 25
 128 256 l 25
 128 128 l 25
 0 128 l 25
128 0 m 25
 128 128 l 25
 256 128 l 25
 256 0 l 25
 128 0 l 25
256 0 m 25
 256 128 l 25
 384 128 l 25
 384 0 l 25
 256 0 l 25
256 -128 m 25
 256 0 l 25
 384 0 l 25
 384 -128 l 25
 256 -128 l 25
128 -256 m 25
 128 -128 l 25
 256 -128 l 25
 256 -256 l 25
 128 -256 l 25
EndSplineSet
EndChar

StartChar: u0xe8
Encoding: 232 232 166
Width: 640
Flags: W
LayerCount: 2
Fore
SplineSet
128 896 m 25
 128 1024 l 25
 256 1024 l 25
 256 896 l 25
 128 896 l 25
256 768 m 25
 256 896 l 25
 384 896 l 25
 384 768 l 25
 256 768 l 25
128 512 m 25
 128 640 l 25
 256 640 l 25
 256 512 l 25
 128 512 l 25
256 512 m 25
 256 640 l 25
 384 640 l 25
 384 512 l 25
 256 512 l 25
0 384 m 25
 0 512 l 25
 128 512 l 25
 128 384 l 25
 0 384 l 25
384 384 m 25
 384 512 l 25
 512 512 l 25
 512 384 l 25
 384 384 l 25
0 256 m 25
 0 384 l 25
 128 384 l 25
 128 256 l 25
 0 256 l 25
128 256 m 25
 128 384 l 25
 256 384 l 25
 256 256 l 25
 128 256 l 25
256 256 m 25
 256 384 l 25
 384 384 l 25
 384 256 l 25
 256 256 l 25
384 256 m 25
 384 384 l 25
 512 384 l 25
 512 256 l 25
 384 256 l 25
0 128 m 25
 0 256 l 25
 128 256 l 25
 128 128 l 25
 0 128 l 25
128 0 m 25
 128 128 l 25
 256 128 l 25
 256 0 l 25
 128 0 l 25
256 0 m 25
 256 128 l 25
 384 128 l 25
 384 0 l 25
 256 0 l 25
EndSplineSet
EndChar

StartChar: u0xe9
Encoding: 233 233 167
Width: 640
Flags: W
LayerCount: 2
Fore
SplineSet
256 896 m 25
 256 1024 l 25
 384 1024 l 25
 384 896 l 25
 256 896 l 25
128 768 m 25
 128 896 l 25
 256 896 l 25
 256 768 l 25
 128 768 l 25
128 512 m 25
 128 640 l 25
 256 640 l 25
 256 512 l 25
 128 512 l 25
256 512 m 25
 256 640 l 25
 384 640 l 25
 384 512 l 25
 256 512 l 25
0 384 m 25
 0 512 l 25
 128 512 l 25
 128 384 l 25
 0 384 l 25
384 384 m 25
 384 512 l 25
 512 512 l 25
 512 384 l 25
 384 384 l 25
0 256 m 25
 0 384 l 25
 128 384 l 25
 128 256 l 25
 0 256 l 25
128 256 m 25
 128 384 l 25
 256 384 l 25
 256 256 l 25
 128 256 l 25
256 256 m 25
 256 384 l 25
 384 384 l 25
 384 256 l 25
 256 256 l 25
384 256 m 25
 384 384 l 25
 512 384 l 25
 512 256 l 25
 384 256 l 25
0 128 m 25
 0 256 l 25
 128 256 l 25
 128 128 l 25
 0 128 l 25
128 0 m 25
 128 128 l 25
 256 128 l 25
 256 0 l 25
 128 0 l 25
256 0 m 25
 256 128 l 25
 384 128 l 25
 384 0 l 25
 256 0 l 25
EndSplineSet
EndChar

StartChar: u0xea
Encoding: 234 234 168
Width: 640
Flags: W
LayerCount: 2
Fore
SplineSet
128 896 m 25
 128 1024 l 25
 256 1024 l 25
 256 896 l 25
 128 896 l 25
256 896 m 25
 256 1024 l 25
 384 1024 l 25
 384 896 l 25
 256 896 l 25
0 768 m 25
 0 896 l 25
 128 896 l 25
 128 768 l 25
 0 768 l 25
384 768 m 25
 384 896 l 25
 512 896 l 25
 512 768 l 25
 384 768 l 25
128 512 m 25
 128 640 l 25
 256 640 l 25
 256 512 l 25
 128 512 l 25
256 512 m 25
 256 640 l 25
 384 640 l 25
 384 512 l 25
 256 512 l 25
0 384 m 25
 0 512 l 25
 128 512 l 25
 128 384 l 25
 0 384 l 25
384 384 m 25
 384 512 l 25
 512 512 l 25
 512 384 l 25
 384 384 l 25
0 256 m 25
 0 384 l 25
 128 384 l 25
 128 256 l 25
 0 256 l 25
128 256 m 25
 128 384 l 25
 256 384 l 25
 256 256 l 25
 128 256 l 25
256 256 m 25
 256 384 l 25
 384 384 l 25
 384 256 l 25
 256 256 l 25
384 256 m 25
 384 384 l 25
 512 384 l 25
 512 256 l 25
 384 256 l 25
0 128 m 25
 0 256 l 25
 128 256 l 25
 128 128 l 25
 0 128 l 25
128 0 m 25
 128 128 l 25
 256 128 l 25
 256 0 l 25
 128 0 l 25
256 0 m 25
 256 128 l 25
 384 128 l 25
 384 0 l 25
 256 0 l 25
EndSplineSet
EndChar

StartChar: u0xeb
Encoding: 235 235 169
Width: 640
Flags: W
LayerCount: 2
Fore
SplineSet
0 768 m 25
 0 896 l 25
 128 896 l 25
 128 768 l 25
 0 768 l 25
384 768 m 25
 384 896 l 25
 512 896 l 25
 512 768 l 25
 384 768 l 25
128 512 m 25
 128 640 l 25
 256 640 l 25
 256 512 l 25
 128 512 l 25
256 512 m 25
 256 640 l 25
 384 640 l 25
 384 512 l 25
 256 512 l 25
0 384 m 25
 0 512 l 25
 128 512 l 25
 128 384 l 25
 0 384 l 25
384 384 m 25
 384 512 l 25
 512 512 l 25
 512 384 l 25
 384 384 l 25
0 256 m 25
 0 384 l 25
 128 384 l 25
 128 256 l 25
 0 256 l 25
128 256 m 25
 128 384 l 25
 256 384 l 25
 256 256 l 25
 128 256 l 25
256 256 m 25
 256 384 l 25
 384 384 l 25
 384 256 l 25
 256 256 l 25
384 256 m 25
 384 384 l 25
 512 384 l 25
 512 256 l 25
 384 256 l 25
0 128 m 25
 0 256 l 25
 128 256 l 25
 128 128 l 25
 0 128 l 25
128 0 m 25
 128 128 l 25
 256 128 l 25
 256 0 l 25
 128 0 l 25
256 0 m 25
 256 128 l 25
 384 128 l 25
 384 0 l 25
 256 0 l 25
EndSplineSet
EndChar

StartChar: u0xec
Encoding: 236 236 170
Width: 384
Flags: W
LayerCount: 2
Fore
SplineSet
0 896 m 25
 0 1024 l 25
 128 1024 l 25
 128 896 l 25
 0 896 l 25
128 768 m 25
 128 896 l 25
 256 896 l 25
 256 768 l 25
 128 768 l 25
128 512 m 25
 128 640 l 25
 256 640 l 25
 256 512 l 25
 128 512 l 25
128 384 m 25
 128 512 l 25
 256 512 l 25
 256 384 l 25
 128 384 l 25
128 256 m 25
 128 384 l 25
 256 384 l 25
 256 256 l 25
 128 256 l 25
128 128 m 25
 128 256 l 25
 256 256 l 25
 256 128 l 25
 128 128 l 25
128 0 m 25
 128 128 l 25
 256 128 l 25
 256 0 l 25
 128 0 l 25
EndSplineSet
EndChar

StartChar: u0xed
Encoding: 237 237 171
Width: 384
Flags: W
LayerCount: 2
Fore
SplineSet
128 896 m 25
 128 1024 l 25
 256 1024 l 25
 256 896 l 25
 128 896 l 25
0 768 m 25
 0 896 l 25
 128 896 l 25
 128 768 l 25
 0 768 l 25
0 512 m 25
 0 640 l 25
 128 640 l 25
 128 512 l 25
 0 512 l 25
0 384 m 25
 0 512 l 25
 128 512 l 25
 128 384 l 25
 0 384 l 25
0 256 m 25
 0 384 l 25
 128 384 l 25
 128 256 l 25
 0 256 l 25
0 128 m 25
 0 256 l 25
 128 256 l 25
 128 128 l 25
 0 128 l 25
0 0 m 25
 0 128 l 25
 128 128 l 25
 128 0 l 25
 0 0 l 25
EndSplineSet
EndChar

StartChar: u0xee
Encoding: 238 238 172
Width: 512
Flags: W
LayerCount: 2
Fore
SplineSet
128 896 m 25
 128 1024 l 25
 256 1024 l 25
 256 896 l 25
 128 896 l 25
0 768 m 25
 0 896 l 25
 128 896 l 25
 128 768 l 25
 0 768 l 25
256 768 m 25
 256 896 l 25
 384 896 l 25
 384 768 l 25
 256 768 l 25
128 512 m 25
 128 640 l 25
 256 640 l 25
 256 512 l 25
 128 512 l 25
128 384 m 25
 128 512 l 25
 256 512 l 25
 256 384 l 25
 128 384 l 25
128 256 m 25
 128 384 l 25
 256 384 l 25
 256 256 l 25
 128 256 l 25
128 128 m 25
 128 256 l 25
 256 256 l 25
 256 128 l 25
 128 128 l 25
128 0 m 25
 128 128 l 25
 256 128 l 25
 256 0 l 25
 128 0 l 25
EndSplineSet
EndChar

StartChar: u0xef
Encoding: 239 239 173
Width: 512
Flags: W
LayerCount: 2
Fore
SplineSet
0 768 m 25
 0 896 l 25
 128 896 l 25
 128 768 l 25
 0 768 l 25
256 768 m 25
 256 896 l 25
 384 896 l 25
 384 768 l 25
 256 768 l 25
128 512 m 25
 128 640 l 25
 256 640 l 25
 256 512 l 25
 128 512 l 25
128 384 m 25
 128 512 l 25
 256 512 l 25
 256 384 l 25
 128 384 l 25
128 256 m 25
 128 384 l 25
 256 384 l 25
 256 256 l 25
 128 256 l 25
128 128 m 25
 128 256 l 25
 256 256 l 25
 256 128 l 25
 128 128 l 25
128 0 m 25
 128 128 l 25
 256 128 l 25
 256 0 l 25
 128 0 l 25
EndSplineSet
EndChar

StartChar: u0xf0
Encoding: 240 240 174
Width: 640
Flags: W
LayerCount: 2
Fore
SplineSet
128 1024 m 25
 128 1152 l 25
 256 1152 l 25
 256 1024 l 25
 128 1024 l 25
384 1024 m 25
 384 1152 l 25
 512 1152 l 25
 512 1024 l 25
 384 1024 l 25
256 896 m 25
 256 1024 l 25
 384 1024 l 25
 384 896 l 25
 256 896 l 25
128 768 m 25
 128 896 l 25
 256 896 l 25
 256 768 l 25
 128 768 l 25
384 768 m 25
 384 896 l 25
 512 896 l 25
 512 768 l 25
 384 768 l 25
384 640 m 25
 384 768 l 25
 512 768 l 25
 512 640 l 25
 384 640 l 25
128 512 m 25
 128 640 l 25
 256 640 l 25
 256 512 l 25
 128 512 l 25
256 512 m 25
 256 640 l 25
 384 640 l 25
 384 512 l 25
 256 512 l 25
384 512 m 25
 384 640 l 25
 512 640 l 25
 512 512 l 25
 384 512 l 25
0 384 m 25
 0 512 l 25
 128 512 l 25
 128 384 l 25
 0 384 l 25
384 384 m 25
 384 512 l 25
 512 512 l 25
 512 384 l 25
 384 384 l 25
0 256 m 25
 0 384 l 25
 128 384 l 25
 128 256 l 25
 0 256 l 25
384 256 m 25
 384 384 l 25
 512 384 l 25
 512 256 l 25
 384 256 l 25
0 128 m 25
 0 256 l 25
 128 256 l 25
 128 128 l 25
 0 128 l 25
384 128 m 25
 384 256 l 25
 512 256 l 25
 512 128 l 25
 384 128 l 25
128 0 m 25
 128 128 l 25
 256 128 l 25
 256 0 l 25
 128 0 l 25
256 0 m 25
 256 128 l 25
 384 128 l 25
 384 0 l 25
 256 0 l 25
EndSplineSet
EndChar

StartChar: u0xf1
Encoding: 241 241 175
Width: 640
Flags: W
LayerCount: 2
Fore
SplineSet
128 896 m 25
 128 1024 l 25
 256 1024 l 25
 256 896 l 25
 128 896 l 25
384 896 m 25
 384 1024 l 25
 512 1024 l 25
 512 896 l 25
 384 896 l 25
0 768 m 25
 0 896 l 25
 128 896 l 25
 128 768 l 25
 0 768 l 25
256 768 m 25
 256 896 l 25
 384 896 l 25
 384 768 l 25
 256 768 l 25
0 512 m 25
 0 640 l 25
 128 640 l 25
 128 512 l 25
 0 512 l 25
128 512 m 25
 128 640 l 25
 256 640 l 25
 256 512 l 25
 128 512 l 25
256 512 m 25
 256 640 l 25
 384 640 l 25
 384 512 l 25
 256 512 l 25
0 384 m 25
 0 512 l 25
 128 512 l 25
 128 384 l 25
 0 384 l 25
384 384 m 25
 384 512 l 25
 512 512 l 25
 512 384 l 25
 384 384 l 25
0 256 m 25
 0 384 l 25
 128 384 l 25
 128 256 l 25
 0 256 l 25
384 256 m 25
 384 384 l 25
 512 384 l 25
 512 256 l 25
 384 256 l 25
0 128 m 25
 0 256 l 25
 128 256 l 25
 128 128 l 25
 0 128 l 25
384 128 m 25
 384 256 l 25
 512 256 l 25
 512 128 l 25
 384 128 l 25
0 0 m 25
 0 128 l 25
 128 128 l 25
 128 0 l 25
 0 0 l 25
384 0 m 25
 384 128 l 25
 512 128 l 25
 512 0 l 25
 384 0 l 25
EndSplineSet
EndChar

StartChar: u0xf2
Encoding: 242 242 176
Width: 640
Flags: W
LayerCount: 2
Fore
SplineSet
128 896 m 25
 128 1024 l 25
 256 1024 l 25
 256 896 l 25
 128 896 l 25
256 768 m 25
 256 896 l 25
 384 896 l 25
 384 768 l 25
 256 768 l 25
128 512 m 25
 128 640 l 25
 256 640 l 25
 256 512 l 25
 128 512 l 25
256 512 m 25
 256 640 l 25
 384 640 l 25
 384 512 l 25
 256 512 l 25
0 384 m 25
 0 512 l 25
 128 512 l 25
 128 384 l 25
 0 384 l 25
384 384 m 25
 384 512 l 25
 512 512 l 25
 512 384 l 25
 384 384 l 25
0 256 m 25
 0 384 l 25
 128 384 l 25
 128 256 l 25
 0 256 l 25
384 256 m 25
 384 384 l 25
 512 384 l 25
 512 256 l 25
 384 256 l 25
0 128 m 25
 0 256 l 25
 128 256 l 25
 128 128 l 25
 0 128 l 25
384 128 m 25
 384 256 l 25
 512 256 l 25
 512 128 l 25
 384 128 l 25
128 0 m 25
 128 128 l 25
 256 128 l 25
 256 0 l 25
 128 0 l 25
256 0 m 25
 256 128 l 25
 384 128 l 25
 384 0 l 25
 256 0 l 25
EndSplineSet
EndChar

StartChar: u0xf3
Encoding: 243 243 177
Width: 640
Flags: W
LayerCount: 2
Fore
SplineSet
256 896 m 25
 256 1024 l 25
 384 1024 l 25
 384 896 l 25
 256 896 l 25
128 768 m 25
 128 896 l 25
 256 896 l 25
 256 768 l 25
 128 768 l 25
128 512 m 25
 128 640 l 25
 256 640 l 25
 256 512 l 25
 128 512 l 25
256 512 m 25
 256 640 l 25
 384 640 l 25
 384 512 l 25
 256 512 l 25
0 384 m 25
 0 512 l 25
 128 512 l 25
 128 384 l 25
 0 384 l 25
384 384 m 25
 384 512 l 25
 512 512 l 25
 512 384 l 25
 384 384 l 25
0 256 m 25
 0 384 l 25
 128 384 l 25
 128 256 l 25
 0 256 l 25
384 256 m 25
 384 384 l 25
 512 384 l 25
 512 256 l 25
 384 256 l 25
0 128 m 25
 0 256 l 25
 128 256 l 25
 128 128 l 25
 0 128 l 25
384 128 m 25
 384 256 l 25
 512 256 l 25
 512 128 l 25
 384 128 l 25
128 0 m 25
 128 128 l 25
 256 128 l 25
 256 0 l 25
 128 0 l 25
256 0 m 25
 256 128 l 25
 384 128 l 25
 384 0 l 25
 256 0 l 25
EndSplineSet
EndChar

StartChar: u0xf4
Encoding: 244 244 178
Width: 640
Flags: W
LayerCount: 2
Fore
SplineSet
128 896 m 25
 128 1024 l 25
 256 1024 l 25
 256 896 l 25
 128 896 l 25
256 896 m 25
 256 1024 l 25
 384 1024 l 25
 384 896 l 25
 256 896 l 25
0 768 m 25
 0 896 l 25
 128 896 l 25
 128 768 l 25
 0 768 l 25
384 768 m 25
 384 896 l 25
 512 896 l 25
 512 768 l 25
 384 768 l 25
128 512 m 25
 128 640 l 25
 256 640 l 25
 256 512 l 25
 128 512 l 25
256 512 m 25
 256 640 l 25
 384 640 l 25
 384 512 l 25
 256 512 l 25
0 384 m 25
 0 512 l 25
 128 512 l 25
 128 384 l 25
 0 384 l 25
384 384 m 25
 384 512 l 25
 512 512 l 25
 512 384 l 25
 384 384 l 25
0 256 m 25
 0 384 l 25
 128 384 l 25
 128 256 l 25
 0 256 l 25
384 256 m 25
 384 384 l 25
 512 384 l 25
 512 256 l 25
 384 256 l 25
0 128 m 25
 0 256 l 25
 128 256 l 25
 128 128 l 25
 0 128 l 25
384 128 m 25
 384 256 l 25
 512 256 l 25
 512 128 l 25
 384 128 l 25
128 0 m 25
 128 128 l 25
 256 128 l 25
 256 0 l 25
 128 0 l 25
256 0 m 25
 256 128 l 25
 384 128 l 25
 384 0 l 25
 256 0 l 25
EndSplineSet
EndChar

StartChar: u0xf5
Encoding: 245 245 179
Width: 640
Flags: W
LayerCount: 2
Fore
SplineSet
128 896 m 25
 128 1024 l 25
 256 1024 l 25
 256 896 l 25
 128 896 l 25
384 896 m 25
 384 1024 l 25
 512 1024 l 25
 512 896 l 25
 384 896 l 25
0 768 m 25
 0 896 l 25
 128 896 l 25
 128 768 l 25
 0 768 l 25
256 768 m 25
 256 896 l 25
 384 896 l 25
 384 768 l 25
 256 768 l 25
128 512 m 25
 128 640 l 25
 256 640 l 25
 256 512 l 25
 128 512 l 25
256 512 m 25
 256 640 l 25
 384 640 l 25
 384 512 l 25
 256 512 l 25
0 384 m 25
 0 512 l 25
 128 512 l 25
 128 384 l 25
 0 384 l 25
384 384 m 25
 384 512 l 25
 512 512 l 25
 512 384 l 25
 384 384 l 25
0 256 m 25
 0 384 l 25
 128 384 l 25
 128 256 l 25
 0 256 l 25
384 256 m 25
 384 384 l 25
 512 384 l 25
 512 256 l 25
 384 256 l 25
0 128 m 25
 0 256 l 25
 128 256 l 25
 128 128 l 25
 0 128 l 25
384 128 m 25
 384 256 l 25
 512 256 l 25
 512 128 l 25
 384 128 l 25
128 0 m 25
 128 128 l 25
 256 128 l 25
 256 0 l 25
 128 0 l 25
256 0 m 25
 256 128 l 25
 384 128 l 25
 384 0 l 25
 256 0 l 25
EndSplineSet
EndChar

StartChar: u0xf6
Encoding: 246 246 180
Width: 640
Flags: W
LayerCount: 2
Fore
SplineSet
0 768 m 25
 0 896 l 25
 128 896 l 25
 128 768 l 25
 0 768 l 25
384 768 m 25
 384 896 l 25
 512 896 l 25
 512 768 l 25
 384 768 l 25
128 512 m 25
 128 640 l 25
 256 640 l 25
 256 512 l 25
 128 512 l 25
256 512 m 25
 256 640 l 25
 384 640 l 25
 384 512 l 25
 256 512 l 25
0 384 m 25
 0 512 l 25
 128 512 l 25
 128 384 l 25
 0 384 l 25
384 384 m 25
 384 512 l 25
 512 512 l 25
 512 384 l 25
 384 384 l 25
0 256 m 25
 0 384 l 25
 128 384 l 25
 128 256 l 25
 0 256 l 25
384 256 m 25
 384 384 l 25
 512 384 l 25
 512 256 l 25
 384 256 l 25
0 128 m 25
 0 256 l 25
 128 256 l 25
 128 128 l 25
 0 128 l 25
384 128 m 25
 384 256 l 25
 512 256 l 25
 512 128 l 25
 384 128 l 25
128 0 m 25
 128 128 l 25
 256 128 l 25
 256 0 l 25
 128 0 l 25
256 0 m 25
 256 128 l 25
 384 128 l 25
 384 0 l 25
 256 0 l 25
EndSplineSet
EndChar

StartChar: u0xf7
Encoding: 247 247 181
Width: 768
Flags: W
LayerCount: 2
Fore
SplineSet
256 640 m 25
 256 768 l 25
 384 768 l 25
 384 640 l 25
 256 640 l 25
0 384 m 25
 0 512 l 25
 128 512 l 25
 128 384 l 25
 0 384 l 25
128 384 m 25
 128 512 l 25
 256 512 l 25
 256 384 l 25
 128 384 l 25
256 384 m 25
 256 512 l 25
 384 512 l 25
 384 384 l 25
 256 384 l 25
384 384 m 25
 384 512 l 25
 512 512 l 25
 512 384 l 25
 384 384 l 25
512 384 m 25
 512 512 l 25
 640 512 l 25
 640 384 l 25
 512 384 l 25
256 128 m 25
 256 256 l 25
 384 256 l 25
 384 128 l 25
 256 128 l 25
EndSplineSet
EndChar

StartChar: u0xf8
Encoding: 248 248 182
Width: 640
Flags: W
LayerCount: 2
Fore
SplineSet
128 512 m 25
 128 640 l 25
 256 640 l 25
 256 512 l 25
 128 512 l 25
256 512 m 25
 256 640 l 25
 384 640 l 25
 384 512 l 25
 256 512 l 25
384 512 m 25
 384 640 l 25
 512 640 l 25
 512 512 l 25
 384 512 l 25
0 384 m 25
 0 512 l 25
 128 512 l 25
 128 384 l 25
 0 384 l 25
256 384 m 25
 256 512 l 25
 384 512 l 25
 384 384 l 25
 256 384 l 25
384 384 m 25
 384 512 l 25
 512 512 l 25
 512 384 l 25
 384 384 l 25
0 256 m 25
 0 384 l 25
 128 384 l 25
 128 256 l 25
 0 256 l 25
128 256 m 25
 128 384 l 25
 256 384 l 25
 256 256 l 25
 128 256 l 25
384 256 m 25
 384 384 l 25
 512 384 l 25
 512 256 l 25
 384 256 l 25
0 128 m 25
 0 256 l 25
 128 256 l 25
 128 128 l 25
 0 128 l 25
384 128 m 25
 384 256 l 25
 512 256 l 25
 512 128 l 25
 384 128 l 25
0 0 m 25
 0 128 l 25
 128 128 l 25
 128 0 l 25
 0 0 l 25
128 0 m 25
 128 128 l 25
 256 128 l 25
 256 0 l 25
 128 0 l 25
256 0 m 25
 256 128 l 25
 384 128 l 25
 384 0 l 25
 256 0 l 25
EndSplineSet
EndChar

StartChar: u0xf9
Encoding: 249 249 183
Width: 640
Flags: W
LayerCount: 2
Fore
SplineSet
128 896 m 25
 128 1024 l 25
 256 1024 l 25
 256 896 l 25
 128 896 l 25
256 768 m 25
 256 896 l 25
 384 896 l 25
 384 768 l 25
 256 768 l 25
0 512 m 25
 0 640 l 25
 128 640 l 25
 128 512 l 25
 0 512 l 25
384 512 m 25
 384 640 l 25
 512 640 l 25
 512 512 l 25
 384 512 l 25
0 384 m 25
 0 512 l 25
 128 512 l 25
 128 384 l 25
 0 384 l 25
384 384 m 25
 384 512 l 25
 512 512 l 25
 512 384 l 25
 384 384 l 25
0 256 m 25
 0 384 l 25
 128 384 l 25
 128 256 l 25
 0 256 l 25
384 256 m 25
 384 384 l 25
 512 384 l 25
 512 256 l 25
 384 256 l 25
0 128 m 25
 0 256 l 25
 128 256 l 25
 128 128 l 25
 0 128 l 25
384 128 m 25
 384 256 l 25
 512 256 l 25
 512 128 l 25
 384 128 l 25
128 0 m 25
 128 128 l 25
 256 128 l 25
 256 0 l 25
 128 0 l 25
256 0 m 25
 256 128 l 25
 384 128 l 25
 384 0 l 25
 256 0 l 25
384 0 m 25
 384 128 l 25
 512 128 l 25
 512 0 l 25
 384 0 l 25
EndSplineSet
EndChar

StartChar: u0xfa
Encoding: 250 250 184
Width: 640
Flags: W
LayerCount: 2
Fore
SplineSet
256 896 m 25
 256 1024 l 25
 384 1024 l 25
 384 896 l 25
 256 896 l 25
128 768 m 25
 128 896 l 25
 256 896 l 25
 256 768 l 25
 128 768 l 25
0 512 m 25
 0 640 l 25
 128 640 l 25
 128 512 l 25
 0 512 l 25
384 512 m 25
 384 640 l 25
 512 640 l 25
 512 512 l 25
 384 512 l 25
0 384 m 25
 0 512 l 25
 128 512 l 25
 128 384 l 25
 0 384 l 25
384 384 m 25
 384 512 l 25
 512 512 l 25
 512 384 l 25
 384 384 l 25
0 256 m 25
 0 384 l 25
 128 384 l 25
 128 256 l 25
 0 256 l 25
384 256 m 25
 384 384 l 25
 512 384 l 25
 512 256 l 25
 384 256 l 25
0 128 m 25
 0 256 l 25
 128 256 l 25
 128 128 l 25
 0 128 l 25
384 128 m 25
 384 256 l 25
 512 256 l 25
 512 128 l 25
 384 128 l 25
128 0 m 25
 128 128 l 25
 256 128 l 25
 256 0 l 25
 128 0 l 25
256 0 m 25
 256 128 l 25
 384 128 l 25
 384 0 l 25
 256 0 l 25
384 0 m 25
 384 128 l 25
 512 128 l 25
 512 0 l 25
 384 0 l 25
EndSplineSet
EndChar

StartChar: u0xfb
Encoding: 251 251 185
Width: 640
Flags: W
LayerCount: 2
Fore
SplineSet
128 896 m 25
 128 1024 l 25
 256 1024 l 25
 256 896 l 25
 128 896 l 25
256 896 m 25
 256 1024 l 25
 384 1024 l 25
 384 896 l 25
 256 896 l 25
0 768 m 25
 0 896 l 25
 128 896 l 25
 128 768 l 25
 0 768 l 25
384 768 m 25
 384 896 l 25
 512 896 l 25
 512 768 l 25
 384 768 l 25
0 512 m 25
 0 640 l 25
 128 640 l 25
 128 512 l 25
 0 512 l 25
384 512 m 25
 384 640 l 25
 512 640 l 25
 512 512 l 25
 384 512 l 25
0 384 m 25
 0 512 l 25
 128 512 l 25
 128 384 l 25
 0 384 l 25
384 384 m 25
 384 512 l 25
 512 512 l 25
 512 384 l 25
 384 384 l 25
0 256 m 25
 0 384 l 25
 128 384 l 25
 128 256 l 25
 0 256 l 25
384 256 m 25
 384 384 l 25
 512 384 l 25
 512 256 l 25
 384 256 l 25
0 128 m 25
 0 256 l 25
 128 256 l 25
 128 128 l 25
 0 128 l 25
384 128 m 25
 384 256 l 25
 512 256 l 25
 512 128 l 25
 384 128 l 25
128 0 m 25
 128 128 l 25
 256 128 l 25
 256 0 l 25
 128 0 l 25
256 0 m 25
 256 128 l 25
 384 128 l 25
 384 0 l 25
 256 0 l 25
384 0 m 25
 384 128 l 25
 512 128 l 25
 512 0 l 25
 384 0 l 25
EndSplineSet
EndChar

StartChar: u0xfc
Encoding: 252 252 186
Width: 640
Flags: W
LayerCount: 2
Fore
SplineSet
0 768 m 25
 0 896 l 25
 128 896 l 25
 128 768 l 25
 0 768 l 25
384 768 m 25
 384 896 l 25
 512 896 l 25
 512 768 l 25
 384 768 l 25
0 512 m 25
 0 640 l 25
 128 640 l 25
 128 512 l 25
 0 512 l 25
384 512 m 25
 384 640 l 25
 512 640 l 25
 512 512 l 25
 384 512 l 25
0 384 m 25
 0 512 l 25
 128 512 l 25
 128 384 l 25
 0 384 l 25
384 384 m 25
 384 512 l 25
 512 512 l 25
 512 384 l 25
 384 384 l 25
0 256 m 25
 0 384 l 25
 128 384 l 25
 128 256 l 25
 0 256 l 25
384 256 m 25
 384 384 l 25
 512 384 l 25
 512 256 l 25
 384 256 l 25
0 128 m 25
 0 256 l 25
 128 256 l 25
 128 128 l 25
 0 128 l 25
384 128 m 25
 384 256 l 25
 512 256 l 25
 512 128 l 25
 384 128 l 25
128 0 m 25
 128 128 l 25
 256 128 l 25
 256 0 l 25
 128 0 l 25
256 0 m 25
 256 128 l 25
 384 128 l 25
 384 0 l 25
 256 0 l 25
384 0 m 25
 384 128 l 25
 512 128 l 25
 512 0 l 25
 384 0 l 25
EndSplineSet
EndChar

StartChar: u0xfd
Encoding: 253 253 187
Width: 640
Flags: W
LayerCount: 2
Fore
SplineSet
256 896 m 25
 256 1024 l 25
 384 1024 l 25
 384 896 l 25
 256 896 l 25
128 768 m 25
 128 896 l 25
 256 896 l 25
 256 768 l 25
 128 768 l 25
0 512 m 25
 0 640 l 25
 128 640 l 25
 128 512 l 25
 0 512 l 25
384 512 m 25
 384 640 l 25
 512 640 l 25
 512 512 l 25
 384 512 l 25
0 384 m 25
 0 512 l 25
 128 512 l 25
 128 384 l 25
 0 384 l 25
384 384 m 25
 384 512 l 25
 512 512 l 25
 512 384 l 25
 384 384 l 25
0 256 m 25
 0 384 l 25
 128 384 l 25
 128 256 l 25
 0 256 l 25
384 256 m 25
 384 384 l 25
 512 384 l 25
 512 256 l 25
 384 256 l 25
0 128 m 25
 0 256 l 25
 128 256 l 25
 128 128 l 25
 0 128 l 25
384 128 m 25
 384 256 l 25
 512 256 l 25
 512 128 l 25
 384 128 l 25
128 0 m 25
 128 128 l 25
 256 128 l 25
 256 0 l 25
 128 0 l 25
256 0 m 25
 256 128 l 25
 384 128 l 25
 384 0 l 25
 256 0 l 25
384 0 m 25
 384 128 l 25
 512 128 l 25
 512 0 l 25
 384 0 l 25
384 -128 m 25
 384 0 l 25
 512 0 l 25
 512 -128 l 25
 384 -128 l 25
128 -256 m 25
 128 -128 l 25
 256 -128 l 25
 256 -256 l 25
 128 -256 l 25
256 -256 m 25
 256 -128 l 25
 384 -128 l 25
 384 -256 l 25
 256 -256 l 25
EndSplineSet
EndChar

StartChar: u0xfe
Encoding: 254 254 188
Width: 640
Flags: W
LayerCount: 2
Fore
SplineSet
0 768 m 25
 0 896 l 25
 128 896 l 25
 128 768 l 25
 0 768 l 25
0 640 m 25
 0 768 l 25
 128 768 l 25
 128 640 l 25
 0 640 l 25
0 512 m 25
 0 640 l 25
 128 640 l 25
 128 512 l 25
 0 512 l 25
128 512 m 25
 128 640 l 25
 256 640 l 25
 256 512 l 25
 128 512 l 25
256 512 m 25
 256 640 l 25
 384 640 l 25
 384 512 l 25
 256 512 l 25
0 384 m 25
 0 512 l 25
 128 512 l 25
 128 384 l 25
 0 384 l 25
384 384 m 25
 384 512 l 25
 512 512 l 25
 512 384 l 25
 384 384 l 25
0 256 m 25
 0 384 l 25
 128 384 l 25
 128 256 l 25
 0 256 l 25
384 256 m 25
 384 384 l 25
 512 384 l 25
 512 256 l 25
 384 256 l 25
0 128 m 25
 0 256 l 25
 128 256 l 25
 128 128 l 25
 0 128 l 25
384 128 m 25
 384 256 l 25
 512 256 l 25
 512 128 l 25
 384 128 l 25
0 0 m 25
 0 128 l 25
 128 128 l 25
 128 0 l 25
 0 0 l 25
128 0 m 25
 128 128 l 25
 256 128 l 25
 256 0 l 25
 128 0 l 25
256 0 m 25
 256 128 l 25
 384 128 l 25
 384 0 l 25
 256 0 l 25
0 -128 m 25
 0 0 l 25
 128 0 l 25
 128 -128 l 25
 0 -128 l 25
0 -256 m 25
 0 -128 l 25
 128 -128 l 25
 128 -256 l 25
 0 -256 l 25
EndSplineSet
EndChar

StartChar: u0xff
Encoding: 255 255 189
Width: 640
Flags: W
LayerCount: 2
Fore
SplineSet
0 768 m 25
 0 896 l 25
 128 896 l 25
 128 768 l 25
 0 768 l 25
384 768 m 25
 384 896 l 25
 512 896 l 25
 512 768 l 25
 384 768 l 25
0 512 m 25
 0 640 l 25
 128 640 l 25
 128 512 l 25
 0 512 l 25
384 512 m 25
 384 640 l 25
 512 640 l 25
 512 512 l 25
 384 512 l 25
0 384 m 25
 0 512 l 25
 128 512 l 25
 128 384 l 25
 0 384 l 25
384 384 m 25
 384 512 l 25
 512 512 l 25
 512 384 l 25
 384 384 l 25
0 256 m 25
 0 384 l 25
 128 384 l 25
 128 256 l 25
 0 256 l 25
384 256 m 25
 384 384 l 25
 512 384 l 25
 512 256 l 25
 384 256 l 25
0 128 m 25
 0 256 l 25
 128 256 l 25
 128 128 l 25
 0 128 l 25
384 128 m 25
 384 256 l 25
 512 256 l 25
 512 128 l 25
 384 128 l 25
128 0 m 25
 128 128 l 25
 256 128 l 25
 256 0 l 25
 128 0 l 25
256 0 m 25
 256 128 l 25
 384 128 l 25
 384 0 l 25
 256 0 l 25
384 0 m 25
 384 128 l 25
 512 128 l 25
 512 0 l 25
 384 0 l 25
384 -128 m 25
 384 0 l 25
 512 0 l 25
 512 -128 l 25
 384 -128 l 25
128 -256 m 25
 128 -128 l 25
 256 -128 l 25
 256 -256 l 25
 128 -256 l 25
256 -256 m 25
 256 -128 l 25
 384 -128 l 25
 384 -256 l 25
 256 -256 l 25
EndSplineSet
EndChar

StartChar: u0x100
Encoding: 256 256 190
Width: 768
Flags: W
LayerCount: 2
Fore
SplineSet
128 1024 m 25
 128 1152 l 25
 256 1152 l 25
 256 1024 l 25
 128 1024 l 25
256 1024 m 25
 256 1152 l 25
 384 1152 l 25
 384 1024 l 25
 256 1024 l 25
384 1024 m 25
 384 1152 l 25
 512 1152 l 25
 512 1024 l 25
 384 1024 l 25
256 768 m 25
 256 896 l 25
 384 896 l 25
 384 768 l 25
 256 768 l 25
128 640 m 25
 128 768 l 25
 256 768 l 25
 256 640 l 25
 128 640 l 25
384 640 m 25
 384 768 l 25
 512 768 l 25
 512 640 l 25
 384 640 l 25
128 512 m 25
 128 640 l 25
 256 640 l 25
 256 512 l 25
 128 512 l 25
384 512 m 25
 384 640 l 25
 512 640 l 25
 512 512 l 25
 384 512 l 25
0 384 m 25
 0 512 l 25
 128 512 l 25
 128 384 l 25
 0 384 l 25
512 384 m 25
 512 512 l 25
 640 512 l 25
 640 384 l 25
 512 384 l 25
0 256 m 25
 0 384 l 25
 128 384 l 25
 128 256 l 25
 0 256 l 25
128 256 m 25
 128 384 l 25
 256 384 l 25
 256 256 l 25
 128 256 l 25
256 256 m 25
 256 384 l 25
 384 384 l 25
 384 256 l 25
 256 256 l 25
384 256 m 25
 384 384 l 25
 512 384 l 25
 512 256 l 25
 384 256 l 25
512 256 m 25
 512 384 l 25
 640 384 l 25
 640 256 l 25
 512 256 l 25
0 128 m 25
 0 256 l 25
 128 256 l 25
 128 128 l 25
 0 128 l 25
512 128 m 25
 512 256 l 25
 640 256 l 25
 640 128 l 25
 512 128 l 25
0 0 m 25
 0 128 l 25
 128 128 l 25
 128 0 l 25
 0 0 l 25
512 0 m 25
 512 128 l 25
 640 128 l 25
 640 0 l 25
 512 0 l 25
EndSplineSet
EndChar

StartChar: u0x101
Encoding: 257 257 191
Width: 640
Flags: W
LayerCount: 2
Fore
SplineSet
128 768 m 25
 128 896 l 25
 256 896 l 25
 256 768 l 25
 128 768 l 25
256 768 m 25
 256 896 l 25
 384 896 l 25
 384 768 l 25
 256 768 l 25
384 768 m 25
 384 896 l 25
 512 896 l 25
 512 768 l 25
 384 768 l 25
128 512 m 25
 128 640 l 25
 256 640 l 25
 256 512 l 25
 128 512 l 25
256 512 m 25
 256 640 l 25
 384 640 l 25
 384 512 l 25
 256 512 l 25
384 384 m 25
 384 512 l 25
 512 512 l 25
 512 384 l 25
 384 384 l 25
128 256 m 25
 128 384 l 25
 256 384 l 25
 256 256 l 25
 128 256 l 25
256 256 m 25
 256 384 l 25
 384 384 l 25
 384 256 l 25
 256 256 l 25
384 256 m 25
 384 384 l 25
 512 384 l 25
 512 256 l 25
 384 256 l 25
0 128 m 25
 0 256 l 25
 128 256 l 25
 128 128 l 25
 0 128 l 25
384 128 m 25
 384 256 l 25
 512 256 l 25
 512 128 l 25
 384 128 l 25
128 0 m 25
 128 128 l 25
 256 128 l 25
 256 0 l 25
 128 0 l 25
256 0 m 25
 256 128 l 25
 384 128 l 25
 384 0 l 25
 256 0 l 25
384 0 m 25
 384 128 l 25
 512 128 l 25
 512 0 l 25
 384 0 l 25
EndSplineSet
EndChar

StartChar: u0x102
Encoding: 258 258 192
Width: 768
Flags: W
LayerCount: 2
Fore
SplineSet
128 1152 m 25
 128 1280 l 25
 256 1280 l 25
 256 1152 l 25
 128 1152 l 25
384 1152 m 25
 384 1280 l 25
 512 1280 l 25
 512 1152 l 25
 384 1152 l 25
256 1024 m 25
 256 1152 l 25
 384 1152 l 25
 384 1024 l 25
 256 1024 l 25
256 768 m 25
 256 896 l 25
 384 896 l 25
 384 768 l 25
 256 768 l 25
128 640 m 25
 128 768 l 25
 256 768 l 25
 256 640 l 25
 128 640 l 25
384 640 m 25
 384 768 l 25
 512 768 l 25
 512 640 l 25
 384 640 l 25
128 512 m 25
 128 640 l 25
 256 640 l 25
 256 512 l 25
 128 512 l 25
384 512 m 25
 384 640 l 25
 512 640 l 25
 512 512 l 25
 384 512 l 25
0 384 m 25
 0 512 l 25
 128 512 l 25
 128 384 l 25
 0 384 l 25
512 384 m 25
 512 512 l 25
 640 512 l 25
 640 384 l 25
 512 384 l 25
0 256 m 25
 0 384 l 25
 128 384 l 25
 128 256 l 25
 0 256 l 25
128 256 m 25
 128 384 l 25
 256 384 l 25
 256 256 l 25
 128 256 l 25
256 256 m 25
 256 384 l 25
 384 384 l 25
 384 256 l 25
 256 256 l 25
384 256 m 25
 384 384 l 25
 512 384 l 25
 512 256 l 25
 384 256 l 25
512 256 m 25
 512 384 l 25
 640 384 l 25
 640 256 l 25
 512 256 l 25
0 128 m 25
 0 256 l 25
 128 256 l 25
 128 128 l 25
 0 128 l 25
512 128 m 25
 512 256 l 25
 640 256 l 25
 640 128 l 25
 512 128 l 25
0 0 m 25
 0 128 l 25
 128 128 l 25
 128 0 l 25
 0 0 l 25
512 0 m 25
 512 128 l 25
 640 128 l 25
 640 0 l 25
 512 0 l 25
EndSplineSet
EndChar

StartChar: u0x103
Encoding: 259 259 193
Width: 640
Flags: W
LayerCount: 2
Fore
SplineSet
128 896 m 25
 128 1024 l 25
 256 1024 l 25
 256 896 l 25
 128 896 l 25
384 896 m 25
 384 1024 l 25
 512 1024 l 25
 512 896 l 25
 384 896 l 25
256 768 m 25
 256 896 l 25
 384 896 l 25
 384 768 l 25
 256 768 l 25
128 512 m 25
 128 640 l 25
 256 640 l 25
 256 512 l 25
 128 512 l 25
256 512 m 25
 256 640 l 25
 384 640 l 25
 384 512 l 25
 256 512 l 25
384 384 m 25
 384 512 l 25
 512 512 l 25
 512 384 l 25
 384 384 l 25
128 256 m 25
 128 384 l 25
 256 384 l 25
 256 256 l 25
 128 256 l 25
256 256 m 25
 256 384 l 25
 384 384 l 25
 384 256 l 25
 256 256 l 25
384 256 m 25
 384 384 l 25
 512 384 l 25
 512 256 l 25
 384 256 l 25
0 128 m 25
 0 256 l 25
 128 256 l 25
 128 128 l 25
 0 128 l 25
384 128 m 25
 384 256 l 25
 512 256 l 25
 512 128 l 25
 384 128 l 25
128 0 m 25
 128 128 l 25
 256 128 l 25
 256 0 l 25
 128 0 l 25
256 0 m 25
 256 128 l 25
 384 128 l 25
 384 0 l 25
 256 0 l 25
384 0 m 25
 384 128 l 25
 512 128 l 25
 512 0 l 25
 384 0 l 25
EndSplineSet
EndChar

StartChar: u0x104
Encoding: 260 260 194
Width: 768
Flags: W
LayerCount: 2
Fore
SplineSet
256 768 m 25
 256 896 l 25
 384 896 l 25
 384 768 l 25
 256 768 l 25
128 640 m 25
 128 768 l 25
 256 768 l 25
 256 640 l 25
 128 640 l 25
384 640 m 25
 384 768 l 25
 512 768 l 25
 512 640 l 25
 384 640 l 25
128 512 m 25
 128 640 l 25
 256 640 l 25
 256 512 l 25
 128 512 l 25
384 512 m 25
 384 640 l 25
 512 640 l 25
 512 512 l 25
 384 512 l 25
0 384 m 25
 0 512 l 25
 128 512 l 25
 128 384 l 25
 0 384 l 25
512 384 m 25
 512 512 l 25
 640 512 l 25
 640 384 l 25
 512 384 l 25
0 256 m 25
 0 384 l 25
 128 384 l 25
 128 256 l 25
 0 256 l 25
128 256 m 25
 128 384 l 25
 256 384 l 25
 256 256 l 25
 128 256 l 25
256 256 m 25
 256 384 l 25
 384 384 l 25
 384 256 l 25
 256 256 l 25
384 256 m 25
 384 384 l 25
 512 384 l 25
 512 256 l 25
 384 256 l 25
512 256 m 25
 512 384 l 25
 640 384 l 25
 640 256 l 25
 512 256 l 25
0 128 m 25
 0 256 l 25
 128 256 l 25
 128 128 l 25
 0 128 l 25
512 128 m 25
 512 256 l 25
 640 256 l 25
 640 128 l 25
 512 128 l 25
0 0 m 25
 0 128 l 25
 128 128 l 25
 128 0 l 25
 0 0 l 25
512 0 m 25
 512 128 l 25
 640 128 l 25
 640 0 l 25
 512 0 l 25
384 -128 m 25
 384 0 l 25
 512 0 l 25
 512 -128 l 25
 384 -128 l 25
512 -256 m 25
 512 -128 l 25
 640 -128 l 25
 640 -256 l 25
 512 -256 l 25
EndSplineSet
EndChar

StartChar: u0x105
Encoding: 261 261 195
Width: 640
Flags: W
LayerCount: 2
Fore
SplineSet
128 512 m 25
 128 640 l 25
 256 640 l 25
 256 512 l 25
 128 512 l 25
256 512 m 25
 256 640 l 25
 384 640 l 25
 384 512 l 25
 256 512 l 25
384 384 m 25
 384 512 l 25
 512 512 l 25
 512 384 l 25
 384 384 l 25
128 256 m 25
 128 384 l 25
 256 384 l 25
 256 256 l 25
 128 256 l 25
256 256 m 25
 256 384 l 25
 384 384 l 25
 384 256 l 25
 256 256 l 25
384 256 m 25
 384 384 l 25
 512 384 l 25
 512 256 l 25
 384 256 l 25
0 128 m 25
 0 256 l 25
 128 256 l 25
 128 128 l 25
 0 128 l 25
384 128 m 25
 384 256 l 25
 512 256 l 25
 512 128 l 25
 384 128 l 25
128 0 m 25
 128 128 l 25
 256 128 l 25
 256 0 l 25
 128 0 l 25
256 0 m 25
 256 128 l 25
 384 128 l 25
 384 0 l 25
 256 0 l 25
384 0 m 25
 384 128 l 25
 512 128 l 25
 512 0 l 25
 384 0 l 25
256 -128 m 25
 256 0 l 25
 384 0 l 25
 384 -128 l 25
 256 -128 l 25
384 -256 m 25
 384 -128 l 25
 512 -128 l 25
 512 -256 l 25
 384 -256 l 25
EndSplineSet
EndChar

StartChar: u0x106
Encoding: 262 262 196
Width: 640
Flags: W
LayerCount: 2
Fore
SplineSet
384 1152 m 25
 384 1280 l 25
 512 1280 l 25
 512 1152 l 25
 384 1152 l 25
256 1024 m 25
 256 1152 l 25
 384 1152 l 25
 384 1024 l 25
 256 1024 l 25
128 768 m 25
 128 896 l 25
 256 896 l 25
 256 768 l 25
 128 768 l 25
256 768 m 25
 256 896 l 25
 384 896 l 25
 384 768 l 25
 256 768 l 25
384 768 m 25
 384 896 l 25
 512 896 l 25
 512 768 l 25
 384 768 l 25
0 640 m 25
 0 768 l 25
 128 768 l 25
 128 640 l 25
 0 640 l 25
0 512 m 25
 0 640 l 25
 128 640 l 25
 128 512 l 25
 0 512 l 25
0 384 m 25
 0 512 l 25
 128 512 l 25
 128 384 l 25
 0 384 l 25
0 256 m 25
 0 384 l 25
 128 384 l 25
 128 256 l 25
 0 256 l 25
0 128 m 25
 0 256 l 25
 128 256 l 25
 128 128 l 25
 0 128 l 25
128 0 m 25
 128 128 l 25
 256 128 l 25
 256 0 l 25
 128 0 l 25
256 0 m 25
 256 128 l 25
 384 128 l 25
 384 0 l 25
 256 0 l 25
384 0 m 25
 384 128 l 25
 512 128 l 25
 512 0 l 25
 384 0 l 25
EndSplineSet
EndChar

StartChar: u0x107
Encoding: 263 263 197
Width: 512
Flags: W
LayerCount: 2
Fore
SplineSet
256 896 m 25
 256 1024 l 25
 384 1024 l 25
 384 896 l 25
 256 896 l 25
128 768 m 25
 128 896 l 25
 256 896 l 25
 256 768 l 25
 128 768 l 25
128 512 m 25
 128 640 l 25
 256 640 l 25
 256 512 l 25
 128 512 l 25
256 512 m 25
 256 640 l 25
 384 640 l 25
 384 512 l 25
 256 512 l 25
0 384 m 25
 0 512 l 25
 128 512 l 25
 128 384 l 25
 0 384 l 25
0 256 m 25
 0 384 l 25
 128 384 l 25
 128 256 l 25
 0 256 l 25
0 128 m 25
 0 256 l 25
 128 256 l 25
 128 128 l 25
 0 128 l 25
128 0 m 25
 128 128 l 25
 256 128 l 25
 256 0 l 25
 128 0 l 25
256 0 m 25
 256 128 l 25
 384 128 l 25
 384 0 l 25
 256 0 l 25
EndSplineSet
EndChar

StartChar: u0x108
Encoding: 264 264 198
Width: 640
Flags: W
LayerCount: 2
Fore
SplineSet
256 1152 m 25
 256 1280 l 25
 384 1280 l 25
 384 1152 l 25
 256 1152 l 25
128 1024 m 25
 128 1152 l 25
 256 1152 l 25
 256 1024 l 25
 128 1024 l 25
384 1024 m 25
 384 1152 l 25
 512 1152 l 25
 512 1024 l 25
 384 1024 l 25
128 768 m 25
 128 896 l 25
 256 896 l 25
 256 768 l 25
 128 768 l 25
256 768 m 25
 256 896 l 25
 384 896 l 25
 384 768 l 25
 256 768 l 25
384 768 m 25
 384 896 l 25
 512 896 l 25
 512 768 l 25
 384 768 l 25
0 640 m 25
 0 768 l 25
 128 768 l 25
 128 640 l 25
 0 640 l 25
0 512 m 25
 0 640 l 25
 128 640 l 25
 128 512 l 25
 0 512 l 25
0 384 m 25
 0 512 l 25
 128 512 l 25
 128 384 l 25
 0 384 l 25
0 256 m 25
 0 384 l 25
 128 384 l 25
 128 256 l 25
 0 256 l 25
0 128 m 25
 0 256 l 25
 128 256 l 25
 128 128 l 25
 0 128 l 25
128 0 m 25
 128 128 l 25
 256 128 l 25
 256 0 l 25
 128 0 l 25
256 0 m 25
 256 128 l 25
 384 128 l 25
 384 0 l 25
 256 0 l 25
384 0 m 25
 384 128 l 25
 512 128 l 25
 512 0 l 25
 384 0 l 25
EndSplineSet
EndChar

StartChar: u0x109
Encoding: 265 265 199
Width: 512
Flags: W
LayerCount: 2
Fore
SplineSet
128 896 m 25
 128 1024 l 25
 256 1024 l 25
 256 896 l 25
 128 896 l 25
0 768 m 25
 0 896 l 25
 128 896 l 25
 128 768 l 25
 0 768 l 25
256 768 m 25
 256 896 l 25
 384 896 l 25
 384 768 l 25
 256 768 l 25
128 512 m 25
 128 640 l 25
 256 640 l 25
 256 512 l 25
 128 512 l 25
256 512 m 25
 256 640 l 25
 384 640 l 25
 384 512 l 25
 256 512 l 25
0 384 m 25
 0 512 l 25
 128 512 l 25
 128 384 l 25
 0 384 l 25
0 256 m 25
 0 384 l 25
 128 384 l 25
 128 256 l 25
 0 256 l 25
0 128 m 25
 0 256 l 25
 128 256 l 25
 128 128 l 25
 0 128 l 25
128 0 m 25
 128 128 l 25
 256 128 l 25
 256 0 l 25
 128 0 l 25
256 0 m 25
 256 128 l 25
 384 128 l 25
 384 0 l 25
 256 0 l 25
EndSplineSet
EndChar

StartChar: u0x10a
Encoding: 266 266 200
Width: 640
Flags: W
LayerCount: 2
Fore
SplineSet
256 1024 m 25
 256 1152 l 25
 384 1152 l 25
 384 1024 l 25
 256 1024 l 25
128 768 m 25
 128 896 l 25
 256 896 l 25
 256 768 l 25
 128 768 l 25
256 768 m 25
 256 896 l 25
 384 896 l 25
 384 768 l 25
 256 768 l 25
384 768 m 25
 384 896 l 25
 512 896 l 25
 512 768 l 25
 384 768 l 25
0 640 m 25
 0 768 l 25
 128 768 l 25
 128 640 l 25
 0 640 l 25
0 512 m 25
 0 640 l 25
 128 640 l 25
 128 512 l 25
 0 512 l 25
0 384 m 25
 0 512 l 25
 128 512 l 25
 128 384 l 25
 0 384 l 25
0 256 m 25
 0 384 l 25
 128 384 l 25
 128 256 l 25
 0 256 l 25
0 128 m 25
 0 256 l 25
 128 256 l 25
 128 128 l 25
 0 128 l 25
128 0 m 25
 128 128 l 25
 256 128 l 25
 256 0 l 25
 128 0 l 25
256 0 m 25
 256 128 l 25
 384 128 l 25
 384 0 l 25
 256 0 l 25
384 0 m 25
 384 128 l 25
 512 128 l 25
 512 0 l 25
 384 0 l 25
EndSplineSet
EndChar

StartChar: u0x10b
Encoding: 267 267 201
Width: 512
Flags: W
LayerCount: 2
Fore
SplineSet
128 768 m 25
 128 896 l 25
 256 896 l 25
 256 768 l 25
 128 768 l 25
128 512 m 25
 128 640 l 25
 256 640 l 25
 256 512 l 25
 128 512 l 25
256 512 m 25
 256 640 l 25
 384 640 l 25
 384 512 l 25
 256 512 l 25
0 384 m 25
 0 512 l 25
 128 512 l 25
 128 384 l 25
 0 384 l 25
0 256 m 25
 0 384 l 25
 128 384 l 25
 128 256 l 25
 0 256 l 25
0 128 m 25
 0 256 l 25
 128 256 l 25
 128 128 l 25
 0 128 l 25
128 0 m 25
 128 128 l 25
 256 128 l 25
 256 0 l 25
 128 0 l 25
256 0 m 25
 256 128 l 25
 384 128 l 25
 384 0 l 25
 256 0 l 25
EndSplineSet
EndChar

StartChar: u0x10c
Encoding: 268 268 202
Width: 640
Flags: W
LayerCount: 2
Fore
SplineSet
128 1152 m 25
 128 1280 l 25
 256 1280 l 25
 256 1152 l 25
 128 1152 l 25
384 1152 m 25
 384 1280 l 25
 512 1280 l 25
 512 1152 l 25
 384 1152 l 25
256 1024 m 25
 256 1152 l 25
 384 1152 l 25
 384 1024 l 25
 256 1024 l 25
128 768 m 25
 128 896 l 25
 256 896 l 25
 256 768 l 25
 128 768 l 25
256 768 m 25
 256 896 l 25
 384 896 l 25
 384 768 l 25
 256 768 l 25
384 768 m 25
 384 896 l 25
 512 896 l 25
 512 768 l 25
 384 768 l 25
0 640 m 25
 0 768 l 25
 128 768 l 25
 128 640 l 25
 0 640 l 25
0 512 m 25
 0 640 l 25
 128 640 l 25
 128 512 l 25
 0 512 l 25
0 384 m 25
 0 512 l 25
 128 512 l 25
 128 384 l 25
 0 384 l 25
0 256 m 25
 0 384 l 25
 128 384 l 25
 128 256 l 25
 0 256 l 25
0 128 m 25
 0 256 l 25
 128 256 l 25
 128 128 l 25
 0 128 l 25
128 0 m 25
 128 128 l 25
 256 128 l 25
 256 0 l 25
 128 0 l 25
256 0 m 25
 256 128 l 25
 384 128 l 25
 384 0 l 25
 256 0 l 25
384 0 m 25
 384 128 l 25
 512 128 l 25
 512 0 l 25
 384 0 l 25
EndSplineSet
EndChar

StartChar: u0x10d
Encoding: 269 269 203
Width: 512
Flags: W
LayerCount: 2
Fore
SplineSet
0 896 m 25
 0 1024 l 25
 128 1024 l 25
 128 896 l 25
 0 896 l 25
256 896 m 25
 256 1024 l 25
 384 1024 l 25
 384 896 l 25
 256 896 l 25
128 768 m 25
 128 896 l 25
 256 896 l 25
 256 768 l 25
 128 768 l 25
128 512 m 25
 128 640 l 25
 256 640 l 25
 256 512 l 25
 128 512 l 25
256 512 m 25
 256 640 l 25
 384 640 l 25
 384 512 l 25
 256 512 l 25
0 384 m 25
 0 512 l 25
 128 512 l 25
 128 384 l 25
 0 384 l 25
0 256 m 25
 0 384 l 25
 128 384 l 25
 128 256 l 25
 0 256 l 25
0 128 m 25
 0 256 l 25
 128 256 l 25
 128 128 l 25
 0 128 l 25
128 0 m 25
 128 128 l 25
 256 128 l 25
 256 0 l 25
 128 0 l 25
256 0 m 25
 256 128 l 25
 384 128 l 25
 384 0 l 25
 256 0 l 25
EndSplineSet
EndChar

StartChar: u0x10e
Encoding: 270 270 204
Width: 768
Flags: W
LayerCount: 2
Fore
SplineSet
128 1152 m 25
 128 1280 l 25
 256 1280 l 25
 256 1152 l 25
 128 1152 l 25
384 1152 m 25
 384 1280 l 25
 512 1280 l 25
 512 1152 l 25
 384 1152 l 25
256 1024 m 25
 256 1152 l 25
 384 1152 l 25
 384 1024 l 25
 256 1024 l 25
0 768 m 25
 0 896 l 25
 128 896 l 25
 128 768 l 25
 0 768 l 25
128 768 m 25
 128 896 l 25
 256 896 l 25
 256 768 l 25
 128 768 l 25
256 768 m 25
 256 896 l 25
 384 896 l 25
 384 768 l 25
 256 768 l 25
384 768 m 25
 384 896 l 25
 512 896 l 25
 512 768 l 25
 384 768 l 25
0 640 m 25
 0 768 l 25
 128 768 l 25
 128 640 l 25
 0 640 l 25
512 640 m 25
 512 768 l 25
 640 768 l 25
 640 640 l 25
 512 640 l 25
0 512 m 25
 0 640 l 25
 128 640 l 25
 128 512 l 25
 0 512 l 25
512 512 m 25
 512 640 l 25
 640 640 l 25
 640 512 l 25
 512 512 l 25
0 384 m 25
 0 512 l 25
 128 512 l 25
 128 384 l 25
 0 384 l 25
512 384 m 25
 512 512 l 25
 640 512 l 25
 640 384 l 25
 512 384 l 25
0 256 m 25
 0 384 l 25
 128 384 l 25
 128 256 l 25
 0 256 l 25
512 256 m 25
 512 384 l 25
 640 384 l 25
 640 256 l 25
 512 256 l 25
0 128 m 25
 0 256 l 25
 128 256 l 25
 128 128 l 25
 0 128 l 25
512 128 m 25
 512 256 l 25
 640 256 l 25
 640 128 l 25
 512 128 l 25
0 0 m 25
 0 128 l 25
 128 128 l 25
 128 0 l 25
 0 0 l 25
128 0 m 25
 128 128 l 25
 256 128 l 25
 256 0 l 25
 128 0 l 25
256 0 m 25
 256 128 l 25
 384 128 l 25
 384 0 l 25
 256 0 l 25
384 0 m 25
 384 128 l 25
 512 128 l 25
 512 0 l 25
 384 0 l 25
EndSplineSet
EndChar

StartChar: u0x10f
Encoding: 271 271 205
Width: 896
Flags: W
LayerCount: 2
Fore
SplineSet
384 768 m 25
 384 896 l 25
 512 896 l 25
 512 768 l 25
 384 768 l 25
640 768 m 25
 640 896 l 25
 768 896 l 25
 768 768 l 25
 640 768 l 25
384 640 m 25
 384 768 l 25
 512 768 l 25
 512 640 l 25
 384 640 l 25
640 640 m 25
 640 768 l 25
 768 768 l 25
 768 640 l 25
 640 640 l 25
128 512 m 25
 128 640 l 25
 256 640 l 25
 256 512 l 25
 128 512 l 25
256 512 m 25
 256 640 l 25
 384 640 l 25
 384 512 l 25
 256 512 l 25
384 512 m 25
 384 640 l 25
 512 640 l 25
 512 512 l 25
 384 512 l 25
0 384 m 25
 0 512 l 25
 128 512 l 25
 128 384 l 25
 0 384 l 25
384 384 m 25
 384 512 l 25
 512 512 l 25
 512 384 l 25
 384 384 l 25
0 256 m 25
 0 384 l 25
 128 384 l 25
 128 256 l 25
 0 256 l 25
384 256 m 25
 384 384 l 25
 512 384 l 25
 512 256 l 25
 384 256 l 25
0 128 m 25
 0 256 l 25
 128 256 l 25
 128 128 l 25
 0 128 l 25
384 128 m 25
 384 256 l 25
 512 256 l 25
 512 128 l 25
 384 128 l 25
128 0 m 25
 128 128 l 25
 256 128 l 25
 256 0 l 25
 128 0 l 25
256 0 m 25
 256 128 l 25
 384 128 l 25
 384 0 l 25
 256 0 l 25
384 0 m 25
 384 128 l 25
 512 128 l 25
 512 0 l 25
 384 0 l 25
EndSplineSet
EndChar

StartChar: u0x110
Encoding: 272 272 206
Width: 896
Flags: W
LayerCount: 2
Fore
SplineSet
128 768 m 25
 128 896 l 25
 256 896 l 25
 256 768 l 25
 128 768 l 25
256 768 m 25
 256 896 l 25
 384 896 l 25
 384 768 l 25
 256 768 l 25
384 768 m 25
 384 896 l 25
 512 896 l 25
 512 768 l 25
 384 768 l 25
512 768 m 25
 512 896 l 25
 640 896 l 25
 640 768 l 25
 512 768 l 25
128 640 m 25
 128 768 l 25
 256 768 l 25
 256 640 l 25
 128 640 l 25
640 640 m 25
 640 768 l 25
 768 768 l 25
 768 640 l 25
 640 640 l 25
128 512 m 25
 128 640 l 25
 256 640 l 25
 256 512 l 25
 128 512 l 25
640 512 m 25
 640 640 l 25
 768 640 l 25
 768 512 l 25
 640 512 l 25
0 384 m 25
 0 512 l 25
 128 512 l 25
 128 384 l 25
 0 384 l 25
128 384 m 25
 128 512 l 25
 256 512 l 25
 256 384 l 25
 128 384 l 25
256 384 m 25
 256 512 l 25
 384 512 l 25
 384 384 l 25
 256 384 l 25
640 384 m 25
 640 512 l 25
 768 512 l 25
 768 384 l 25
 640 384 l 25
128 256 m 25
 128 384 l 25
 256 384 l 25
 256 256 l 25
 128 256 l 25
640 256 m 25
 640 384 l 25
 768 384 l 25
 768 256 l 25
 640 256 l 25
128 128 m 25
 128 256 l 25
 256 256 l 25
 256 128 l 25
 128 128 l 25
640 128 m 25
 640 256 l 25
 768 256 l 25
 768 128 l 25
 640 128 l 25
128 0 m 25
 128 128 l 25
 256 128 l 25
 256 0 l 25
 128 0 l 25
256 0 m 25
 256 128 l 25
 384 128 l 25
 384 0 l 25
 256 0 l 25
384 0 m 25
 384 128 l 25
 512 128 l 25
 512 0 l 25
 384 0 l 25
512 0 m 25
 512 128 l 25
 640 128 l 25
 640 0 l 25
 512 0 l 25
EndSplineSet
EndChar

StartChar: u0x111
Encoding: 273 273 207
Width: 640
Flags: W
LayerCount: 2
Fore
SplineSet
384 896 m 25
 384 1024 l 25
 512 1024 l 25
 512 896 l 25
 384 896 l 25
256 768 m 25
 256 896 l 25
 384 896 l 25
 384 768 l 25
 256 768 l 25
384 768 m 25
 384 896 l 25
 512 896 l 25
 512 768 l 25
 384 768 l 25
384 640 m 25
 384 768 l 25
 512 768 l 25
 512 640 l 25
 384 640 l 25
128 512 m 25
 128 640 l 25
 256 640 l 25
 256 512 l 25
 128 512 l 25
256 512 m 25
 256 640 l 25
 384 640 l 25
 384 512 l 25
 256 512 l 25
384 512 m 25
 384 640 l 25
 512 640 l 25
 512 512 l 25
 384 512 l 25
0 384 m 25
 0 512 l 25
 128 512 l 25
 128 384 l 25
 0 384 l 25
384 384 m 25
 384 512 l 25
 512 512 l 25
 512 384 l 25
 384 384 l 25
0 256 m 25
 0 384 l 25
 128 384 l 25
 128 256 l 25
 0 256 l 25
384 256 m 25
 384 384 l 25
 512 384 l 25
 512 256 l 25
 384 256 l 25
0 128 m 25
 0 256 l 25
 128 256 l 25
 128 128 l 25
 0 128 l 25
384 128 m 25
 384 256 l 25
 512 256 l 25
 512 128 l 25
 384 128 l 25
128 0 m 25
 128 128 l 25
 256 128 l 25
 256 0 l 25
 128 0 l 25
256 0 m 25
 256 128 l 25
 384 128 l 25
 384 0 l 25
 256 0 l 25
384 0 m 25
 384 128 l 25
 512 128 l 25
 512 0 l 25
 384 0 l 25
EndSplineSet
EndChar

StartChar: u0x112
Encoding: 274 274 208
Width: 640
Flags: W
LayerCount: 2
Fore
SplineSet
128 1024 m 25
 128 1152 l 25
 256 1152 l 25
 256 1024 l 25
 128 1024 l 25
256 1024 m 25
 256 1152 l 25
 384 1152 l 25
 384 1024 l 25
 256 1024 l 25
0 768 m 25
 0 896 l 25
 128 896 l 25
 128 768 l 25
 0 768 l 25
128 768 m 25
 128 896 l 25
 256 896 l 25
 256 768 l 25
 128 768 l 25
256 768 m 25
 256 896 l 25
 384 896 l 25
 384 768 l 25
 256 768 l 25
384 768 m 25
 384 896 l 25
 512 896 l 25
 512 768 l 25
 384 768 l 25
0 640 m 25
 0 768 l 25
 128 768 l 25
 128 640 l 25
 0 640 l 25
0 512 m 25
 0 640 l 25
 128 640 l 25
 128 512 l 25
 0 512 l 25
0 384 m 25
 0 512 l 25
 128 512 l 25
 128 384 l 25
 0 384 l 25
128 384 m 25
 128 512 l 25
 256 512 l 25
 256 384 l 25
 128 384 l 25
256 384 m 25
 256 512 l 25
 384 512 l 25
 384 384 l 25
 256 384 l 25
0 256 m 25
 0 384 l 25
 128 384 l 25
 128 256 l 25
 0 256 l 25
0 128 m 25
 0 256 l 25
 128 256 l 25
 128 128 l 25
 0 128 l 25
0 0 m 25
 0 128 l 25
 128 128 l 25
 128 0 l 25
 0 0 l 25
128 0 m 25
 128 128 l 25
 256 128 l 25
 256 0 l 25
 128 0 l 25
256 0 m 25
 256 128 l 25
 384 128 l 25
 384 0 l 25
 256 0 l 25
384 0 m 25
 384 128 l 25
 512 128 l 25
 512 0 l 25
 384 0 l 25
EndSplineSet
EndChar

StartChar: u0x113
Encoding: 275 275 209
Width: 640
Flags: W
LayerCount: 2
Fore
SplineSet
128 768 m 25
 128 896 l 25
 256 896 l 25
 256 768 l 25
 128 768 l 25
256 768 m 25
 256 896 l 25
 384 896 l 25
 384 768 l 25
 256 768 l 25
128 512 m 25
 128 640 l 25
 256 640 l 25
 256 512 l 25
 128 512 l 25
256 512 m 25
 256 640 l 25
 384 640 l 25
 384 512 l 25
 256 512 l 25
0 384 m 25
 0 512 l 25
 128 512 l 25
 128 384 l 25
 0 384 l 25
384 384 m 25
 384 512 l 25
 512 512 l 25
 512 384 l 25
 384 384 l 25
0 256 m 25
 0 384 l 25
 128 384 l 25
 128 256 l 25
 0 256 l 25
128 256 m 25
 128 384 l 25
 256 384 l 25
 256 256 l 25
 128 256 l 25
256 256 m 25
 256 384 l 25
 384 384 l 25
 384 256 l 25
 256 256 l 25
384 256 m 25
 384 384 l 25
 512 384 l 25
 512 256 l 25
 384 256 l 25
0 128 m 25
 0 256 l 25
 128 256 l 25
 128 128 l 25
 0 128 l 25
128 0 m 25
 128 128 l 25
 256 128 l 25
 256 0 l 25
 128 0 l 25
256 0 m 25
 256 128 l 25
 384 128 l 25
 384 0 l 25
 256 0 l 25
EndSplineSet
EndChar

StartChar: u0x114
Encoding: 276 276 210
Width: 640
Flags: W
LayerCount: 2
Fore
SplineSet
0 1152 m 25
 0 1280 l 25
 128 1280 l 25
 128 1152 l 25
 0 1152 l 25
384 1152 m 25
 384 1280 l 25
 512 1280 l 25
 512 1152 l 25
 384 1152 l 25
128 1024 m 25
 128 1152 l 25
 256 1152 l 25
 256 1024 l 25
 128 1024 l 25
256 1024 m 25
 256 1152 l 25
 384 1152 l 25
 384 1024 l 25
 256 1024 l 25
0 768 m 25
 0 896 l 25
 128 896 l 25
 128 768 l 25
 0 768 l 25
128 768 m 25
 128 896 l 25
 256 896 l 25
 256 768 l 25
 128 768 l 25
256 768 m 25
 256 896 l 25
 384 896 l 25
 384 768 l 25
 256 768 l 25
384 768 m 25
 384 896 l 25
 512 896 l 25
 512 768 l 25
 384 768 l 25
0 640 m 25
 0 768 l 25
 128 768 l 25
 128 640 l 25
 0 640 l 25
0 512 m 25
 0 640 l 25
 128 640 l 25
 128 512 l 25
 0 512 l 25
0 384 m 25
 0 512 l 25
 128 512 l 25
 128 384 l 25
 0 384 l 25
128 384 m 25
 128 512 l 25
 256 512 l 25
 256 384 l 25
 128 384 l 25
256 384 m 25
 256 512 l 25
 384 512 l 25
 384 384 l 25
 256 384 l 25
0 256 m 25
 0 384 l 25
 128 384 l 25
 128 256 l 25
 0 256 l 25
0 128 m 25
 0 256 l 25
 128 256 l 25
 128 128 l 25
 0 128 l 25
0 0 m 25
 0 128 l 25
 128 128 l 25
 128 0 l 25
 0 0 l 25
128 0 m 25
 128 128 l 25
 256 128 l 25
 256 0 l 25
 128 0 l 25
256 0 m 25
 256 128 l 25
 384 128 l 25
 384 0 l 25
 256 0 l 25
384 0 m 25
 384 128 l 25
 512 128 l 25
 512 0 l 25
 384 0 l 25
EndSplineSet
EndChar

StartChar: u0x115
Encoding: 277 277 211
Width: 640
Flags: W
LayerCount: 2
Fore
SplineSet
0 896 m 25
 0 1024 l 25
 128 1024 l 25
 128 896 l 25
 0 896 l 25
384 896 m 25
 384 1024 l 25
 512 1024 l 25
 512 896 l 25
 384 896 l 25
128 768 m 25
 128 896 l 25
 256 896 l 25
 256 768 l 25
 128 768 l 25
256 768 m 25
 256 896 l 25
 384 896 l 25
 384 768 l 25
 256 768 l 25
128 512 m 25
 128 640 l 25
 256 640 l 25
 256 512 l 25
 128 512 l 25
256 512 m 25
 256 640 l 25
 384 640 l 25
 384 512 l 25
 256 512 l 25
0 384 m 25
 0 512 l 25
 128 512 l 25
 128 384 l 25
 0 384 l 25
384 384 m 25
 384 512 l 25
 512 512 l 25
 512 384 l 25
 384 384 l 25
0 256 m 25
 0 384 l 25
 128 384 l 25
 128 256 l 25
 0 256 l 25
128 256 m 25
 128 384 l 25
 256 384 l 25
 256 256 l 25
 128 256 l 25
256 256 m 25
 256 384 l 25
 384 384 l 25
 384 256 l 25
 256 256 l 25
384 256 m 25
 384 384 l 25
 512 384 l 25
 512 256 l 25
 384 256 l 25
0 128 m 25
 0 256 l 25
 128 256 l 25
 128 128 l 25
 0 128 l 25
128 0 m 25
 128 128 l 25
 256 128 l 25
 256 0 l 25
 128 0 l 25
256 0 m 25
 256 128 l 25
 384 128 l 25
 384 0 l 25
 256 0 l 25
EndSplineSet
EndChar

